<?xml version="1.0" encoding="utf-8"?>
<!-- Generator: Adobe Illustrator 14.0.0, SVG Export Plug-In . SVG Version: 6.00 Build 43363)  -->
<!DOCTYPE svg PUBLIC "-//W3C//DTD SVG 1.1//EN" "http://www.w3.org/Graphics/SVG/1.1/DTD/svg11.dtd">
<svg version="1.1" xmlns="http://www.w3.org/2000/svg" xmlns:xlink="http://www.w3.org/1999/xlink" x="0px" y="0px"
	 width="60px" height="84px" viewBox="60 75 480 663" enable-background="new 0 0 595.28 841.89" xml:space="preserve">
<g id="图层_1" display="none">
	<path display="inline" fill="none" stroke="#000000" d="M105,214c0,178.533,86.161,323,192.64,323"/>
	<path display="inline" fill="none" stroke="#000000" d="M475,214c0,178.533-79.327,323-177.36,323"/>
	<line display="inline" fill="none" stroke="#000000" x1="105" y1="214" x2="475" y2="214"/>
	<line display="inline" fill="none" stroke="#000000" x1="105" y1="214" x2="105" y2="134"/>
	<line display="inline" fill="none" stroke="#000000" x1="105" y1="134" x2="475" y2="134"/>
	<line display="inline" fill="none" stroke="#000000" x1="475" y1="134" x2="475" y2="214"/>
</g>
<g id="图层_2">
</g>
<g id="图层_3">
	<line fill="none" stroke="#000000" stroke-width="2" x1="302.445" y1="692.976" x2="304.576" y2="692.958"/>
</g>
<g id="图层_4">
</g>
<g id="图层_5" display="none">
	<line display="inline" fill="none" stroke="#000000" stroke-width="2" x1="290" y1="388.197" x2="290" y2="360"/>
	<line display="inline" fill="none" stroke="#000000" stroke-width="2" x1="315.333" y1="388.197" x2="315.333" y2="360"/>
	<line display="inline" fill="none" stroke="#000000" stroke-width="2" x1="290" y1="360" x2="229.269" y2="401.5"/>
	<line display="inline" fill="none" stroke="#000000" stroke-width="2" x1="315.333" y1="360" x2="376.731" y2="401.5"/>
	<line display="inline" fill="none" stroke="#000000" stroke-width="2" x1="228.192" y1="400.725" x2="212.077" y2="378.338"/>
	<line display="inline" fill="none" stroke="#000000" stroke-width="2" x1="385.984" y1="388.461" x2="376.731" y2="401.314"/>
</g>
<g id="图层_6" display="none">
	
		<rect x="198.667" y="314.974" transform="matrix(0.9001 -0.4358 0.4358 0.9001 -116.4391 165.431)" display="inline" fill="none" stroke="#000000" stroke-width="2" width="207.559" height="43.195"/>
	
		<rect x="198.666" y="314.974" transform="matrix(0.9001 0.4358 -0.4358 0.9001 176.8922 -98.1585)" display="inline" fill="none" stroke="#000000" stroke-width="2" width="207.559" height="43.195"/>
</g>
<g id="图层_7">
</g>
<g id="图层_8" display="none">
	<g display="inline">
		<line fill="none" stroke="#000000" stroke-width="2" x1="99.947" y1="178.807" x2="99.947" y2="116"/>
		<line fill="none" stroke="#000000" stroke-width="2" x1="99.947" y1="116" x2="161.597" y2="116"/>
		<line fill="none" stroke="#000000" stroke-width="2" x1="161.597" y1="116" x2="161.597" y2="154.667"/>
		<line fill="none" stroke="#000000" x1="161.597" y1="154.667" x2="186.333" y2="154.667"/>
		<line fill="none" stroke="#000000" stroke-width="2" x1="186.333" y1="154.667" x2="186.333" y2="116"/>
		<line fill="none" stroke="#000000" stroke-width="2" x1="186.333" y1="116" x2="247.984" y2="116"/>
		<line fill="none" stroke="#000000" stroke-width="2" x1="247.984" y1="116" x2="247.984" y2="154.667"/>
		<line fill="none" stroke="#000000" x1="247.983" y1="154.667" x2="272.72" y2="154.667"/>
		<line fill="none" stroke="#000000" stroke-width="2" x1="272.72" y1="154.667" x2="272.72" y2="116"/>
		<line fill="none" stroke="#000000" stroke-width="2" x1="272.72" y1="116" x2="334.37" y2="116"/>
		<line fill="none" stroke="#000000" stroke-width="2" x1="334.37" y1="116" x2="334.37" y2="154.667"/>
		<line fill="none" stroke="#000000" x1="333.158" y1="154.667" x2="357.896" y2="154.667"/>
		<line fill="none" stroke="#000000" stroke-width="2" x1="357.896" y1="154.667" x2="357.896" y2="116"/>
		<line fill="none" stroke="#000000" stroke-width="2" x1="357.896" y1="116" x2="419.546" y2="116"/>
		<line fill="none" stroke="#000000" stroke-width="2" x1="419.546" y1="116" x2="419.546" y2="154.667"/>
		<line fill="none" stroke="#000000" x1="419.545" y1="154.667" x2="444.281" y2="154.667"/>
	</g>
	<line display="inline" fill="none" stroke="#000000" stroke-width="2" x1="444.281" y1="154.667" x2="444.281" y2="116"/>
	<line display="inline" fill="none" stroke="#000000" stroke-width="2" x1="444.281" y1="116" x2="508.016" y2="116"/>
	<line display="inline" fill="none" stroke="#000000" stroke-width="2" x1="508.016" y1="178.807" x2="508.016" y2="116"/>
</g>
<g id="图层_9">
	<g id="XMLID_1_">
		<g>
			<path d="M303.9,612.48c12.239-2.671,24.14-6.82,35.42-12.25c29.59-14.261,54.76-37.2,72.41-64.841
				c17.71-27.739,27.84-60.39,27.42-93.399v-151h-271v151c-0.88,39.55,13.22,78.939,37.68,109.88
				c23.08,29.2,55.91,50.63,92.08,59.56c1.54,0.391,3.09,0.74,4.64,1.07L303.9,612.48z M508.02,437.18
				c0.62,49.71-14.63,98.87-41.3,140.65c-26.58,41.62-64.47,76.16-109.04,97.63c-16.989,8.19-34.93,14.44-53.37,18.47l-1.369,0.15
				c-2.551-0.54-5.081-1.12-7.61-1.74c-54.47-13.46-103.89-45.72-138.65-89.7c-36.83-46.59-58.06-105.89-56.73-165.46V209.81v-0.6
				v-67.27h78.71v43.17h31.59v-43.17h78.71v43.17h31.59v-43.17h78.71v43.17h0.86c9.729,0,19.45,0,29.18,0v-43.17h78.72v67.87V437.18
				z"/>
			<path fill="#FFFFFF" d="M303,396.47l0.51-0.31l66.45,41.12l38.49-23.82L342,372.34l66.45-41.12l-38.49-23.82l-66.45,41.12
				l-66.45-41.12l-38.49,23.82l66.45,41.12l-66.45,41.12l38.49,23.82L303,396.47z M356.38,553.77
				c12.61-13.229,20.351-31.149,20.351-50.869c0-19.721-7.74-37.631-20.341-50.86c-13.33-13.97-32.069-22.72-52.87-22.86
				c-0.17-0.01-0.35-0.01-0.52-0.01c-0.01,0-0.03,0-0.04,0c-20.94,0.01-39.83,8.75-53.26,22.771
				c-12.65,13.239-20.43,31.189-20.43,50.96c0,19.979,7.95,38.1,20.86,51.39c13.38,13.77,32.11,22.33,52.83,22.34
				c0.01,0,0.03,0,0.04,0c0.17,0,0.35,0,0.52-0.01C324.31,576.48,343.05,567.74,356.38,553.77z M439.15,441.99
				c0.42,33.01-9.71,65.66-27.42,93.399c-17.65,27.641-42.82,50.58-72.41,64.841c-11.28,5.43-23.181,9.579-35.42,12.25l-1.351,0.02
				c-1.55-0.33-3.1-0.68-4.64-1.07c-36.17-8.93-69-30.359-92.08-59.56c-24.46-30.94-38.56-70.33-37.68-109.88v-151h271V441.99z"/>
			<polygon fill="#82D0F4" points="408.45,331.22 342,372.34 303.51,348.52 369.96,307.4 			"/>
			<polygon fill="#82D0F4" points="408.45,413.46 369.96,437.28 303.51,396.16 342,372.34 			"/>
			<path fill="#82D0F4" d="M376.73,502.9h-0.45H334.06c-0.06-11.971-2.17-23.971-6.35-35.431c16.99-2.92,28.58-8.729,28.68-15.43
				C368.99,465.27,376.73,483.18,376.73,502.9z"/>
			<path fill="#82D0F4" d="M376.28,502.9h0.45c0,19.72-7.74,37.64-20.351,50.869c-0.16-6.649-11.6-12.399-28.38-15.329
				c4.11-11.431,6.14-23.471,6.06-35.54H376.28z"/>
			<path fill="#82D0F4" d="M303.52,429.18c20.801,0.141,39.54,8.891,52.87,22.86c-0.1,6.7-11.689,12.51-28.68,15.43
				C322.67,453.57,314.6,440.47,303.52,429.18z"/>
			<path fill="#82D0F4" d="M356.38,553.77c-13.33,13.971-32.07,22.711-52.86,22.851c11.29-11.09,19.45-24.18,24.48-38.18
				C344.78,541.37,356.22,547.12,356.38,553.77z"/>
			<path fill="#82D0F4" d="M303.45,536.37c-0.15-0.01-0.3-0.01-0.45-0.01V502.9h31.06c0.08,12.069-1.949,24.109-6.06,35.54
				C320.67,537.15,312.32,536.41,303.45,536.37z"/>
			<path fill="#82D0F4" d="M303.05,469.5c8.91-0.02,17.29-0.75,24.66-2.03c4.18,11.46,6.29,23.46,6.35,35.431H303v-33.4
				C303.02,469.5,303.03,469.5,303.05,469.5z"/>
			<path fill="#82D0F4" d="M303.52,429.18c11.08,11.29,19.15,24.391,24.19,38.29c-7.37,1.28-15.75,2.011-24.66,2.03
				c-0.02,0-0.03,0-0.05,0v-40.33C303.17,429.17,303.35,429.17,303.52,429.18z"/>
			<path fill="#82D0F4" d="M328,538.44c-5.03,14-13.19,27.09-24.48,38.18c-0.17,0.01-0.35,0.01-0.52,0.01v-40.26
				c0.15-0.01,0.3-0.01,0.45,0C312.32,536.41,320.67,537.15,328,538.44z"/>
			<polygon fill="#82D0F4" points="303.51,348.52 265.02,372.34 198.57,331.22 237.06,307.4 			"/>
			<polygon fill="#82D0F4" points="265.02,372.34 303,395.85 303,396.47 237.06,437.28 198.57,413.46 			"/>
			<path fill="#82D0F4" d="M303,536.37v40.26c-0.01,0-0.03,0-0.04,0c-11.06-11.26-19.12-24.32-24.16-38.18
				C286.03,537.18,294.25,536.43,303,536.37z"/>
			<path fill="#82D0F4" d="M303,536.36v0.01c-8.75,0.06-16.97,0.81-24.2,2.08c-4.21-11.49-6.33-23.53-6.39-35.55H303V536.36z"/>
			<path fill="#82D0F4" d="M303,469.5v33.4h-30.59c-0.08-12.03,1.93-24.03,6.02-35.42C285.77,468.75,294.13,469.47,303,469.5z"/>
			<path fill="#82D0F4" d="M303,429.17v40.33c-8.87-0.03-17.23-0.75-24.57-2.02c5.02-14.051,13.2-27.181,24.53-38.311
				C302.97,429.17,302.99,429.17,303,429.17z"/>
			<path fill="#82D0F4" d="M302.96,429.17c-11.33,11.13-19.51,24.26-24.53,38.311c-17.09-2.94-28.72-8.79-28.72-15.53l-0.01-0.01
				C263.13,437.92,282.02,429.18,302.96,429.17z"/>
			<path fill="#82D0F4" d="M278.8,538.45c5.04,13.859,13.1,26.92,24.16,38.18c-20.72-0.01-39.45-8.57-52.83-22.34l0.38-0.37
				C250.51,547.22,261.95,541.41,278.8,538.45z"/>
			<path fill="#82D0F4" d="M278.43,467.48c-4.09,11.39-6.1,23.39-6.02,35.42h-43.14c0-19.771,7.78-37.721,20.43-50.96l0.01,0.01
				C249.71,458.69,261.34,464.54,278.43,467.48z"/>
			<path fill="#82D0F4" d="M272.41,502.9c0.06,12.02,2.18,24.06,6.39,35.55c-16.85,2.96-28.29,8.77-28.29,15.47l-0.38,0.37
				c-12.91-13.29-20.86-31.41-20.86-51.39H272.41z"/>
		</g>
		<g>
			<line fill="none" stroke="#000000" stroke-width="2" x1="168.15" y1="290.99" x2="439.15" y2="290.99"/>
			<line fill="none" stroke="#000000" stroke-width="2" x1="168.15" y1="290.99" x2="168.15" y2="441.99"/>
			<line fill="none" stroke="#000000" stroke-width="2" x1="439.15" y1="290.99" x2="439.15" y2="441.99"/>
			<path fill="none" stroke="#000000" stroke-width="2" d="M168.15,441.99c-0.88,39.55,13.22,78.939,37.68,109.88
				c23.08,29.2,55.91,50.63,92.08,59.56c1.54,0.391,3.09,0.74,4.64,1.07c0.141,0.03,0.271,0.06,0.41,0.09"/>
			<path fill="none" stroke="#000000" stroke-width="2" d="M439.15,441.99c0.42,33.01-9.71,65.66-27.42,93.399
				c-17.65,27.641-42.82,50.58-72.41,64.841c-11.28,5.43-23.181,9.579-35.42,12.25c-0.011,0.01-0.021,0.01-0.03,0.01"/>
			<line fill="none" stroke="#000000" stroke-width="2" x1="99.95" y1="209.81" x2="99.95" y2="437.18"/>
			<line fill="none" stroke="#000000" stroke-width="2" x1="508.02" y1="209.81" x2="508.02" y2="437.18"/>
			<path fill="none" stroke="#000000" stroke-width="2" d="M99.95,437.18c-1.33,59.57,19.9,118.87,56.73,165.46
				c34.76,43.98,84.18,76.24,138.65,89.7c2.53,0.62,5.06,1.2,7.61,1.74"/>
			<path fill="none" stroke="#000000" stroke-width="2" d="M508.02,437.18c0.62,49.71-14.63,98.87-41.3,140.65
				c-26.58,41.62-64.47,76.16-109.04,97.63c-16.989,8.19-34.93,14.44-53.37,18.47"/>
			<polyline fill="none" stroke="#000000" stroke-width="2" points="302.45,612.5 302.55,612.5 303.9,612.48 304.09,612.48 			"/>
			<path fill="none" stroke="#000000" stroke-width="2" d="M376.73,502.9c0,19.72-7.74,37.64-20.351,50.869
				c-13.33,13.971-32.07,22.711-52.86,22.851c-0.17,0.01-0.35,0.01-0.52,0.01c-0.01,0-0.03,0-0.04,0
				c-20.72-0.01-39.45-8.57-52.83-22.34c-12.91-13.29-20.86-31.41-20.86-51.39c0-19.771,7.78-37.721,20.43-50.96
				c13.43-14.021,32.32-22.761,53.26-22.771c0.01,0,0.03,0,0.04,0c0.17,0,0.35,0,0.52,0.01c20.801,0.141,39.54,8.891,52.87,22.86
				C368.99,465.27,376.73,483.18,376.73,502.9z"/>
			<polyline fill="none" stroke="#000000" stroke-width="2" points="228.9,502.9 229.27,502.9 272.41,502.9 303,502.9 334.06,502.9 
				376.28,502.9 			"/>
			<polyline fill="none" stroke="#000000" stroke-width="2" points="303,576.63 303,536.37 303,536.36 303,502.9 303,469.5 
				303,429.17 303,396.47 303,395.85 			"/>
			<path fill="none" stroke="#000000" stroke-width="2" d="M303.05,469.5c0.15,0,0.311,0,0.46,0"/>
			<path fill="none" stroke="#000000" stroke-width="2" d="M249.71,451.95c0,6.74,11.63,12.59,28.72,15.53
				c7.34,1.27,15.7,1.989,24.57,2.02"/>
			<path fill="none" stroke="#000000" stroke-width="2" d="M356.39,451.95c0,0.03,0,0.06,0,0.09c-0.1,6.7-11.689,12.51-28.68,15.43
				c-7.37,1.28-15.75,2.011-24.66,2.03c-0.02,0-0.03,0-0.05,0c-0.14,0-0.27,0-0.41,0"/>
			<path fill="none" stroke="#000000" stroke-width="2" d="M356.39,553.92c0-0.05,0-0.1-0.01-0.15
				c-0.16-6.649-11.6-12.399-28.38-15.329c-7.33-1.29-15.68-2.03-24.55-2.07c-0.15-0.01-0.3-0.01-0.45-0.01c-0.14,0-0.27,0-0.41,0"
				/>
			<path fill="none" stroke="#000000" stroke-width="2" d="M250.51,553.92c0-6.7,11.44-12.51,28.29-15.47
				c7.23-1.271,15.45-2.021,24.2-2.08c0.15-0.01,0.3-0.01,0.45,0c0.29-0.01,0.569-0.01,0.859-0.01"/>
			<path fill="none" stroke="#000000" stroke-width="2" d="M302.96,429.17c-11.33,11.13-19.51,24.26-24.53,38.311
				c-4.09,11.39-6.1,23.39-6.02,35.42c0.06,12.02,2.18,24.06,6.39,35.55c5.04,13.859,13.1,26.92,24.16,38.18"/>
			<path fill="none" stroke="#000000" stroke-width="2" d="M303.51,576.63l0.01-0.01c11.29-11.09,19.45-24.18,24.48-38.18
				c4.11-11.431,6.14-23.471,6.06-35.54c-0.06-11.971-2.17-23.971-6.35-35.431c-5.04-13.899-13.11-27-24.19-38.29l-0.01-0.01"/>
			<polygon fill="none" stroke="#000000" stroke-width="2" points="303.51,348.52 369.96,307.4 408.45,331.22 342,372.34 
				303.51,396.16 303,396.47 237.06,437.28 198.57,413.46 265.02,372.34 			"/>
			<polygon fill="none" stroke="#000000" stroke-width="2" points="265.02,372.34 198.57,331.22 237.06,307.4 303.51,348.52 
				342,372.34 408.45,413.46 369.96,437.28 303.51,396.16 303,395.85 			"/>
			<line fill="none" stroke="#000000" stroke-width="2" x1="99.95" y1="209.21" x2="99.95" y2="141.94"/>
			<line fill="none" stroke="#000000" stroke-width="2" x1="99.95" y1="141.94" x2="178.66" y2="141.94"/>
			<line fill="none" stroke="#000000" stroke-width="2" x1="178.66" y1="141.94" x2="178.66" y2="185.11"/>
			<line fill="none" stroke="#000000" x1="178.66" y1="185.11" x2="210.25" y2="185.11"/>
			<line fill="none" stroke="#000000" stroke-width="2" x1="210.25" y1="185.11" x2="210.25" y2="141.94"/>
			<line fill="none" stroke="#000000" stroke-width="2" x1="210.25" y1="141.94" x2="288.96" y2="141.94"/>
			<line fill="none" stroke="#000000" stroke-width="2" x1="288.96" y1="141.94" x2="288.96" y2="185.11"/>
			<line fill="none" stroke="#000000" x1="288.96" y1="185.11" x2="320.55" y2="185.11"/>
			<line fill="none" stroke="#000000" stroke-width="2" x1="320.55" y1="185.11" x2="320.55" y2="141.94"/>
			<line fill="none" stroke="#000000" stroke-width="2" x1="320.55" y1="141.94" x2="399.26" y2="141.94"/>
			<line fill="none" stroke="#000000" stroke-width="2" x1="399.26" y1="141.94" x2="399.26" y2="185.11"/>
			<path fill="none" stroke="#000000" d="M400.12,185.11c9.729,0,19.45,0,29.18,0"/>
			<line fill="none" stroke="#000000" stroke-width="2" x1="429.3" y1="185.11" x2="429.3" y2="141.94"/>
			<line fill="none" stroke="#000000" stroke-width="2" x1="429.3" y1="141.94" x2="508.02" y2="141.94"/>
			<line fill="none" stroke="#000000" stroke-width="2" x1="508.02" y1="141.94" x2="508.02" y2="209.81"/>
		</g>
	</g>
</g>
<g id="图层_10" display="none">
	<path display="inline" fill="none" stroke="#000000" stroke-width="2" d="M145.741,420.164c0,0-13.5,2.925-13.5-14.788
		s0,34.788,0,34.788S133.241,420.164,145.741,420.164z"/>
	<path display="inline" fill="none" stroke="#000000" stroke-width="2" d="M120.741,420.945"/>
	<path display="inline" fill="none" stroke="#000000" stroke-width="2" d="M132.241,405.971c0,0-1,12.505-12.5,14.974
		c0,0,14.75,5.469,12.5,16.969"/>
	<path display="inline" fill="none" stroke="#000000" stroke-width="2" d="M146.241,345.486c0,0-13.5,2.925-13.5-14.788
		s0,34.788,0,34.788S133.741,345.486,146.241,345.486z"/>
	<path display="inline" fill="none" stroke="#000000" stroke-width="2" d="M121.241,346.268"/>
	<path display="inline" fill="none" stroke="#000000" stroke-width="2" d="M132.741,331.293c0,0-1,12.505-12.5,14.974
		c0,0,14.75,5.469,12.5,16.969"/>
	<path display="inline" fill="none" stroke="#000000" stroke-width="2" d="M490,424.409c0,0-13.5,2.925-13.5-14.788
		s0,34.788,0,34.788S477.5,424.409,490,424.409z"/>
	<path display="inline" fill="none" stroke="#000000" stroke-width="2" d="M476.5,410.216c0,0-1,12.505-12.5,14.974
		c0,0,14.75,5.469,12.5,16.969"/>
	<path display="inline" fill="none" stroke="#000000" stroke-width="2" d="M490.5,349.731c0,0-13.5,2.925-13.5-14.788
		s0,34.788,0,34.788S478,349.731,490.5,349.731z"/>
	<path display="inline" fill="none" stroke="#000000" stroke-width="2" d="M477,335.539c0,0-1,12.505-12.5,14.974
		c0,0,14.75,5.469,12.5,16.969"/>
	<path display="inline" fill="none" stroke="#000000" stroke-width="2" d="M483.367,495.778c0,0-13.5,2.925-13.5-14.788
		c0-17.712,0,34.788,0,34.788S470.867,495.778,483.367,495.778z"/>
	<path display="inline" fill="none" stroke="#000000" stroke-width="2" d="M469.867,481.586c0,0-1,12.505-12.5,14.974
		c0,0,14.75,5.469,12.5,16.969"/>
	<path display="inline" fill="none" stroke="#000000" stroke-width="2" d="M152.491,495.778c0,0-13.5,2.925-13.5-14.788
		c0-17.712,0,34.788,0,34.788S139.991,495.778,152.491,495.778z"/>
	<path display="inline" fill="none" stroke="#000000" stroke-width="2" d="M138.991,481.586c0,0-1,12.505-12.5,14.974
		c0,0,14.75,5.469,12.5,16.969"/>
	<path display="inline" fill="none" stroke="#000000" stroke-width="2" d="M181.153,552.135c0,0-13.5,2.926-13.5-14.787
		s0,34.787,0,34.787S168.653,552.135,181.153,552.135z"/>
	<path display="inline" fill="none" stroke="#000000" stroke-width="2" d="M167.653,537.943c0,0-1,12.504-12.5,14.973
		c0,0,14.75,5.469,12.5,16.969"/>
	<path display="inline" fill="none" stroke="#000000" stroke-width="2" d="M214.413,598.314c0,0-13.5,2.925-13.5-14.788
		c0-17.712,0,34.788,0,34.788S201.913,598.314,214.413,598.314z"/>
	<path display="inline" fill="none" stroke="#000000" stroke-width="2" d="M200.913,584.122c0,0-1,12.505-12.5,14.974
		c0,0,14.75,5.469,12.5,16.969"/>
	<path display="inline" fill="none" stroke="#000000" stroke-width="2" d="M452.165,549.885c0,0-13.5,2.924-13.5-14.789
		c0-17.711,0,34.789,0,34.789S439.665,549.885,452.165,549.885z"/>
	<path display="inline" fill="none" stroke="#000000" stroke-width="2" d="M438.665,535.691c0,0-1,12.506-12.5,14.975
		c0,0,14.75,5.469,12.5,16.969"/>
	<path display="inline" fill="none" stroke="#000000" stroke-width="2" d="M413.119,599.313c0,0-13.5,2.924-13.5-14.789
		c0-17.711,0,34.789,0,34.789S400.619,599.313,413.119,599.313z"/>
	<path display="inline" fill="none" stroke="#000000" stroke-width="2" d="M399.619,585.119c0,0-1,12.506-12.5,14.975
		c0,0,14.75,5.469,12.5,16.969"/>
</g>
<g id="图层_11">
</g>
</svg>
