<?xml version="1.0" encoding="UTF-8" standalone="no"?>
<!-- Generator: Adobe Illustrator 14.0.0, SVG Export Plug-In . SVG Version: 6.00 Build 43363)  -->

<svg
   xmlns:dc="http://purl.org/dc/elements/1.1/"
   xmlns:cc="http://creativecommons.org/ns#"
   xmlns:rdf="http://www.w3.org/1999/02/22-rdf-syntax-ns#"
   xmlns:svg="http://www.w3.org/2000/svg"
   xmlns="http://www.w3.org/2000/svg"
   xmlns:sodipodi="http://sodipodi.sourceforge.net/DTD/sodipodi-0.dtd"
   xmlns:inkscape="http://www.inkscape.org/namespaces/inkscape"
   version="1.1"
   x="0px"
   y="0px"
   width="6243.13px"
   height="3121.27px"
   viewBox="0 0 6243.13 3121.27"
   enable-background="new 0 0 6243.13 3121.27"
   xml:space="preserve"
   id="svg2"
   inkscape:version="0.91 r13725"
   sodipodi:docname="green.svg"><metadata
     id="metadata19928"><rdf:RDF><cc:Work
         rdf:about=""><dc:format>image/svg+xml</dc:format><dc:type
           rdf:resource="http://purl.org/dc/dcmitype/StillImage" /></cc:Work></rdf:RDF></metadata><defs
     id="defs19926" /><sodipodi:namedview
     pagecolor="#ffffff"
     bordercolor="#666666"
     borderopacity="1"
     objecttolerance="10"
     gridtolerance="10"
     guidetolerance="10"
     inkscape:pageopacity="0"
     inkscape:pageshadow="2"
     inkscape:window-width="1303"
     inkscape:window-height="744"
     id="namedview19924"
     showgrid="false"
     inkscape:zoom="0.8508553"
     inkscape:cx="2655.5721"
     inkscape:cy="1913.3123"
     inkscape:window-x="65"
     inkscape:window-y="24"
     inkscape:window-maximized="1"
     inkscape:current-layer="svg2" /><symbol
     id="dot"
     viewBox="-1.451 -1.5 2.902 3"><g
       id="g5"><g
         id="g7"><path
           d="M0-1.5c1.935,0,1.935,3,0,3S-1.935-1.5,0-1.5L0-1.5z"
           id="path9" /></g></g></symbol><path
     style="fill:#abc973;stroke:#dcc7b5;stroke-width:0.5"
     inkscape:connector-curvature="0"
     d="m 2705.5,1129.188 c 0,0 17.406,-20.631 30.641,-22.815 13.235,-2.184 20.349,5.83 20.349,5.83 l 12.948,13.548 -2.938,3.89 -13.813,15.922 -21.722,24.809 c 0,0 -4.153,-2.872 -7.528,-0.559 -3.375,2.313 -1.813,4.688 -12.813,7.25 0,0 -7.5,1.688 5.125,-10.125 0,0 6.813,-1.625 3.188,-5.063 -3.625,-3.438 -6.625,-1.414 -6.625,-1.414 l -18.25,9.039 c 0,0 -11.5,-1.015 -1.313,-9.039 10.187,-8.024 12.563,-17.899 12.625,-18.086 0.062,-0.187 2.876,-10.562 0.126,-13.187 z"
     id="西山公园_1_" /><g
     id="岩光湖公园"><path
       style="fill:#abc973;stroke:#abc973;stroke-width:0.1"
       inkscape:connector-curvature="0"
       d="m 2470.89,1329.844 c 0,0 4.818,3.659 7.526,9.199 2.708,5.54 -0.208,8.999 9.042,11.041 9.25,2.042 15.246,-4.33 15.35,-4.396 0.104,-0.066 5.233,-3.979 6.254,-4.854 1.021,-0.875 4.063,-2.623 4.063,-2.623 0,0 -2,-5.669 -0.25,-7.419 1.75,-1.75 -12.625,12.833 -12.625,12.833 0,0 -8.291,7.208 -15.708,1.75 0,0 -4.314,-6.813 -4.532,-7.386 -0.218,-0.573 -3.135,-7.161 -7.301,-9.638 -4.166,-2.477 -3.895,-3.607 -4.406,0 l 2.587,1.493 z"
       id="草地_1_" /><path
       style="fill:#abc973;stroke:#abc973;stroke-width:0.2"
       inkscape:connector-curvature="0"
       d="m 2487.415,1245.25 c 0,0 1.319,-1.999 4.351,-2.281 0,0 2.002,1.168 4.251,1.482 2.249,0.314 1.108,-0.592 3.812,0.392 2.704,0.984 0.672,-0.156 2.578,-0.281 1.906,-0.125 1.436,-0.012 1.601,0.213 0.165,0.225 4.938,2.85 2.294,7.943 0,0 -3.035,2.875 -6.426,-1.109 0,0 -4.796,-2.845 -6.375,-3.453 -1.579,-0.608 -7.374,-2.906 -6.086,-2.906 z"
       id="草地" /><path
       style="fill:#e7dab1;stroke:#e7dab1;stroke-width:0.2"
       inkscape:connector-curvature="0"
       id="path7835"
       d="m 2502.386,1256.063 c 0,0 3.271,2.938 5.833,2.875 0,0 1.406,0.375 0.719,-3.844 0,0 -0.25,-2.957 0.031,-3.791 0.281,-0.834 -1.061,-0.553 -1.093,1.119 -0.032,1.672 -0.155,0.781 -0.828,1.25 -0.673,0.469 0.119,0.969 -1.464,0.875 -1.583,-0.094 -1.175,-0.018 -2.01,0.406 -0.835,0.424 -1.115,0.156 -1.188,1.11 z" /><path
       style="fill:#e7dab1;stroke:#e7dab1;stroke-width:0.2"
       inkscape:connector-curvature="0"
       id="path7837"
       d="m 2481.781,1341.313 c 0,0 -1.25,2.063 0.313,3.063 1.563,1 1.75,2.063 3.531,2.906 1.781,0.843 5.56,1.203 7.983,0.102 2.423,-1.101 3.673,-0.914 6.455,-3.195 0,0 2,-2 4.5,-3.563 2.5,-1.563 1.719,-2.469 3.063,-3.719 1.344,-1.25 3.188,-0.906 3.219,-2.344 0.031,-1.438 0.125,-2 -0.188,-1.844 0,0 -8.688,9.344 -10.844,10.875 -2.156,1.531 -8,5.906 -14.531,1.875 0,0 -3.282,-3.406 -3.501,-4.156 z" /><path
       style="fill:#abc973;stroke:#abc973;stroke-width:0.2"
       inkscape:connector-curvature="0"
       id="path7839"
       d="m 2513.509,1337.75 c 0,0 -4.765,-3.61 8.582,-15.993 0,0 16.909,-9.07 13.034,-24.195 0,0 -2.375,-4.875 6.688,-7.5 9.063,-2.625 14,-3.813 20.438,3.313 6.438,7.126 2.688,19.576 9.375,24.851 6.687,5.275 6.438,6.525 6.438,6.525 0,0 -23.482,3.881 -26.504,5.193 -3.022,1.312 -2.347,2.89 -22.296,4.254 0,0 -15.039,4.175 -15.755,3.552 z" /></g><g
     id="泪湾长廊公园"><path
       style="fill:#abc973;stroke:#dcc7b5"
       inkscape:connector-curvature="0"
       d="m 2817.077,1149.455 c 0,0 -7.087,3.17 -8.395,13.92 0,0 12.755,18.547 -12.964,33.961 0,0 -14.802,7.497 -5.385,31.831 9.417,24.334 -3.971,39.539 -3.971,39.539 0,0 -40.559,49.658 -47.645,51.149 0,0 -6.03,2.979 -13.499,0 -7.469,-2.979 -6.979,-0.263 -9,2.722 l 0.531,1.174 c 0,0 12.896,-3.875 10.948,8.5 -1.948,12.375 4.706,14.875 12.66,12.188 7.954,-2.687 5.542,-4.938 11.874,-9.188 0,0 11.689,-11.063 14.417,-12 0,0 9.047,-8.625 9.887,-14.438 0,0 5.84,-14.113 7.715,-15.338 0,0 6.813,-9.412 8.063,-10.287 1.25,-0.875 12.875,-14.689 13.5,-22.345 0.625,-7.656 1.313,-9.53 -2.875,-19.718 0,0 -5.813,-9.875 -0.188,-27.063 0,0 2.147,-7.438 3.511,-8.938 0,0 3.301,-6.938 5.051,-8.125 1.75,-1.187 7.563,-9.521 7.813,-9.885 0.25,-0.364 4.688,-6.419 4.375,-13.986 -0.313,-7.567 -2.625,-15.525 -2.875,-15.983 -0.25,-0.458 -2.596,-9.11 -3.548,-7.69 z"
       id="草地_2_" /><path
       style="fill:#abc973;stroke:#abc973"
       inkscape:connector-curvature="0"
       d="m 2801.125,1152.431 c 0,0 4.083,-5.053 15.333,-3.929 0,0 -6.218,4.707 -7.776,13.082 l -7.557,-9.153 z"
       id="草地_3_" /><path
       style="fill:#507975;stroke:#507975;stroke-width:0.25"
       inkscape:connector-curvature="0"
       d="m 2734.364,1325.667 c 0,0 -1.677,-0.583 -2.146,2.167 -0.469,2.75 2.217,0.917 2.374,2.667 0.157,1.75 0.468,4.917 1.729,3.417 1.261,-1.5 -0.957,-2.667 0.652,-2.75 1.609,-0.083 -0.873,1 1.743,2.667 2.616,1.667 2.34,0.083 5.436,-1.5 3.096,-1.583 5.694,1.583 5.395,-2.917 -0.299,-4.5 0.982,-3.971 2.092,-3.069 1.11,0.902 2.942,-1.785 3.776,-0.733 0.834,1.052 3.922,1.354 3.753,-1.047 -0.169,-2.401 -2.523,-2.401 -1.721,-4.151 0.802,-1.75 -1.095,-3.317 1.729,-3.117 2.824,0.2 1.409,2.273 4.033,1.237 2.624,-1.036 2.81,-1.328 2.842,-2.474 0.032,-1.146 -3.134,-0.949 -0.718,-1.964 2.416,-1.015 2.731,-2.208 2.407,-3.112 -0.324,-0.903 -1.548,-4.748 0.106,-5.284 1.654,-0.536 -0.013,-2.288 4.904,-2.704 4.917,-0.416 1.5,-0.506 2.583,-2.627 1.083,-2.121 3.239,-2.042 0.161,-2.832 -3.078,-0.79 -1.911,-1.429 -0.745,-2.943 1.166,-1.514 -0.667,-2.252 -2.25,-1.716 -1.583,0.536 -0.757,2.533 -2.087,4.659 -1.33,2.126 -1.016,-0.543 -2.673,0 -1.657,0.543 -1.205,1.808 -1.973,2.634 -0.768,0.826 0.483,0.908 -0.434,2.825 -0.917,1.917 0.506,3.689 -1.539,4.387 -2.045,0.698 2.336,4.323 -0.688,3.969 -3.024,-0.354 -4.383,0.388 -4.537,1.725 -0.154,1.337 -0.189,2.121 -2.63,2.021 -2.441,-0.1 -5.294,-0.183 -5.826,1.733 -0.531,1.917 -2.551,2.5 -0.917,4.417 1.635,1.917 0.459,3.132 -0.786,3.191 -1.245,0.059 -0.415,-0.774 -2.247,-1.441 -1.832,-0.667 -2.02,-1.833 -3.718,-1.5 -1.698,0.333 -4.553,2.583 -6.125,2.5 -1.572,-0.083 0.826,2.915 -1.955,1.665 z"
       id="湿地" /><path
       style="fill:#507975;stroke:#507975;stroke-width:0.25"
       inkscape:connector-curvature="0"
       d="m 2802.375,1152.875 c 0,0 1.125,-1.292 1.458,-0.667 0.333,0.625 0.5,0.069 0.917,0.222 0.417,0.153 -0.792,-1.097 0.833,-0.847 1.625,0.25 0.75,-0.375 1.333,-0.542 0.583,-0.167 0.75,-1.011 1.167,-0.526 0.417,0.485 -0.5,0.859 0.708,0.609 1.208,-0.25 0.875,-1.183 1.542,-0.758 0.667,0.425 0.75,-0.201 1.333,-0.367 0.583,-0.166 2.792,-1.094 1.292,0.516 -1.5,1.61 -0.583,-0.308 -1.333,0.359 -0.75,0.667 -0.833,0.542 -0.792,1.167 0.041,0.625 -0.167,1.458 -0.25,1.583 -0.083,0.125 -0.792,0.208 -0.792,0.75 0,0.542 0.125,1.002 -0.458,1.563 -0.583,0.561 -1.225,0.394 -0.946,1.207 0.279,0.813 -0.055,1.229 -0.263,1.313 -0.208,0.084 0.65,0.833 0.263,1.125 -0.387,0.292 -0.596,0 -0.846,-0.625 -0.25,-0.625 -0.625,-1.125 -0.75,-1.125 -0.125,0 -0.667,-0.459 -0.708,-0.688 -0.041,-0.229 -0.542,-0.979 -0.542,-0.979 0,0 -0.375,-0.625 -0.583,-0.708 -0.208,-0.083 -1,-0.498 -1,-0.498 0,0 -0.833,-0.211 -0.708,-0.711 0.125,-0.5 0.042,-0.792 -0.125,-0.875 -0.167,-0.083 -1.367,0.079 -0.75,-0.498 z"
       id="湿地_1_" /><path
       style="fill:#507975;stroke:#507975;stroke-width:0.25"
       inkscape:connector-curvature="0"
       d="m 2816.091,1165.156 c 0,0 0.263,0.042 0.367,-0.625 0.104,-0.667 0.104,-1.375 1.042,-1.156 0.938,0.219 0.844,-0.281 1.5,0.438 0.656,0.719 1.281,0.531 0.375,0.969 -0.906,0.438 -0.531,-0.219 -0.906,0.75 -0.375,0.969 -0.375,-0.219 -0.688,0 -0.313,0.219 -0.13,-0.626 -1.69,-0.376 z"
       id="湿地_2_" /><path
       style="fill:#507975;stroke:#507975;stroke-width:0.25"
       inkscape:connector-curvature="0"
       d="m 2793.375,1218.125 c 0,0 0.156,0.969 -1.219,1.375 -1.375,0.406 -1.031,0.781 -0.594,1.25 0.437,0.469 -0.875,0.969 1.313,1.125 2.188,0.156 0.781,-0.781 1.469,-1.063 0.688,-0.282 -0.219,-0.982 1.25,-0.804 1.469,0.178 1.531,-0.134 1.063,-0.603 -0.468,-0.469 -1.625,-0.656 -1.313,-1.688 0.312,-1.032 -1.127,-2.063 -1.298,-1.094 -0.171,0.969 1.048,1.469 0.485,1.438 -0.563,-0.031 -2.101,-1.324 -1.156,0.064 z"
       id="湿地_3_" /><path
       style="fill:#507975;stroke:#507975;stroke-width:0.25"
       inkscape:connector-curvature="0"
       d="m 2800.938,1253.875 c 0,0 0.688,0.531 0.906,0.156 0.218,-0.375 0.156,-0.969 0.563,-0.813 0.407,0.156 0.438,0.031 0.969,-0.375 0.531,-0.406 0.75,-0.313 1.031,0.344 0.281,0.657 1.563,1.281 -0.25,1.125 -1.813,-0.156 0,1.313 -1.469,0.813 -1.469,-0.5 1.202,1.094 0.335,1.313 -0.867,0.219 -1.648,-0.25 -1.742,0.813 -0.094,1.063 -0.75,0.719 -1.5,-0.625 -0.75,-1.344 -2.531,-1.375 -0.156,-1.781 2.375,-0.406 -0.094,-0.125 0.25,-0.531 0.344,-0.406 -0.248,-1.606 1.063,-0.439 z"
       id="湿地_4_" /><path
       style="fill:#507975;stroke:#507975;stroke-width:0.25"
       inkscape:connector-curvature="0"
       d="m 2790.208,1272.958 c 0,0 -1.709,0.042 -1.917,0.792 -0.208,0.75 1.917,1.967 0.75,3.171 -1.167,1.204 -1.125,-0.746 -1.917,0 -0.792,0.746 -2.5,-0.212 -3.375,0.913 -0.875,1.125 0.458,0.967 0.667,2.983 0.209,2.016 2.039,0.942 2.416,0 0.377,-0.942 -3.124,-1.233 -1.041,-1.733 2.083,-0.5 -0.292,-1.383 2.083,-0.858 2.375,0.525 0,0.682 0.333,1.083 0.333,0.401 1.758,0.195 2.337,0.381 0.579,0.186 -1.046,-0.989 -0.629,-1.464 0.417,-0.475 1.5,-0.592 1.292,-1.304 -0.208,-0.712 -1.072,-0.504 0.026,-1.171 1.098,-0.667 1.11,-1.833 0,-2.042 -1.11,-0.209 -0.316,-0.376 -1.025,-0.751 z"
       id="湿地_5_" /><path
       style="fill:none;stroke:#507975;stroke-width:0.25"
       inkscape:connector-curvature="0"
       d="m 2809.938,1151.438 c 1.281,-0.656 1.188,0.719 1.906,0.563 0.718,-0.156 1.441,0.479 2.125,0.656 0.684,0.177 1.406,-0.094 1.406,-0.094 3.206,-0.822 2.219,2.5 1.438,1.813 -0.781,-0.687 -2,0.875 -0.281,1.563 1.719,0.688 0.875,1.218 0.406,1.207 -0.469,-0.011 -3.406,-0.646 -1.656,1.073 1.75,1.719 2.25,2.031 0.188,2.875 -2.062,0.844 -2.938,2.313 -1.781,2 1.157,-0.313 2.938,-1.594 3.125,2.531 0.187,4.125 3.813,1.75 4.188,2.763 0.375,1.013 -0.5,2.3 -2.219,2.144 -1.719,-0.156 -3.5,-2.469 -3.844,0.227 -0.344,2.696 0.688,0.992 1.313,2.371 0.625,1.379 5.969,0.777 4.781,2.59 -1.188,1.813 -2.781,-2.219 -2.969,1.906 -0.188,4.125 -2.094,1.844 -3.063,2.031 -0.969,0.187 -2.656,2.219 -1.813,3.938 0.843,1.719 1.5,-1.781 3,1.094 1.5,2.875 0.281,1.969 -0.688,3.438 -0.969,1.469 -3.375,0.656 -4.094,2 -0.719,1.344 3.156,-1.844 0.594,2.188 -2.562,4.032 -3.031,0.438 -6.188,4 -3.157,3.562 -6.688,0.656 -8.188,3.563 -1.5,2.907 7.5,1.063 4.656,5 -2.844,3.937 -2.906,-0.344 -5.844,3.906 -2.938,4.25 3.938,4.125 4.281,6.406 0.343,2.281 -3.281,0.875 -7,4.938 -3.719,4.063 -0.469,1.438 0.281,7.344 0.75,5.906 2.875,4.344 3.813,6.156 0.938,1.812 -2.063,3.156 -2.125,5.156 -0.062,2 3.063,-3.063 4.531,0 1.468,3.063 0.719,1.219 0.313,3.156 -0.406,1.937 -4.531,-0.875 -4.438,3.688 0.093,4.563 5.719,-5.719 2.344,3.1 -3.375,8.819 0.594,3.775 2,4.182 1.406,0.407 1.906,-2.719 3.281,1.406 1.375,4.125 -0.719,2.719 -1.375,5.438 -0.656,2.719 -5.688,0.375 -7.063,2.469 -1.375,2.094 3.063,2.031 2.156,4.688 -0.907,2.657 0.938,1.719 -1.719,3.995 -2.657,2.276 -0.688,1.88 -4.469,3.88 -3.781,2 -4.375,0.063 -5.438,1.531 -1.063,1.468 -3.344,3.594 -2.656,5.39 0.688,1.796 -2.469,4.766 -0.031,6.454 2.438,1.688 -0.875,4.594 -2.75,3.825 -1.875,-0.769 -3.125,-0.919 -3.438,0.547 -0.313,1.466 -1.531,2.002 -1.531,2.002 0,0 -1.215,0.804 -2.688,0.757"
       id="溪流_1_" /><g
       id="广场_1_"><circle
         style="fill:none;stroke:#dcc7b5;stroke-width:0.25"
         id="circle7852"
         r="0.514"
         cy="1301.668"
         cx="2761.8831" /><circle
         style="fill:#dcc7b5;stroke:#dcc7b5;stroke-width:0.25"
         id="circle7854"
         r="1.549"
         cy="1303.731"
         cx="2761.2561" /><circle
         style="fill:none;stroke:#dcc7b5;stroke-width:0.25"
         id="circle7856"
         r="2.6719999"
         cy="1307.863"
         cx="2759.9839" /><circle
         style="fill:#dcc7b5;stroke:#dcc7b5;stroke-width:0.25"
         id="circle7858"
         r="1.455"
         cy="1310.205"
         cx="2756.594" /><circle
         style="fill:none;stroke:#dcc7b5;stroke-width:0.25"
         id="circle7860"
         r="0.852"
         cy="1311.838"
         cx="2754.8521" /><circle
         style="fill:#dcc7b5;stroke:#dcc7b5;stroke-width:0.25"
         id="circle7862"
         r="0.62599999"
         cy="1313.08"
         cx="2754.127" /><circle
         style="fill:none;stroke:#dcc7b5;stroke-width:0.25"
         id="circle7864"
         r="0.308"
         cy="1313.151"
         cx="2753.1931" /><circle
         style="fill:#dcc7b5;stroke:#dcc7b5;stroke-width:0.25"
         id="circle7866"
         r="1.49"
         cy="1307.7729"
         cx="2760.0601" /><circle
         style="fill:#dcc7b5;stroke:#dcc7b5;stroke-width:0.25"
         id="circle7868"
         r="1.969"
         cy="1308.438"
         cx="2770.469" /><circle
         style="fill:none;stroke:#dcc7b5;stroke-width:0.25"
         id="circle7870"
         r="1.891"
         cy="1306.89"
         cx="2772.3589" /><circle
         style="fill:none;stroke:#dcc7b5;stroke-width:0.25"
         id="circle7872"
         r="1.656"
         cy="1310.9189"
         cx="2770.156" /><circle
         style="fill:#dcc7b5;stroke:#dcc7b5;stroke-width:0.25"
         id="circle7874"
         r="2.095"
         cy="1339.033"
         cx="2735.1721" /><circle
         style="fill:#dcc7b5;stroke:#dcc7b5;stroke-width:0.25"
         id="circle7876"
         r="1.5779999"
         cy="1289.203"
         cx="2780.6389" /><circle
         style="fill:#dcc7b5;stroke:#dcc7b5;stroke-width:0.25"
         id="circle7878"
         r="1.0829999"
         cy="1286.011"
         cx="2784.5381" /><circle
         style="fill:#dcc7b5;stroke:#dcc7b5;stroke-width:0.25"
         id="circle7880"
         r="1.115"
         cy="1262.892"
         cx="2796.823" /><circle
         style="fill:#dcc7b5;stroke:#dcc7b5;stroke-width:0.25"
         id="circle7882"
         r="1.25"
         cy="1259.438"
         cx="2800.25" /><circle
         style="fill:#dcc7b5;stroke:#dcc7b5;stroke-width:0.25"
         id="circle7884"
         r="1.156"
         cy="1251.719"
         cx="2799.094" /><circle
         style="fill:#dcc7b5;stroke:#dcc7b5;stroke-width:0.25"
         id="circle7886"
         r="1.406"
         cy="1240.406"
         cx="2798.844" /><circle
         style="fill:#dcc7b5;stroke:#dcc7b5;stroke-width:0.25"
         id="circle7888"
         r="1.416"
         cy="1234.604"
         cx="2796.021" /><circle
         style="fill:#dcc7b5;stroke:#dcc7b5;stroke-width:0.25"
         id="circle7890"
         r="0.875"
         cy="1215.25"
         cx="2798.938" /><circle
         style="fill:#dcc7b5;stroke:#dcc7b5;stroke-width:0.25"
         id="circle7892"
         r="1.854"
         cy="1210.172"
         cx="2798.771" /><circle
         style="fill:#dcc7b5;stroke:#dcc7b5;stroke-width:0.25"
         id="circle7894"
         r="1.5"
         cy="1186.125"
         cx="2814.313" /><circle
         style="fill:#dcc7b5;stroke:#dcc7b5;stroke-width:0.25"
         id="circle7896"
         r="1.344"
         cy="1172.1021"
         cx="2818.031" /><circle
         style="fill:#dcc7b5;stroke:#dcc7b5;stroke-width:0.25"
         id="circle7898"
         r="1.344"
         cy="1165.219"
         cx="2814.8149" /></g><g
       id="小径_1_"><path
         style="fill:none;stroke:#dcc7b5;stroke-width:0.25"
         inkscape:connector-curvature="0"
         id="path7901"
         d="m 2729.542,1322.083 c 0,0 -1.333,4.166 6.042,0.958 7.375,-3.208 10.833,-1.593 12.375,-4.505 1.542,-2.912 -0.211,-4.76 3.75,-5.846 3.961,-1.086 1.176,0.46 1.176,0.46" /><path
         style="fill:none;stroke:#dcc7b5;stroke-width:0.25"
         inkscape:connector-curvature="0"
         id="path7903"
         d="m 2732.164,1324.255 c 0,0 0.544,2.828 -1.539,2.995 -2.083,0.167 -0.288,7.417 1.189,5.375 1.477,-2.042 2.783,3.375 1.026,3.063 -1.757,-0.312 -3.831,6.987 0.435,4.233" /><path
         style="fill:none;stroke:#dcc7b5;stroke-width:0.25"
         inkscape:connector-curvature="0"
         id="path7905"
         d="m 2735.875,1336.938 c 0,0 1,-2.896 3.125,2.521 2.125,5.417 1.833,-0.709 4.208,-2.792 2.375,-2.083 4.208,2.25 5.208,-0.979 1,-3.229 2.208,-2.306 2.083,-3.289 -0.125,-0.983 0.988,-1.814 0.01,-2.565 -0.979,-0.751 -7.759,-5.3 -0.134,-14.733 0,0 0.879,-1.226 3.752,-0.83 2.873,0.396 5.33,-1.485 3.186,-2.916" /><path
         style="fill:none;stroke:#dcc7b5;stroke-width:0.25"
         inkscape:connector-curvature="0"
         id="path7907"
         d="m 2746.797,1323.291 c 0,0 -7.088,-1.083 -0.838,2.25 6.25,3.333 1.833,1.458 -0.583,2.375 -2.416,0.917 2.792,1.084 2.833,3.167 0.041,2.083 1.964,-1.462 0.774,-2.564" /><path
         style="fill:none;stroke:#dcc7b5;stroke-width:0.25"
         inkscape:connector-curvature="0"
         id="path7909"
         d="m 2762.091,1309.497 c 0,0 -2.216,4.069 2.659,2.807 4.875,-1.262 -1.667,-1.236 0.667,-3.041 2.334,-1.805 3.083,-1.057 3.083,-1.057" /><path
         style="fill:none;stroke:#dcc7b5;stroke-width:0.25"
         inkscape:connector-curvature="0"
         id="path7911"
         d="m 2773.178,1305.191 c 0,0 4.947,-0.566 4.114,-2.024 -0.833,-1.458 -1.458,-2.583 1.542,-4.646 3,-2.063 -1.75,-1.903 -2.333,-1.962 -0.583,-0.059 -3,-0.017 1.583,-2.226 4.583,-2.209 -3.769,-3.322 2.167,-4.09" /><path
         style="fill:none;stroke:#dcc7b5;stroke-width:0.25"
         inkscape:connector-curvature="0"
         id="path7913"
         d="m 2782.016,1289.97 c 0,0 10.151,-1.011 3.276,-3.678" /><path
         style="fill:none;stroke:#dcc7b5;stroke-width:0.25"
         inkscape:connector-curvature="0"
         id="path7915"
         d="m 2784.181,1284.994 c 0,0 -3.979,-4.827 0.357,-9.702 4.336,-4.875 10.129,5.167 10.795,-1.708 0.666,-6.875 -7.659,-0.106 -4.788,-5.032 2.871,-4.926 1.413,-11.185 6.038,-5.66" /><path
         style="fill:none;stroke:#dcc7b5;stroke-width:0.25"
         inkscape:connector-curvature="0"
         id="path7917"
         d="m 2797.438,1263.714 c 0,0 2.5,0.286 1.406,4.244 -1.094,3.958 5.323,2.464 3.781,-2.122 -1.542,-4.586 -2.416,-7.169 0.792,-7.003 3.208,0.166 0.012,-11.999 -3.536,-7.958" /><path
         style="fill:none;stroke:#dcc7b5;stroke-width:0.25"
         inkscape:connector-curvature="0"
         id="path7919"
         d="m 2797.938,1251.917 c 0,0 -4.438,2.125 1.063,-8 5.501,-10.125 0.729,-9.125 -0.156,-4.708" /><path
         style="fill:none;stroke:#dcc7b5;stroke-width:0.25"
         inkscape:connector-curvature="0"
         id="path7921"
         d="m 2797.603,1241.056 c 0,0 -5.811,2.443 -1.019,-5.64" /><path
         style="fill:none;stroke:#dcc7b5;stroke-width:0.25"
         inkscape:connector-curvature="0"
         id="path7923"
         d="m 2796.246,1233.188 c 0,0 6.292,-2.258 2.981,-5.598 -3.311,-3.34 -1.269,2.131 -6.228,0 -4.959,-2.131 -5.959,-16.381 3.916,-6.173 9.875,10.208 -3.041,-5.5 2.896,-6.167" /><path
         style="fill:none;stroke:#dcc7b5;stroke-width:0.25"
         inkscape:connector-curvature="0"
         id="path7925"
         d="m 2799.495,1214.581 c 0,0 5.854,-7.245 1.055,-4.934 -4.799,2.311 -11.258,5.312 -7.425,-0.73 3.833,-6.042 -8.976,5.268 -1.458,-4.208 7.518,-9.476 1.5,3.346 7.271,-0.202 5.771,-3.548 13.896,-3.59 6.979,-5.506 -6.917,-1.916 -4.666,-2.333 -1.208,-4.5 3.458,-2.167 5.25,3.25 7.458,-0.792 2.208,-4.042 4.666,-4.938 2.146,-6.594" /><path
         style="fill:none;stroke:#dcc7b5;stroke-width:0.25"
         inkscape:connector-curvature="0"
         id="path7927"
         d="m 2813.239,1185.079 c 0,0 -3.698,-3.204 3.448,-8.246 7.146,-5.042 6.729,-7.917 2.479,-4.854" /><path
         style="fill:none;stroke:#dcc7b5;stroke-width:0.25"
         inkscape:connector-curvature="0"
         id="path7929"
         d="m 2816.688,1172.102 c 0,0 -4.062,4.833 -3.354,-4.426 0.708,-9.259 4.916,-3.092 4.208,-5.884 -0.708,-2.792 -8.125,-0.167 -4.458,-4.458 3.667,-4.291 8.041,10.208 5.458,-5.333" /><path
         style="fill:none;stroke:#dcc7b5;stroke-width:0.25"
         inkscape:connector-curvature="0"
         id="path7931"
         d="m 2770.938,1312.304 c 0,0 7.906,3.603 -4.906,7.228 -12.812,3.625 -7.33,-13.947 -8.993,-8.177 -1.663,5.77 -0.038,-13.667 -2.601,-2.323 0,0 -0.179,1.747 -3.23,3.811" /><path
         style="fill:none;stroke:#dcc7b5;stroke-width:0.25"
         inkscape:connector-curvature="0"
         id="path7933"
         d="m 2757.567,1315.755 c 0,0 -3.411,-0.724 -2.223,0.214 1.188,0.938 3.156,-0.959 3.75,-1.87 0.594,-0.911 4.464,1.656 1.469,1.656 -2.995,0 -2.996,0 -2.996,0 z" /><path
         style="fill:none;stroke:#dcc7b5;stroke-width:0.25"
         inkscape:connector-curvature="0"
         id="path7935"
         d="m 2732.164,1344.844 c 0,0 14.398,-4.603 3.367,-4.301" /><path
         style="fill:none;stroke:#dcc7b5;stroke-width:0.25"
         inkscape:connector-curvature="0"
         id="path7937"
         d="m 2738.545,1344.964 c 0,0 -16.328,-4.566 -3.952,-4.421" /><path
         style="fill:none;stroke:#dcc7b5;stroke-width:0.25"
         inkscape:connector-curvature="0"
         id="path7939"
         d="m 2762.143,1301.228 c 0,0 -1.089,-7.54 6.607,-5.478 0,0 2.938,1.438 0.906,-6.547 0,0 -1.313,-4.422 4.219,-2.391 5.532,2.031 13.695,-9.141 4.613,-4.852 -9.082,4.289 1.766,-4.102 3.355,-4.622 1.589,-0.52 5.482,-2.652 5.569,-4.433 0.087,-1.781 -1.444,-4.781 2.274,-5.188 3.718,-0.407 8.813,-1.512 1.469,-4.662" /><path
         style="fill:none;stroke:#dcc7b5;stroke-width:0.25"
         inkscape:connector-curvature="0"
         id="path7941"
         d="m 2778.758,1286.011 c 0,0 -6.841,4.822 1.201,2.697" /></g><g
       id="房屋_1_"><rect
         style="fill:#a0795d"
         id="rect7944"
         height="0.96899998"
         width="1.581"
         transform="matrix(0.6701,-0.7423,0.7423,0.6701,-51.0779,2479.6873)"
         y="1296.817"
         x="2763.0791" /><rect
         style="fill:#a0795d"
         id="rect7946"
         height="0.96899998"
         width="1.582"
         transform="matrix(-0.8408,-0.5414,0.5414,-0.8408,4348.0137,3914.6538)"
         y="1317.4561"
         x="2748.875" /><rect
         style="fill:#a0795d"
         id="rect7948"
         height="0.96899998"
         width="1.582"
         transform="matrix(-0.8408,-0.5414,0.5414,-0.8408,4349.8276,3913.0222)"
         y="1316.374"
         x="2749.542" /><rect
         style="fill:#a0795d"
         id="rect7950"
         height="0.96899998"
         width="1.582"
         transform="matrix(-0.8408,-0.5414,0.5414,-0.8408,4346.1396,3916.1953)"
         y="1318.5031"
         x="2748.165" /><rect
         style="fill:#a0795d"
         id="rect7952"
         height="0.96899998"
         width="1.582"
         transform="matrix(-0.0762,-0.9971,0.9971,-0.0762,1629.0322,4165.5762)"
         y="1327.696"
         x="2743.323" /><rect
         style="fill:#a0795d"
         id="rect7954"
         height="0.96899998"
         width="1.582"
         transform="matrix(0.9973,-0.0741,0.0741,0.9973,-90.7813,206.9832)"
         y="1326.834"
         x="2744.167" /><rect
         style="fill:#a0795d"
         id="rect7956"
         height="0.96899998"
         width="1.582"
         transform="matrix(-0.9976,0.0685,-0.0685,-0.9976,5574.5366,2466.7856)"
         y="1328.521"
         x="2744.167" /><rect
         style="fill:#a0795d"
         id="rect7958"
         height="0.97000003"
         width="1.581"
         transform="matrix(0.1349,0.9909,-0.9909,0.1349,3686.1353,-1553.6343)"
         y="1333.765"
         x="2732.051" /><rect
         style="fill:#a0795d"
         id="rect7960"
         height="0.96899998"
         width="2.5020001"
         transform="matrix(0.9757,-0.2191,0.2191,0.9757,-214.3411,639.603)"
         y="1285.527"
         x="2774.793" /><rect
         style="fill:#a0795d"
         id="rect7962"
         height="0.96899998"
         width="2.5020001"
         transform="matrix(0.9757,-0.2191,0.2191,0.9757,-213.8301,639.6259)"
         y="1283.235"
         x="2775.1521" /><rect
         style="fill:#a0795d"
         id="rect7964"
         height="0.96899998"
         width="0.889"
         transform="matrix(-0.2394,-0.9709,0.9709,-0.2394,2195.1274,4288.7666)"
         y="1284.12"
         x="2776.927" /><rect
         style="fill:#a0795d"
         id="rect7966"
         height="0.96799999"
         width="0.889"
         transform="matrix(0.6047,-0.7964,0.7964,0.6047,76.052,2723.2261)"
         y="1284.51"
         x="2781.1211" /><rect
         style="fill:#a0795d"
         id="rect7968"
         height="1.5700001"
         width="0.889"
         transform="matrix(0.461,-0.8874,0.8874,0.461,360.813,3166.3423)"
         y="1285.365"
         x="2786.489" /><rect
         style="fill:#a0795d"
         id="rect7970"
         height="1.5700001"
         width="0.889"
         transform="matrix(0.7024,0.7118,-0.7118,0.7024,1736.8335,-1611.9976)"
         y="1270.34"
         x="2795.802" /><rect
         style="fill:#a0795d"
         id="rect7972"
         height="1.571"
         width="0.889"
         transform="matrix(0.3928,0.9196,-0.9196,0.3928,2853.9109,-1819.0945)"
         y="1250.817"
         x="2804.0359" /><rect
         style="fill:#a0795d"
         id="rect7974"
         height="1.571"
         width="1.16"
         transform="matrix(0.0067,1,-1,0.0067,4003.7271,-1579.8672)"
         y="1224.67"
         x="2796.554" /><rect
         style="fill:#a0795d"
         id="rect7976"
         height="1.122"
         width="1.16"
         transform="matrix(-0.8586,0.5126,-0.5126,-0.8586,5812.4644,810.0511)"
         y="1206.057"
         x="2793.938" /><rect
         style="fill:#a0795d"
         id="rect7978"
         height="1.122"
         width="1.16"
         transform="matrix(-0.5567,0.8307,-0.8307,-0.5567,5366.1406,-487.1027)"
         y="1187.5959"
         x="2812.4509" /><rect
         style="fill:#a0795d"
         id="rect7980"
         height="1.122"
         width="1.161"
         transform="matrix(-0.844,0.5364,-0.5364,-0.844,5815.6602,625.9678)"
         y="1158.3199"
         x="2816.2019" /><rect
         style="fill:#a0795d"
         id="rect7982"
         height="0.57999998"
         width="1.571"
         y="1225.246"
         x="2797.4431" /></g></g><g
     id="鲲川湿地公园"><path
       style="fill:#abc973"
       inkscape:connector-curvature="0"
       id="path7985"
       d="m 2651.938,1345.412 c 0,0 7.125,-12.787 31.5,-6.162 l 13.438,2.129 -37.213,22.081 c 0,0 -2.287,-4.335 0.401,-7.085 2.688,-2.75 0.063,-3.563 0.313,-3.938 0.25,-0.375 -4.433,2.165 -6.125,-2.875 0,0 -1.955,-2.188 -3.634,-2.125 0,0 -0.758,0.446 1.32,-2.025 z" /><path
       style="fill:#507975"
       inkscape:connector-curvature="0"
       id="path7987"
       d="m 2657.188,1342.656 c 0,0 0.188,0.594 1.406,-0.281 1.218,-0.875 -0.031,-1.688 1.5,-1.5 1.531,0.188 2.156,0.188 2.781,-0.469 0.625,-0.657 3,-2.75 4.594,-1.406 1.594,1.344 2.031,0.563 2.125,0.531 0.094,-0.032 -0.469,-1.75 1.469,-0.75 1.938,1 1.875,-0.688 2.031,0.031 0.156,0.719 1.594,-0.563 1.531,0.469 -0.063,1.032 0.125,-0.063 1.281,0.813 1.156,0.876 1.406,-0.125 2.813,-0.031 1.407,0.094 3.469,-0.344 2.938,1.031 -0.531,1.375 0.406,0.563 1.5,1.469 1.094,0.906 2.656,0.688 3.063,-0.594 0.407,-1.282 2.156,-0.531 2.344,-0.656 0.188,-0.125 -0.719,-0.406 0.781,-0.156 1.5,0.25 1.75,0.313 1,1.344 -0.75,1.031 -0.656,1.781 -2.25,1.438 -1.594,-0.343 -2.625,-0.781 -3.156,0.375 -0.531,1.156 -0.625,2.5 -1.563,2.813 -0.938,0.313 -1.25,-0.031 -2.406,0 -1.156,0.031 -0.969,-1.142 -2.125,0.132 -1.156,1.274 -1.094,1.68 -2.344,1.868 -1.25,0.188 -1.719,-0.875 -2.125,-1.656 -0.406,-0.781 -2.813,-0.094 -3.063,0.219 -0.25,0.313 -0.625,1.618 0.125,2.715 0.75,1.097 1.659,0.378 2.533,1.097 0.874,0.719 -1.22,1.156 -1.783,1.563 -0.563,0.407 -2.531,0.063 -2.688,-0.438 -0.157,-0.501 -0.75,-1 -1.313,-0.906 -0.563,0.094 -1.688,0.25 -1.813,1.188 -0.125,0.938 -0.063,1.094 -0.844,1.531 -0.781,0.437 -1.719,0.438 -2.281,-0.594 -0.562,-1.032 -0.156,-2 0.313,-2.906 0.469,-0.906 1.313,-0.969 0.594,-2.125 -0.719,-1.156 2.813,-2.066 3.406,-2.221 0.593,-0.155 1.219,-0.498 0.625,-1.186 -0.594,-0.688 -2.469,-0.969 -2.906,-0.313 -0.437,0.656 -0.156,1.531 -1,1.969 -0.844,0.438 -1.031,0.059 -2.188,-0.471 -1.157,-0.53 -1.125,1.596 -1.125,1.596 0,0 -0.406,0.875 -1.375,1.063 -0.969,0.188 -2.25,-0.219 -2.406,-0.469 -0.156,-0.25 -0.156,-0.406 -1.094,-0.188 -0.938,0.218 -1.313,0 -1.688,-0.625 -0.375,-0.625 -0.531,-1.219 -1.188,-1.25 -0.657,-0.031 -1.095,-0.156 -0.954,-0.906 0.141,-0.75 0.206,-1.469 0.814,-1.281 0.608,0.188 1.89,-1.188 2.64,-1.531 0.75,-0.343 1.471,-0.346 1.471,-0.346 z" /><path
       style="fill:#abc973"
       inkscape:connector-curvature="0"
       id="path7989"
       d="m 2674.625,1341.844 c 0,0 2,-1.031 2.344,-0.156 0.344,0.875 0.594,0.373 1,0.483 0.406,0.11 1.094,0.892 0,0.923 -1.094,0.031 -1.281,-0.625 -1.781,-0.5 -0.5,0.125 -1.656,0 -1.875,-0.188 -0.219,-0.188 0.312,-0.562 0.312,-0.562 z" /><path
       style="fill:#abc973"
       inkscape:connector-curvature="0"
       id="path7991"
       d="m 2669.656,1342.813 c 0.313,0.281 -0.313,1.031 0.344,0.969 0.657,-0.062 0.875,0.348 0.969,-0.482 0.094,-0.83 0.594,-0.924 0.844,-1.299 0.25,-0.375 -0.594,-0.86 -1.078,-0.665 -0.484,0.195 -0.672,0.415 -0.922,0.696 -0.25,0.281 -0.157,0.781 -0.157,0.781 z" /><path
       style="fill:#abc973"
       inkscape:connector-curvature="0"
       id="path7993"
       d="m 2666.688,1343.095 c 0.375,0.218 0.906,0.407 1.031,0 0.125,-0.407 0.063,-0.915 0.25,-0.88 0.187,0.035 -1.188,-1.263 -1.5,-0.879 -0.312,0.384 0,1.008 -0.563,1.383 -0.563,0.375 -0.531,1.063 -0.281,1.11 0.25,0.047 0.688,0.109 0.781,0.328 0.093,0.219 0.656,0.031 0.656,-0.188 0,-0.219 -0.374,-0.874 -0.374,-0.874 z" /><path
       style="fill:#abc973"
       inkscape:connector-curvature="0"
       id="path7995"
       d="m 2658.938,1345.813 c 0.406,0.313 0.5,0.75 1.125,0.563 0.625,-0.187 0.531,-0.469 1.063,-0.563 0.532,-0.094 1,0 1.125,-0.25 0.125,-0.25 0.031,-0.531 0.25,-0.844 0.219,-0.313 0.5,-0.468 0.531,-0.89 0.031,-0.422 -0.719,-0.579 -0.719,-0.172 0,0.407 -0.281,0.75 -0.625,0.938 -0.344,0.188 -0.563,-0.219 -1,0.094 -0.437,0.313 -0.156,0.531 -0.25,0.688 -0.094,0.157 -0.75,0.375 -0.875,0.156 -0.125,-0.219 -0.906,-0.406 -1.031,-0.125 -0.125,0.281 -0.625,1.014 -0.625,1.014 0,0 0.594,0.486 0.813,0.299 0.219,-0.187 0.218,-0.908 0.218,-0.908 z" /><path
       style="fill:#abc973"
       inkscape:connector-curvature="0"
       id="path7997"
       d="m 2660.188,1341.969 c -0.538,0 0.531,0.063 1.063,-0.156 0.532,-0.219 0.5,-0.75 1.281,-0.344 0.781,0.406 1.5,0.344 1.781,0.063 0.281,-0.281 0.219,-0.781 0.656,-0.844 0.437,-0.063 0.469,0.625 0.25,0.906 -0.219,0.281 -1.125,0.623 -1.313,0.577 -0.188,-0.046 -0.467,-0.452 -0.874,-0.14 -0.407,0.312 -0.688,0.188 -1.282,0.375 -0.594,0.187 -0.563,-0.314 -0.781,-0.235 -0.218,0.079 -0.625,-0.202 -0.781,-0.202 z" /><path
       style="fill:#abc973"
       inkscape:connector-curvature="0"
       id="path7999"
       d="m 2676.063,1346.592 c 0.063,0.502 0.563,0.627 1.031,0.408 0.468,-0.219 0.75,-0.875 1.063,-0.719 0.313,0.156 0.406,0.358 1,-0.024 0.594,-0.382 0.375,-1.007 0.969,-0.789 0.594,0.218 1.156,0.347 1.313,-0.045 0.157,-0.392 0.75,-1.291 0,-1.169 -0.75,0.122 -0.5,0.652 -1.125,0.652 -0.625,0 -0.75,-0.594 -1.563,-0.375 -0.813,0.219 -1.063,1.064 -1.844,1.142 -0.781,0.078 -3.688,-0.173 -3.781,0.171 -0.093,0.344 0.707,0.313 1.135,0.281 0.428,-0.032 1.178,-0.031 1.459,0.094 0.281,0.125 0.343,0.373 0.343,0.373 z" /><path
       style="fill:#abc973"
       inkscape:connector-curvature="0"
       id="path8001"
       d="m 2666.188,1351 c -0.258,0.305 -1.113,0.293 -1.419,0.453 -0.102,0.053 0.671,0.829 0.655,1.141 -0.016,0.312 0.452,-0.094 0.921,-0.625 0.469,-0.531 1.125,-0.219 1.25,-0.969 0.125,-0.75 0.156,-0.254 -0.25,-0.939 -0.406,-0.685 -0.313,-1.529 -0.188,-1.592 0.125,-0.063 -1.009,0.031 -0.989,0.469 0.02,0.438 0.553,0.902 0.552,1.123 -10e-4,0.221 0.218,0.752 -0.157,0.846 -0.375,0.094 -0.438,-0.469 -0.781,-0.188 -0.343,0.281 0.188,0.656 0.188,0.656 0,0 0,0.313 -0.313,0.25" /><path
       style="fill:#abc973"
       inkscape:connector-curvature="0"
       id="path8003"
       d="m 2668.623,1347.17 c 0.538,0.204 1.518,0.509 1.443,0.294 -0.075,-0.215 -0.666,-1.15 -1.256,-0.929 -0.591,0.22 -1.918,1.069 -1.42,1.027 0.498,-0.042 0.857,0.458 1.108,0.176 0.251,-0.28 0.125,-0.568 0.125,-0.568 z" /><rect
       style="fill:#a0795d"
       id="rect8005"
       height="2.1129999"
       width="3.4790001"
       transform="matrix(0.5416,0.8406,-0.8406,0.5416,2357.4912,-1615.5488)"
       y="1352.75"
       x="2658.301" /><rect
       style="fill:#a0795d"
       id="rect8007"
       height="2.2479999"
       width="2.9119999"
       transform="matrix(0.9992,0.0406,-0.0406,0.9992,56.999,-106.4819)"
       y="1349.5229"
       x="2649.6909" /><rect
       style="fill:#a0795d"
       id="rect8009"
       height="1.313"
       width="4.6129999"
       transform="matrix(0.9072,-0.4207,0.4207,0.9072,-323.9412,1240.1064)"
       y="1353.618"
       x="2646.458" /></g><g
     id="鲲川长廊"><path
       style="fill:#abc973;stroke:#dcc7b5;stroke-width:0.5"
       inkscape:connector-curvature="0"
       id="path8012"
       d="m 2506.109,1526.813 c 0,0 5.596,-0.425 14.618,-8.181 0,0 3.411,-3.5 5.967,-11.035 0,0 7.87,-18.389 8.588,-19.336 0,0 3.297,-7.862 8.601,-13.811 0,0 5.762,-6.064 7.596,-6.757 0,0 5.93,-3.134 7.601,-3.944 0,0 11.976,-4.39 12.417,-5.006 0,0 6.299,-2.73 12.511,-9.431 0,0 3.249,-3.2 6.996,-3.255 0,0 5.831,-0.249 7.164,-4.621 l -0.844,-0.293 c 0,0 -2.2,1.711 -5.293,1.91 -3.093,0.199 -6.19,-0.615 -11.923,7.417 0,0 -0.824,2.742 -9.466,5.73 -8.642,2.988 -17.596,4.235 -25.587,12.049 0,0 -8.486,7.008 -12.614,18.38 l -8.494,18.938 -7.912,12.412 c 0,0 -7.765,5.776 -11.712,6.212 -3.947,0.436 1.786,2.622 1.786,2.622 z" /></g><g
     id="公民广场_1_"><polyline
       style="fill:#abc973;stroke:#abc973;stroke-width:0.1"
       id="polyline8015"
       points="2742.196,1270.015 2753.411,1256.844 2777.729,1277.339       2766.336,1290.367 2742.094,1270.015     " /></g><g
     id="外交公寓二期_1_"><path
       style="fill:#abc973"
       inkscape:connector-curvature="0"
       id="path8018"
       d="m 2764.125,1198.742 20.022,-24.97 c 0,0 1.709,0.535 -2.313,8.444 -4.022,7.909 -4.773,22.737 -4.647,23.542 0.126,0.805 0.05,9.676 0.697,10.367 0.647,0.691 -8.265,2.813 -8.265,2.813 0,0 -5.875,-19.722 -5.494,-20.196 z" /></g><g
     id="小公园"><polygon
       style="fill:#abc973"
       id="polygon8021"
       points="2722.344,1207.438 2731.401,1214.938 2728.594,1218.398 2719.531,1210.875 2719.722,1210.602 " /><polygon
       style="fill:#abc973"
       id="polygon8023"
       points="2691.229,1245.257 2700.287,1252.757 2697.479,1256.218 2688.417,1248.694 2688.607,1248.421 " /><polygon
       style="fill:#abc973"
       id="polygon8025"
       points="2717.518,1209.928 2708.292,1202.528 2704.145,1207.486 2710.487,1212.918 2711.188,1212.019 2713.521,1213.917 2713.996,1214.181 " /><rect
       style="fill:#dcc7b5"
       id="rect8027"
       height="5.848"
       width="5.1110001"
       transform="matrix(0.9269,-0.3754,0.3754,0.9269,-319.2957,1064.7947)"
       y="1348.941"
       x="2570.5769" /></g><polygon
     points="2708.468,1228.288 2713.449,1232.299 2711.291,1234.631 2706.99,1231.459 "
     id="polygon8030"
     style="fill:#abc973" /><polygon
     points="2696.421,1243.042 2701.402,1247.054 2699.244,1249.386 2694.943,1246.214 "
     id="polygon8032"
     style="fill:#abc973" /><polygon
     points="2720.33,1213.917 2725.311,1217.929 2723.153,1220.26 2718.852,1217.088 "
     id="polygon8034"
     style="fill:#abc973" /><polyline
     points="2691.883,1221.846 2697.024,1215.609 2703.667,1221.137 2698.344,1227.437     "
     id="polyline8036"
     style="fill:#abc973" /><polygon
     points="2692.535,1211.781 2685.553,1205.682 2685.372,1205.844 2680,1212.24 2687.096,1218.229 "
     id="polygon8038"
     style="fill:#abc973" /><path
     d="m 2650.813,1220.104 c 0,0 -8.906,11.334 -2.75,18.006 6.156,6.672 16.383,13.445 16.383,13.445 l 9.658,-12.242 -22.885,-19.512 -0.406,0.303 z"
     id="path8698"
     inkscape:connector-curvature="0"
     style="fill:#abc973" /><path
     d="m 2708.66,1168.151 c 0,0 -2.667,0.477 -4.61,4.544 l -2.816,-2.01 0.29,-0.314 8.055,-4.733 c 0,10e-4 1.495,-0.367 -0.919,2.513"
     id="path8700"
     inkscape:connector-curvature="0"
     style="fill:#abc973" /><path
     d="m 2583.383,1335.959 c 0,0 30.417,-8.075 55.826,-33.883 0,0 9.531,4.244 13.495,3.115 l 0.516,21.157 c 0,0 -10.783,6.116 -13.126,11.759 -2.343,5.643 -15.318,12.473 -15.845,11.922 0,0 -33.504,-3.736 -36.279,-0.835 l -4.587,-13.235 z"
     id="path8702"
     inkscape:connector-curvature="0"
     style="fill:#abc973" /><path
     d="m 2653.333,1305.191 12.208,0 0,19.376 c 0,0 -10.567,0.318 -11.867,2.063 -1.3,1.745 -0.341,-21.439 -0.341,-21.439 z"
     id="path8704"
     inkscape:connector-curvature="0"
     style="fill:#abc973" /><path
     d="m 2539.208,1386.67 c 0,0 21.585,0.444 32.897,-20.321 0,0 11.229,-19.629 20.562,-17.822 0,0 27.496,1.032 31.581,1.502 4.085,0.47 19.428,-14.526 22.132,-19.028 2.704,-4.502 16.485,-5.789 16.485,-5.789 0,0 17.306,-1.762 23.635,0.189 6.329,1.951 10.855,-0.205 11.178,-1.22 0.323,-1.015 15.709,-20.765 15.709,-20.765 l 1.597,-1.244 c 0,0 12.518,5.089 0.517,21.375 0,0 -8.92,5.621 -12.793,5.12 0,0 -13.04,-0.292 -17.54,-1.604 0,0 -23.338,-5.344 -37.086,6.338 -13.748,11.682 -14.398,17.266 -25.656,18.682 -11.258,1.416 -16.266,-5.725 -31.917,0.667 0,0 -6.507,3.834 -13.424,13.917 0,0 -9.5,14.833 -15.5,16.583 0,0 -14.083,9.917 -22.375,7.083 l 0,-3.663 z"
     id="path8706"
     inkscape:connector-curvature="0"
     style="fill:#abc973;stroke:#dcc7b5" /><path
     d="m 2698.083,1137.923 6.208,-6.298 c 0,0 1.25,2.365 -0.479,9.266"
     id="path8708"
     inkscape:connector-curvature="0"
     style="fill:#abc973" /><path
     d="m 2700.75,1186.337 7.241,-8.154 c 0,0 6.406,0.384 12.313,-4.44 5.907,-4.824 5.942,-5.295 9.944,-3.102 4.002,2.193 1.066,0.938 1.066,0.938 l -10.88,13.474 -9.458,9.762 -10.226,-8.478 z"
     id="path8710"
     inkscape:connector-curvature="0"
     style="fill:#abc973" /><polyline
     points="2581.042,1326.542 2602.065,1316.083 2606.461,1324.201 2593.685,1330.708 2584.292,1334.591           "
     id="polyline8712"
     style="fill:#abc973" /><polygon
     points="2603.406,1314.746 2617.188,1305.813 2622.469,1313.813 2608.413,1322.906 "
     id="polygon8714"
     style="fill:#abc973" /><polygon
     points="2629.688,1296.531 2635,1301.75 2634.823,1304.875 2624.248,1312.919 2618.875,1304.875 2627.625,1298.313 "
     id="polygon8716"
     style="fill:#abc973" /><polygon
     points="2553.219,1340.675 2546.232,1339.17 2547.772,1336.034 2550.75,1334.307 2551.375,1334.935 2552.992,1333.866 2555.119,1333.313 2556.168,1339.909 2556.333,1340.383 "
     id="polygon8718"
     style="fill:#abc973" /><polygon
     points="2567.792,1338.602 2565.042,1331.714 2559.25,1332.327 2560.902,1340.04 2565.917,1339.006 "
     id="polygon8720"
     style="fill:#abc973" /><polyline
     points="2570.891,1330.312 2572.163,1334.321 2575.146,1336.294 2577.625,1335.447 2578.063,1335.259       2575.625,1329.063 2570.891,1330.312     "
     id="polyline8722"
     style="fill:#abc973" /><rect
     x="2562.375"
     y="1344.8929"
     width="7.1209998"
     height="2.3329999"
     id="rect8724"
     style="fill:#abc973" /><rect
     x="2569.479"
     y="1342.705"
     width="5.6669998"
     height="2.188"
     id="rect8726"
     style="fill:#abc973" /><rect
     x="2575.146"
     y="1340.3831"
     width="5.2290001"
     height="2.3699999"
     id="rect8728"
     style="fill:#abc973" /><rect
     x="2579.7434"
     y="1304.7407"
     transform="matrix(0.99987359,0.01589958,-0.01589958,0.99987359,0,0)"
     width="2.6130688"
     height="5.4921451"
     id="rect8730"
     style="fill:#abc973" /><polygon
     points="2541.599,1365.021 2542.625,1372.393 2546.833,1371.687 2552.682,1369.375 2555.984,1366.95 2554.542,1360.625 2553.302,1358.023 2541.417,1363 "
     id="polygon8732"
     style="fill:#abc973" /><polygon
     points="2568.583,1357.571 2570.526,1362.354 2569.153,1364.362 2565.198,1369.583 2564.042,1369.479 2560.271,1365.333 2560.375,1361.002 "
     id="polygon8734"
     style="fill:#abc973" /><polygon
     points="2544.28,1383.25 2543.625,1376.31 2547.993,1375 2553.667,1372.393 2557.049,1369.636 2561.708,1374.583 2557.75,1378 2552.378,1381.208 2546.596,1383 "
     id="polygon8736"
     style="fill:#abc973" /><polygon
     points="2680,1261.364 2686.875,1253.024 2693.632,1258.649 2687.05,1266.936 "
     id="polygon8738"
     style="fill:#abc973" /><polygon
     points="2667.203,1257.188 2659.24,1266.313 2663.458,1269.826 2671.523,1260.326 "
     id="polygon8740"
     style="fill:#abc973" /><polygon
     points="2676.511,1265.815 2671.791,1272.281 2678.479,1277.069 2683.406,1271.093 "
     id="polygon8742"
     style="fill:#abc973" /><polyline
     points="2692.658,1293.469 2693.458,1292.67 2700.625,1296.376 2700.89,1298.167 2694.771,1299.222       2693.042,1297.799 2692.658,1293.469     "
     id="polyline8744"
     style="fill:#abc973" /><polyline
     points="2695.68,1302.173 2700.625,1301.228 2698.897,1305.268 2700.625,1306.287 2699.095,1310.083       2696.773,1311.354 2696.1,1313.293 2693.042,1312.083 2692.833,1302.747 2695.68,1302.173     "
     id="polyline8746"
     style="fill:#abc973" /><polygon
     points="2694.234,1318.493 2692.167,1319.464 2693.833,1323.542 2697.042,1321.938 2700.305,1314.833 2696.236,1313.452 2695.792,1314.917 "
     id="polygon8748"
     style="fill:#abc973" /><path
     d="m 2469.423,1464.316 8.468,4.567 c 0,0 10.809,-25.3 26.99,-22.561 L 2507,1440 c 0,0 -10.26,-7.428 -24.13,4.453 0,0 -8.671,9.373 -13.447,19.863 z"
     id="path8750"
     inkscape:connector-curvature="0"
     style="fill:#abc973" /><path
     d="m 2460,1458.988 c 0,0 5.873,-14.247 21.353,-24.534 15.48,-10.287 34.391,-3.444 43.894,3.176 0,0 -5.316,10.124 -9.782,12.872 0,0 -7.278,-4.995 -10.584,-4.179 -3.306,0.816 2.026,-6.046 2.026,-6.046 0,0 -10.909,-9.407 -27.033,6.992 l -10.451,17.048 -9.756,-4.285 0.333,-1.044 z"
     id="path8752"
     inkscape:connector-curvature="0"
     style="fill:#abc973" /><path
     d="m 2459.466,1459.282 18.426,9.602 c 0,0 -9.847,16.89 -9.494,24.628 0,0 -1.348,7.537 8.085,10.304 l 11.372,3.985 c 0,0 7.66,13.37 13.444,16.159 l -0.767,1.254 c 0,0 -12.734,4.223 -33.633,-4.496 0,0 -22.191,-6.502 -17.67,-33.36 0,0 4.878,-22.166 10.237,-28.076 z"
     id="path8754"
     inkscape:connector-curvature="0"
     style="fill:#abc973" /><path
     d="m 2463.206,1494.183 c 0,0 0.267,1.411 -1.325,3.317 -1.592,1.906 1.281,1.084 1.325,2.011 0.044,0.927 -0.582,0.202 -0.894,0.939 -0.312,0.737 -0.566,1.612 1.217,1.987 1.783,0.375 -0.075,0.151 1.51,1.763 1.585,1.612 2.292,1.549 2.751,0.674 0.459,-0.875 0.163,2.034 -1.533,1.517 -1.696,-0.517 1.201,1.87 2.065,1.02 0.864,-0.85 2.118,-0.947 0.643,-1.537 -1.475,-0.59 -1.007,-0.063 -0.643,-1 0.364,-0.937 0.347,-1.307 -1.082,-1.435 -1.429,-0.128 -1.287,-0.946 -0.983,-1.756 0.304,-0.81 0.466,-0.771 -0.615,-1.728 -1.081,-0.957 -1.271,-0.947 -1.113,-1.983 0.158,-1.036 1.065,-1.387 0.174,-1.586 -0.891,-0.199 -0.264,-1.225 -0.515,-1.9 -0.252,-0.675 -0.714,-1.651 -1.452,-0.976 -0.738,0.675 0.47,0.673 0.47,0.673 z"
     id="path8756"
     inkscape:connector-curvature="0"
     style="fill:#507975" /><path
     d="m 2526.102,1438.095 c 6.931,3.437 15.132,-1.998 15.132,-1.998 l 12.81,-11.642 16.017,-14.288 0,0 32.096,14.331 c 0,0 -5.61,16.464 -7.061,17.397 -1.451,0.933 -6.262,-1.144 -7.893,1.361 -1.631,2.505 -14.594,11.258 -14.594,11.258 -23.641,5.179 -29.196,13.458 -29.196,13.458 l -27.378,-17.222 10.067,-12.655"
     id="path8758"
     inkscape:connector-curvature="0"
     style="fill:#abc973" /><path
     d="m 2515.668,1451.25 27.596,16.72 -11.226,17.798 -9.026,20.375 -8.152,12.127 c 0,0 -9.763,5.916 -11.663,5.803 -1.9,-0.113 -11.269,-10.823 -11.269,-10.823 0,0 -6.95,-13.037 -6.315,-15.435 0.635,-2.398 0.182,-12.903 3.588,-19.188 3.406,-6.285 17.681,-20.951 17.681,-20.951 l 8.786,-6.426 z"
     id="path8760"
     inkscape:connector-curvature="0"
     style="fill:#abc973" /><path
     d="m 2538.659,1403.284 c 0,0 12.852,2.824 31.825,-10.228 18.973,-13.052 14.653,-22.543 27.252,-29.422 0,0 2.446,-1.719 16.886,0.198 14.44,1.917 16.602,-0.707 17.083,-1.113 l 5.125,11.114 -22.231,8 -18.099,8.667 -28.414,20.578 -20.726,19.94 c 0,0 -10.524,10.752 -20.088,7.221 l 4.223,-7.986 7.164,-26.969 z"
     id="path8762"
     inkscape:connector-curvature="0"
     style="fill:#abc973" /><path
     d="m 2599.033,1390.843 7.678,20.21 2.55,0.025 c 0,0 4.234,-8.017 17.028,-18.047 0,0 8.089,-3.713 12.108,-3.247 0,0 5.729,-0.015 11.249,1.059 0,0 12.883,2.604 24.032,-7.995 0,0 9.246,-6.722 15.492,-5.451 0,0 10.387,-0.508 11.982,-10.528 0,0 6.93,-22.249 4.263,-24.309 l -8.542,-1.181 -36.406,22.081 -35.378,16.009 c 0,0 -20.273,5.3 -26.056,11.374 z"
     id="path8764"
     inkscape:connector-curvature="0"
     style="fill:#abc973" /><polygon
     points="2603.529,1391.164 2599.821,1392.289 2607.457,1409.894 2610.208,1406.47 2609.261,1403.915 2611.229,1402.796 2609,1398.167 2606.116,1391.425 2604.147,1392.204 "
     id="polygon8766"
     style="fill:#e9e5dc" /><g
     id="西山公园"><path
       id="道路_3_"
       d="m 2716.118,1160.461 c 0,0 1.301,-5.901 12.436,-4.361 11.134,1.541 12.285,-9.917 12.285,-9.917 0,0 0.536,-10.964 13.892,-15.387 13.356,-4.422 -8.989,-19.042 -10.423,-14.527 -1.433,4.515 -12.895,-0.271 -24.524,10.732 -11.631,11.004 -0.465,9.209 -3.99,11.811 -3.523,2.601 -17.194,17.43 -7.146,16.173 10.048,-1.258 9.88,-9.57 20.837,-8.222 10.956,1.35 4.064,-15.216 16.322,-18.629 12.256,-3.412 -0.852,-7.184 -9.307,-2.287 l -4.04,2.58 c 0,0 -0.815,0.484 -1.995,0.815 -0.684,0.192 -1.489,0.333 -2.33,0.3 0,0 -4.383,-0.794 -2.258,3.998 2.125,4.792 4.057,0.042 5.091,-0.292 1.034,-0.334 0.701,-0.208 2.951,-1.167 l -1.625,-3.146"
       inkscape:connector-curvature="0"
       style="fill:none;stroke:#8d8e89" /><circle
       cx="2727.4189"
       cy="1132.54"
       r="1.069"
       id="circle8770"
       style="fill:#ebd2cf;stroke:#ebd2cf;stroke-width:0.1741" /><rect
       x="2727.511"
       y="1132.366"
       transform="matrix(-0.4262,-0.9046,0.9046,-0.4262,2866.3542,4084.0603)"
       width="1.6950001"
       height="1.311"
       id="rect8772"
       style="fill:#ebd2cf;stroke:#ebd2cf;stroke-width:0.1496" /><rect
       x="2726.792"
       y="1130.842"
       transform="matrix(-0.4264,-0.9046,0.9046,-0.4264,2867.1145,4081.2192)"
       width="1.696"
       height="1.311"
       id="rect8774"
       style="fill:#ebd2cf;stroke:#ebd2cf;stroke-width:0.1496" /><polyline
       points="2728.951,1132.741 2729.641,1131.958      2729.276,1131.185 2728.233,1131.219    "
       id="polyline8776"
       style="fill:#ebd2cf;stroke:#ebd2cf;stroke-width:0.1496" /><rect
       x="2733.145"
       y="1129.031"
       transform="matrix(-0.4682,-0.8836,0.8836,-0.4682,3016.3379,4074.3423)"
       width="2.089"
       height="0.97399998"
       id="rect8778"
       style="fill:#ebd2cf;stroke:#ebd2cf;stroke-width:0.16869999" /><rect
       x="2731.196"
       y="1133.106"
       transform="matrix(0.9254,-0.3791,0.3791,0.9254,-225.8774,1120.8445)"
       width="4.2410002"
       height="1.812"
       id="rect8780"
       style="fill:#b3b3b3;stroke:#b3b3b3;stroke-width:0.17020001" /><rect
       x="2734.075"
       y="1131.2469"
       transform="matrix(-0.4136,-0.9105,0.9105,-0.4136,2836.4995,4091.2207)"
       width="3.395"
       height="1.812"
       id="rect8782"
       style="fill:#b3b3b3;stroke:#b3b3b3;stroke-width:0.1523" /><path
       d="m 2744.843,1115.344 c 0,0 -5.957,-7.438 -18.058,-3.188 0,0 -0.235,0.359 -0.846,-0.594"
       id="path8784"
       inkscape:connector-curvature="0"
       style="fill:none;stroke:#8d8e89;stroke-width:1.00160003" /></g><g
     id="泪湾区林木" /></svg>