<?xml version="1.0" encoding="UTF-8" standalone="no"?>
<!-- Generator: Adobe Illustrator 14.0.0, SVG Export Plug-In . SVG Version: 6.00 Build 43363)  -->

<svg
   xmlns:dc="http://purl.org/dc/elements/1.1/"
   xmlns:cc="http://creativecommons.org/ns#"
   xmlns:rdf="http://www.w3.org/1999/02/22-rdf-syntax-ns#"
   xmlns:svg="http://www.w3.org/2000/svg"
   xmlns="http://www.w3.org/2000/svg"
   xmlns:sodipodi="http://sodipodi.sourceforge.net/DTD/sodipodi-0.dtd"
   xmlns:inkscape="http://www.inkscape.org/namespaces/inkscape"
   version="1.1"
   x="0px"
   y="0px"
   width="6243.13px"
   height="3121.27px"
   viewBox="0 0 6243.13 3121.27"
   enable-background="new 0 0 6243.13 3121.27"
   xml:space="preserve"
   id="svg2"
   inkscape:version="0.91 r13725"
   sodipodi:docname="house_green.svg"><metadata
     id="metadata19928"><rdf:RDF><cc:Work
         rdf:about=""><dc:format>image/svg+xml</dc:format><dc:type
           rdf:resource="http://purl.org/dc/dcmitype/StillImage" /></cc:Work></rdf:RDF></metadata><defs
     id="defs19926" /><sodipodi:namedview
     pagecolor="#ffffff"
     bordercolor="#666666"
     borderopacity="1"
     objecttolerance="10"
     gridtolerance="10"
     guidetolerance="10"
     inkscape:pageopacity="0"
     inkscape:pageshadow="2"
     inkscape:window-width="1303"
     inkscape:window-height="744"
     id="namedview19924"
     showgrid="false"
     inkscape:zoom="6.8068424"
     inkscape:cx="2742.641"
     inkscape:cy="1963.1581"
     inkscape:window-x="65"
     inkscape:window-y="24"
     inkscape:window-maximized="1"
     inkscape:current-layer="svg2" /><symbol
     id="dot"
     viewBox="-1.451 -1.5 2.902 3"><g
       id="g5"><g
         id="g7"><path
           d="M0-1.5c1.935,0,1.935,3,0,3S-1.935-1.5,0-1.5L0-1.5z"
           id="path9" /></g></g></symbol><polyline
     points="2678.531,1239.001 2677.938,1239.694 2681.081,1242.359 2681.719,1241.575     "
     id="polyline8042"
     style="fill:#abc973" /><rect
     x="2850.3225"
     y="-713.55493"
     transform="matrix(0.78007796,0.62568232,-0.62568232,0.78007796,0,0)"
     width="1.1670331"
     height="2.3560665"
     id="rect8044"
     style="fill:#abc973" /><rect
     x="2834.5447"
     y="-713.80981"
     transform="matrix(0.78007796,0.62568232,-0.62568232,0.78007796,0,0)"
     width="1.1670331"
     height="2.3560665"
     id="rect8046"
     style="fill:#abc973" /><rect
     x="2831.8862"
     y="-710.18518"
     transform="matrix(0.78007796,0.62568232,-0.62568232,0.78007796,0,0)"
     width="1.1670331"
     height="1.1560327"
     id="rect8048"
     style="fill:#abc973" /><rect
     x="2831.8967"
     y="-711.5954"
     transform="matrix(0.78007796,0.62568232,-0.62568232,0.78007796,0,0)"
     width="1.1670331"
     height="1.1560327"
     id="rect8050"
     style="fill:#abc973" /><rect
     x="2832.0181"
     y="-712.98877"
     transform="matrix(0.78007796,0.62568232,-0.62568232,0.78007796,0,0)"
     width="1.1670331"
     height="1.1560327"
     id="rect8052"
     style="fill:#abc973" /><rect
     x="2832.072"
     y="-714.30634"
     transform="matrix(0.78007796,0.62568232,-0.62568232,0.78007796,0,0)"
     width="1.1670331"
     height="1.1560327"
     id="rect8054"
     style="fill:#abc973" /><rect
     x="2831.5608"
     y="-718.0199"
     transform="matrix(0.779726,0.62612088,-0.62612088,0.779726,0,0)"
     width="1.1669612"
     height="1.7929401"
     id="rect8056"
     style="fill:#abc973" /><rect
     x="2820.4722"
     y="-768.39032"
     transform="matrix(0.76920398,0.63900331,-0.63900331,0.76920398,0,0)"
     width="1.1659939"
     height="1.7929907"
     id="rect8058"
     style="fill:#abc973" /><rect
     x="2820.4399"
     y="-770.27106"
     transform="matrix(0.76920398,0.63900331,-0.63900331,0.76920398,0,0)"
     width="1.1659939"
     height="1.7929907"
     id="rect8060"
     style="fill:#abc973" /><rect
     x="2820.1616"
     y="-775.07709"
     transform="matrix(0.7688439,0.63943651,-0.63943651,0.7688439,0,0)"
     width="1.1659334"
     height="2.713845"
     id="rect8062"
     style="fill:#abc973" /><rect
     x="-506.09451"
     y="-2858.7747"
     transform="matrix(-0.56979223,0.82178879,-0.82178879,-0.56979223,0,0)"
     width="1.1660159"
     height="2.3560321"
     id="rect8064"
     style="fill:#abc973" /><rect
     x="-504.32224"
     y="-2858.7859"
     transform="matrix(-0.56979223,0.82178879,-0.82178879,-0.56979223,0,0)"
     width="1.1660159"
     height="2.3560321"
     id="rect8066"
     style="fill:#abc973" /><rect
     x="-502.56906"
     y="-2858.9414"
     transform="matrix(-0.56979223,0.82178879,-0.82178879,-0.56979223,0,0)"
     width="1.1660159"
     height="2.3560321"
     id="rect8068"
     style="fill:#abc973" /><rect
     x="267.207"
     y="-2890.3223"
     transform="matrix(-0.33399152,0.94257608,-0.94257608,-0.33399152,0,0)"
     width="1.1670296"
     height="2.3560598"
     id="rect8070"
     style="fill:#abc973" /><rect
     x="648.60803"
     y="-2829.2576"
     transform="matrix(-0.20629774,0.97848927,-0.97848927,-0.20629774,0,0)"
     width="1.1670128"
     height="2.3560257"
     id="rect8072"
     style="fill:#abc973" /><rect
     x="650.10437"
     y="-2829.1733"
     transform="matrix(-0.20629774,0.97848927,-0.97848927,-0.20629774,0,0)"
     width="1.1670128"
     height="2.3560257"
     id="rect8074"
     style="fill:#abc973" /><rect
     x="651.55261"
     y="-2828.8621"
     transform="matrix(-0.20629774,0.97848927,-0.97848927,-0.20629774,0,0)"
     width="1.1670128"
     height="2.3560257"
     id="rect8076"
     style="fill:#abc973" /><rect
     x="653.03021"
     y="-2828.7556"
     transform="matrix(-0.20629774,0.97848927,-0.97848927,-0.20629774,0,0)"
     width="1.1670128"
     height="2.3560257"
     id="rect8078"
     style="fill:#abc973" /><rect
     x="654.35315"
     y="-2828.3391"
     transform="matrix(-0.20629774,0.97848927,-0.97848927,-0.20629774,0,0)"
     width="1.1670128"
     height="2.3560257"
     id="rect8080"
     style="fill:#abc973" /><rect
     x="656.40112"
     y="-2828.3904"
     transform="matrix(-0.20601048,0.97854978,-0.97854978,-0.20601048,0,0)"
     width="1.4079283"
     height="2.35588"
     id="rect8082"
     style="fill:#abc973" /><rect
     x="969.39056"
     y="-2736.9685"
     transform="matrix(-0.09560189,0.99541965,-0.99541965,-0.09560189,0,0)"
     width="1.420972"
     height="2.3549535"
     id="rect8084"
     style="fill:#abc973" /><rect
     x="971.84369"
     y="-2736.96"
     transform="matrix(-0.09540371,0.99543866,-0.99543866,-0.09540371,0,0)"
     width="1.1669548"
     height="2.3549085"
     id="rect8086"
     style="fill:#abc973" /><rect
     x="973.49628"
     y="-2736.6521"
     transform="matrix(-0.09540371,0.99543866,-0.99543866,-0.09540371,0,0)"
     width="1.1669548"
     height="2.3549085"
     id="rect8088"
     style="fill:#abc973" /><rect
     x="975.02734"
     y="-2736.8088"
     transform="matrix(-0.09540371,0.99543866,-0.99543866,-0.09540371,0,0)"
     width="1.4129452"
     height="2.3549085"
     id="rect8090"
     style="fill:#abc973" /><rect
     x="1827.6862"
     y="-2263.4602"
     transform="matrix(0.2361066,0.97172716,-0.97172716,0.2361066,0,0)"
     width="1.4119605"
     height="2.3549342"
     id="rect8092"
     style="fill:#abc973" /><rect
     x="2200.999"
     y="-1904.0942"
     transform="matrix(0.40439342,0.91458513,-0.91458513,0.40439342,0,0)"
     width="1.413023"
     height="2.3550384"
     id="rect8094"
     style="fill:#abc973" /><rect
     x="2644.0125"
     y="-1219.6234"
     transform="matrix(0.64200228,0.76670273,-0.76670273,0.64200228,0,0)"
     width="1.4119949"
     height="2.3549917"
     id="rect8096"
     style="fill:#abc973" /><rect
     x="2645.8782"
     y="-1219.8309"
     transform="matrix(0.64200228,0.76670273,-0.76670273,0.64200228,0,0)"
     width="1.4119949"
     height="2.3549917"
     id="rect8098"
     style="fill:#abc973" /><rect
     x="2647.8455"
     y="-1219.9946"
     transform="matrix(0.64200228,0.76670273,-0.76670273,0.64200228,0,0)"
     width="1.4119949"
     height="2.3549917"
     id="rect8100"
     style="fill:#abc973" /><rect
     x="2648.053"
     y="-1222.702"
     transform="matrix(0.64200228,0.76670273,-0.76670273,0.64200228,0,0)"
     width="1.4119949"
     height="2.3549917"
     id="rect8102"
     style="fill:#abc973" /><rect
     x="1851.2335"
     y="2250.7271"
     transform="matrix(0.90410809,-0.42730382,0.42730382,0.90410809,0,0)"
     width="1.4119873"
     height="2.354979"
     id="rect8104"
     style="fill:#abc973" /><rect
     x="1850.809"
     y="2248.468"
     transform="matrix(0.90410809,-0.42730382,0.42730382,0.90410809,0,0)"
     width="1.4119873"
     height="2.354979"
     id="rect8106"
     style="fill:#abc973" /><rect
     x="1474.1772"
     y="-2505.6267"
     transform="matrix(0.09130213,0.99582324,-0.99582324,0.09130213,0,0)"
     width="2.0849514"
     height="2.3549452"
     id="rect8108"
     style="fill:#abc973" /><rect
     x="1473.8173"
     y="-2508.9841"
     transform="matrix(0.09110379,0.9958414,-0.9958414,0.09110379,0,0)"
     width="2.0849133"
     height="2.354902"
     id="rect8110"
     style="fill:#abc973" /><rect
     x="2030.684"
     y="-2086.2793"
     transform="matrix(0.32628959,0.94526986,-0.94526986,0.32628959,0,0)"
     width="2.0850666"
     height="2.356075"
     id="rect8112"
     style="fill:#abc973" /><rect
     x="2834.6514"
     y="-722.35059"
     transform="matrix(0.78007796,0.62568232,-0.62568232,0.78007796,0,0)"
     width="1.1670331"
     height="2.3560665"
     id="rect8114"
     style="fill:#abc973" /><rect
     x="2776.8389"
     y="-842.65338"
     transform="matrix(0.74968901,0.66179029,-0.66179029,0.74968901,0,0)"
     width="1.434021"
     height="0.89001304"
     id="rect8116"
     style="fill:#abc973" /><rect
     x="2783.2263"
     y="-842.46692"
     transform="matrix(0.74968901,0.66179029,-0.66179029,0.74968901,0,0)"
     width="1.434021"
     height="0.89001304"
     id="rect8118"
     style="fill:#abc973" /><rect
     x="2789.468"
     y="-841.73065"
     transform="matrix(0.74987579,0.66157864,-0.66157864,0.74987579,0,0)"
     width="1.272041"
     height="0.89002872"
     id="rect8120"
     style="fill:#abc973" /><rect
     x="2788.8867"
     y="-844.53674"
     transform="matrix(0.74950215,0.6620019,-0.6620019,0.74950215,0,0)"
     width="1.2719963"
     height="0.70999795"
     id="rect8122"
     style="fill:#abc973" /><rect
     x="2789.5237"
     y="-844.14313"
     transform="matrix(0.74987579,0.66157864,-0.66157864,0.74987579,0,0)"
     width="1.272041"
     height="0.89002872"
     id="rect8124"
     style="fill:#abc973" /><rect
     x="2789.3342"
     y="-845.06415"
     transform="matrix(0.7499254,0.66152241,-0.66152241,0.7499254,0,0)"
     width="1.1759602"
     height="0.88996983"
     id="rect8126"
     style="fill:#abc973" /><rect
     x="2789.5605"
     y="-846.03406"
     transform="matrix(0.75001877,0.66141655,-0.66141655,0.75001877,0,0)"
     width="1.2079697"
     height="0.88997769"
     id="rect8128"
     style="fill:#abc973" /><rect
     x="2789.291"
     y="-847.41608"
     transform="matrix(0.7499254,0.66152241,-0.66152241,0.7499254,0,0)"
     width="1.2309582"
     height="0.88996983"
     id="rect8130"
     style="fill:#abc973" /><rect
     x="2789.6255"
     y="-848.43359"
     transform="matrix(0.74996916,0.6614728,-0.6614728,0.74996916,0,0)"
     width="1.2310506"
     height="0.89003658"
     id="rect8132"
     style="fill:#abc973" /><rect
     x="2789.5754"
     y="-849.62598"
     transform="matrix(0.74996916,0.6614728,-0.6614728,0.74996916,0,0)"
     width="1.2470512"
     height="0.89003658"
     id="rect8134"
     style="fill:#abc973" /><rect
     x="2789.8337"
     y="-849.87762"
     transform="matrix(0.75015584,0.66126108,-0.66126108,0.75015584,0,0)"
     width="1.3290782"
     height="0.89005238"
     id="rect8136"
     style="fill:#abc973" /><rect
     x="2789.217"
     y="-852.50946"
     transform="matrix(0.74983202,0.66162825,-0.66162825,0.74983202,0,0)"
     width="1.2729456"
     height="0.88996196"
     id="rect8138"
     style="fill:#abc973" /><rect
     x="2789.3142"
     y="-853.26642"
     transform="matrix(0.7499254,0.66152241,-0.66152241,0.7499254,0,0)"
     width="1.120962"
     height="0.88996983"
     id="rect8140"
     style="fill:#abc973" /><rect
     x="2789.4148"
     y="-853.9577"
     transform="matrix(0.75001877,0.66141655,-0.66141655,0.75001877,0,0)"
     width="1.2509687"
     height="0.88997769"
     id="rect8142"
     style="fill:#abc973" /><rect
     x="2789.2063"
     y="-855.97314"
     transform="matrix(0.74983202,0.66162825,-0.66162825,0.74983202,0,0)"
     width="1.2509466"
     height="0.88996196"
     id="rect8144"
     style="fill:#abc973" /><rect
     x="2789.4578"
     y="-856.30542"
     transform="matrix(0.75001877,0.66141655,-0.66141655,0.75001877,0,0)"
     width="1.2509687"
     height="0.88997769"
     id="rect8146"
     style="fill:#abc973" /><rect
     x="2782.833"
     y="-844.89221"
     transform="matrix(0.74935909,0.66216385,-0.66216385,0.74935909,0,0)"
     width="1.4340783"
     height="0.89004856"
     id="rect8148"
     style="fill:#abc973" /><rect
     x="2783.1208"
     y="-844.26111"
     transform="matrix(0.74983202,0.66162825,-0.66162825,0.74983202,0,0)"
     width="1.4339387"
     height="0.88996196"
     id="rect8150"
     style="fill:#abc973" /><rect
     x="2782.7532"
     y="-847.19159"
     transform="matrix(0.74935909,0.66216385,-0.66216385,0.74935909,0,0)"
     width="1.4340783"
     height="0.89004856"
     id="rect8152"
     style="fill:#abc973" /><rect
     x="2782.7622"
     y="-847.67188"
     transform="matrix(0.74950215,0.6620019,-0.6620019,0.74950215,0,0)"
     width="1.4329958"
     height="0.88999742"
     id="rect8154"
     style="fill:#abc973" /><rect
     x="2782.7202"
     y="-848.79639"
     transform="matrix(0.74950215,0.6620019,-0.6620019,0.74950215,0,0)"
     width="1.4329958"
     height="0.88999742"
     id="rect8156"
     style="fill:#abc973" /><rect
     x="2782.6865"
     y="-850.09784"
     transform="matrix(0.74950215,0.6620019,-0.6620019,0.74950215,0,0)"
     width="1.4339958"
     height="0.88999742"
     id="rect8158"
     style="fill:#abc973" /><rect
     x="2782.5132"
     y="-851.19586"
     transform="matrix(0.74950215,0.6620019,-0.6620019,0.74950215,0,0)"
     width="1.4339958"
     height="0.88999742"
     id="rect8160"
     style="fill:#abc973" /><rect
     x="2782.7878"
     y="-851.68835"
     transform="matrix(0.74968901,0.66179029,-0.66179029,0.74968901,0,0)"
     width="1.434021"
     height="0.89001304"
     id="rect8162"
     style="fill:#abc973" /><rect
     x="2782.7908"
     y="-852.73694"
     transform="matrix(0.74968901,0.66179029,-0.66179029,0.74968901,0,0)"
     width="1.434021"
     height="0.89001304"
     id="rect8164"
     style="fill:#abc973" /><rect
     x="2782.4285"
     y="-854.59711"
     transform="matrix(0.74950215,0.6620019,-0.6620019,0.74950215,0,0)"
     width="1.4339958"
     height="0.88999742"
     id="rect8166"
     style="fill:#abc973" /><rect
     x="2782.8306"
     y="-855.12964"
     transform="matrix(0.74968901,0.66179029,-0.66179029,0.74968901,0,0)"
     width="1.434021"
     height="0.89001304"
     id="rect8168"
     style="fill:#abc973" /><rect
     x="2782.8787"
     y="-856.375"
     transform="matrix(0.74968901,0.66179029,-0.66179029,0.74968901,0,0)"
     width="1.434021"
     height="0.89101303"
     id="rect8170"
     style="fill:#abc973" /><rect
     x="2782.47"
     y="-858.77039"
     transform="matrix(0.74935909,0.66216385,-0.66216385,0.74935909,0,0)"
     width="1.4340783"
     height="0.89004856"
     id="rect8172"
     style="fill:#abc973" /><rect
     x="2776.8101"
     y="-843.73956"
     transform="matrix(0.74968901,0.66179029,-0.66179029,0.74968901,0,0)"
     width="1.434021"
     height="0.89001304"
     id="rect8174"
     style="fill:#abc973" /><rect
     x="2776.7827"
     y="-844.23431"
     transform="matrix(0.74983202,0.66162825,-0.66162825,0.74983202,0,0)"
     width="1.4339387"
     height="0.88996196"
     id="rect8176"
     style="fill:#abc973" /><rect
     x="2776.7463"
     y="-845.92712"
     transform="matrix(0.74968901,0.66179029,-0.66179029,0.74968901,0,0)"
     width="1.434021"
     height="0.89001304"
     id="rect8178"
     style="fill:#abc973" /><rect
     x="2776.3171"
     y="-847.77637"
     transform="matrix(0.74950215,0.6620019,-0.6620019,0.74950215,0,0)"
     width="1.4329958"
     height="0.88999742"
     id="rect8180"
     style="fill:#abc973" /><rect
     x="2776.77"
     y="-847.71558"
     transform="matrix(0.74983202,0.66162825,-0.66162825,0.74983202,0,0)"
     width="1.4339387"
     height="0.88996196"
     id="rect8182"
     style="fill:#abc973" /><rect
     x="2776.3457"
     y="-850.59406"
     transform="matrix(0.74935909,0.66216385,-0.66216385,0.74935909,0,0)"
     width="1.4340783"
     height="0.89004856"
     id="rect8184"
     style="fill:#abc973" /><rect
     x="2776.3489"
     y="-851.82745"
     transform="matrix(0.74935909,0.66216385,-0.66216385,0.74935909,0,0)"
     width="1.4340783"
     height="0.89004856"
     id="rect8186"
     style="fill:#abc973" /><rect
     x="2776.2971"
     y="-852.87366"
     transform="matrix(0.74935909,0.66216385,-0.66216385,0.74935909,0,0)"
     width="1.4340783"
     height="0.89004856"
     id="rect8188"
     style="fill:#abc973" /><rect
     x="2776.6672"
     y="-852.12946"
     transform="matrix(0.74983202,0.66162825,-0.66162825,0.74983202,0,0)"
     width="1.4339387"
     height="0.88996196"
     id="rect8190"
     style="fill:#abc973" /><rect
     x="2776.2178"
     y="-854.55566"
     transform="matrix(0.74950215,0.6620019,-0.6620019,0.74950215,0,0)"
     width="1.4329958"
     height="0.88999742"
     id="rect8192"
     style="fill:#abc973" /><rect
     x="2776.3083"
     y="-855.8114"
     transform="matrix(0.74950215,0.6620019,-0.6620019,0.74950215,0,0)"
     width="1.4339958"
     height="0.88999742"
     id="rect8194"
     style="fill:#abc973" /><rect
     x="2776.2498"
     y="-856.93884"
     transform="matrix(0.74950215,0.6620019,-0.6620019,0.74950215,0,0)"
     width="1.4339958"
     height="0.88999742"
     id="rect8196"
     style="fill:#abc973" /><rect
     x="2776.2917"
     y="-858.01123"
     transform="matrix(0.74950215,0.6620019,-0.6620019,0.74950215,0,0)"
     width="1.4329958"
     height="0.88999742"
     id="rect8198"
     style="fill:#abc973" /><rect
     x="2784.1074"
     y="-837.26825"
     transform="matrix(0.75538215,0.65528452,-0.65528452,0.75538215,0,0)"
     width="1.4340339"
     height="0.89102101"
     id="rect8200"
     style="fill:#abc973" /><rect
     x="2801.1392"
     y="-816.97485"
     transform="matrix(0.76359486,0.64569566,-0.64569566,0.76359486,0,0)"
     width="1.4340097"
     height="0.89000595"
     id="rect8202"
     style="fill:#abc973" /><rect
     x="2801.1135"
     y="-815.84381"
     transform="matrix(0.76359486,0.64569566,-0.64569566,0.76359486,0,0)"
     width="1.4340097"
     height="0.89000595"
     id="rect8204"
     style="fill:#abc973" /><rect
     x="2801.0239"
     y="-814.65717"
     transform="matrix(0.76359486,0.64569566,-0.64569566,0.76359486,0,0)"
     width="1.4340097"
     height="0.89000595"
     id="rect8206"
     style="fill:#abc973" /><rect
     x="2801.0537"
     y="-813.45453"
     transform="matrix(0.76359486,0.64569566,-0.64569566,0.76359486,0,0)"
     width="1.4340097"
     height="0.89000595"
     id="rect8208"
     style="fill:#abc973" /><rect
     x="2801.1316"
     y="-812.27863"
     transform="matrix(0.76359486,0.64569566,-0.64569566,0.76359486,0,0)"
     width="1.4340097"
     height="0.89000595"
     id="rect8210"
     style="fill:#abc973" /><rect
     x="2801.0647"
     y="-811.11279"
     transform="matrix(0.76359486,0.64569566,-0.64569566,0.76359486,0,0)"
     width="1.4340097"
     height="0.89000595"
     id="rect8212"
     style="fill:#abc973" /><rect
     x="2801.0391"
     y="-809.94598"
     transform="matrix(0.76359486,0.64569566,-0.64569566,0.76359486,0,0)"
     width="1.4340097"
     height="0.89000595"
     id="rect8214"
     style="fill:#abc973" /><rect
     x="2801.0583"
     y="-808.79181"
     transform="matrix(0.76359486,0.64569566,-0.64569566,0.76359486,0,0)"
     width="1.4340097"
     height="0.89000595"
     id="rect8216"
     style="fill:#abc973" /><rect
     x="2801.0979"
     y="-807.6308"
     transform="matrix(0.76359486,0.64569566,-0.64569566,0.76359486,0,0)"
     width="1.4340097"
     height="0.89000595"
     id="rect8218"
     style="fill:#abc973" /><rect
     x="2801.0559"
     y="-806.48633"
     transform="matrix(0.76359486,0.64569566,-0.64569566,0.76359486,0,0)"
     width="1.4340097"
     height="0.89000595"
     id="rect8220"
     style="fill:#abc973" /><rect
     x="2801.092"
     y="-805.31921"
     transform="matrix(0.76359486,0.64569566,-0.64569566,0.76359486,0,0)"
     width="1.4340097"
     height="0.89000595"
     id="rect8222"
     style="fill:#abc973" /><rect
     x="2801.0667"
     y="-804.10657"
     transform="matrix(0.76359486,0.64569566,-0.64569566,0.76359486,0,0)"
     width="1.4340097"
     height="0.89000595"
     id="rect8224"
     style="fill:#abc973" /><rect
     x="2801.0889"
     y="-802.91937"
     transform="matrix(0.76359486,0.64569566,-0.64569566,0.76359486,0,0)"
     width="1.4340097"
     height="0.89000595"
     id="rect8226"
     style="fill:#abc973" /><rect
     x="2801.0698"
     y="-801.75702"
     transform="matrix(0.76359486,0.64569566,-0.64569566,0.76359486,0,0)"
     width="1.4340097"
     height="0.89000595"
     id="rect8228"
     style="fill:#abc973" /><rect
     x="2784.0679"
     y="-839.05566"
     transform="matrix(0.75528971,0.65539107,-0.65539107,0.75528971,0,0)"
     width="1.4330195"
     height="0.89101213"
     id="rect8230"
     style="fill:#abc973" /><rect
     x="2783.7017"
     y="-840.84882"
     transform="matrix(0.75510477,0.65560414,-0.65560414,0.75510477,0,0)"
     width="1.433991"
     height="0.88999438"
     id="rect8232"
     style="fill:#abc973" /><rect
     x="2783.6851"
     y="-841.98615"
     transform="matrix(0.75510477,0.65560414,-0.65560414,0.75510477,0,0)"
     width="1.433991"
     height="0.88999438"
     id="rect8234"
     style="fill:#abc973" /><rect
     x="2783.6082"
     y="-843.18054"
     transform="matrix(0.75510477,0.65560414,-0.65560414,0.75510477,0,0)"
     width="1.433991"
     height="0.89099437"
     id="rect8236"
     style="fill:#abc973" /><rect
     x="2783.3269"
     y="-844.98297"
     transform="matrix(0.75491976,0.65581717,-0.65581717,0.75491976,0,0)"
     width="1.4329624"
     height="0.88997668"
     id="rect8238"
     style="fill:#abc973" /><rect
     x="2783.6692"
     y="-844.74072"
     transform="matrix(0.75519725,0.65549761,-0.65549761,0.75519725,0,0)"
     width="1.4340053"
     height="0.8900032"
     id="rect8240"
     style="fill:#abc973" /><rect
     x="2783.6243"
     y="-846.59692"
     transform="matrix(0.75510477,0.65560414,-0.65560414,0.75510477,0,0)"
     width="1.433991"
     height="0.88999438"
     id="rect8242"
     style="fill:#abc973" /><rect
     x="2783.6221"
     y="-847.02124"
     transform="matrix(0.75519725,0.65549761,-0.65549761,0.75519725,0,0)"
     width="1.4340053"
     height="0.8900032"
     id="rect8244"
     style="fill:#abc973" /><rect
     x="2783.6433"
     y="-848.76599"
     transform="matrix(0.75505526,0.65566115,-0.65566115,0.75505526,0,0)"
     width="1.434085"
     height="0.89005274"
     id="rect8246"
     style="fill:#abc973" /><rect
     x="2783.5579"
     y="-849.33789"
     transform="matrix(0.75519725,0.65549761,-0.65549761,0.75519725,0,0)"
     width="1.4340053"
     height="0.89100319"
     id="rect8248"
     style="fill:#abc973" /><rect
     x="2783.2017"
     y="-851.78949"
     transform="matrix(0.75491976,0.65581717,-0.65581717,0.75491976,0,0)"
     width="1.4329624"
     height="0.88997668"
     id="rect8250"
     style="fill:#abc973" /><rect
     x="2783.5549"
     y="-851.64172"
     transform="matrix(0.75519725,0.65549761,-0.65549761,0.75519725,0,0)"
     width="1.4340053"
     height="0.89100319"
     id="rect8252"
     style="fill:#abc973" /><rect
     x="2783.5833"
     y="-853.41675"
     transform="matrix(0.75510477,0.65560414,-0.65560414,0.75510477,0,0)"
     width="1.433991"
     height="0.88999438"
     id="rect8254"
     style="fill:#abc973" /><rect
     x="2783.7822"
     y="-856.49518"
     transform="matrix(0.75519725,0.65549761,-0.65549761,0.75519725,0,0)"
     width="1.4340053"
     height="0.8900032"
     id="rect8256"
     style="fill:#abc973" /><rect
     x="2790.272"
     y="-857.20306"
     transform="matrix(0.75510477,0.65560414,-0.65560414,0.75510477,0,0)"
     width="1.433991"
     height="0.88999438"
     id="rect8258"
     style="fill:#abc973" /><rect
     x="2796.906"
     y="-872.41095"
     transform="matrix(0.75510477,0.65560414,-0.65560414,0.75510477,0,0)"
     width="1.433991"
     height="0.88999438"
     id="rect8260"
     style="fill:#abc973" /><rect
     x="2796.9824"
     y="-871.21112"
     transform="matrix(0.75510477,0.65560414,-0.65560414,0.75510477,0,0)"
     width="1.433991"
     height="0.88999438"
     id="rect8262"
     style="fill:#abc973" /><rect
     x="2797.0002"
     y="-869.36383"
     transform="matrix(0.75519725,0.65549761,-0.65549761,0.75519725,0,0)"
     width="1.4340053"
     height="0.8900032"
     id="rect8264"
     style="fill:#abc973" /><rect
     x="2852.0029"
     y="-830.23834"
     transform="matrix(0.76620107,0.6426009,-0.6426009,0.76620107,0,0)"
     width="2.3289967"
     height="2.1309969"
     id="rect8266"
     style="fill:#abc973" /><rect
     x="2852.1814"
     y="-833.01013"
     transform="matrix(0.76615184,0.6426596,-0.6426596,0.76615184,0,0)"
     width="2.3291464"
     height="2.131134"
     id="rect8268"
     style="fill:#abc973" /><rect
     x="2852.0071"
     y="-835.11542"
     transform="matrix(0.76620107,0.6426009,-0.6426009,0.76620107,0,0)"
     width="2.3289967"
     height="2.1309969"
     id="rect8270"
     style="fill:#abc973" /><rect
     x="2852.0049"
     y="-837.58679"
     transform="matrix(0.76620107,0.6426009,-0.6426009,0.76620107,0,0)"
     width="2.3289967"
     height="2.1309969"
     id="rect8272"
     style="fill:#abc973" /><rect
     x="2851.9829"
     y="-840.0423"
     transform="matrix(0.76620107,0.6426009,-0.6426009,0.76620107,0,0)"
     width="2.3289967"
     height="2.1309969"
     id="rect8274"
     style="fill:#abc973" /><rect
     x="2851.9807"
     y="-842.51483"
     transform="matrix(0.76620107,0.6426009,-0.6426009,0.76620107,0,0)"
     width="2.3289967"
     height="2.1309969"
     id="rect8276"
     style="fill:#abc973" /><rect
     x="2851.9866"
     y="-844.92041"
     transform="matrix(0.76620107,0.6426009,-0.6426009,0.76620107,0,0)"
     width="2.3289967"
     height="2.1309969"
     id="rect8278"
     style="fill:#abc973" /><rect
     x="2851.9849"
     y="-847.39178"
     transform="matrix(0.76620107,0.6426009,-0.6426009,0.76620107,0,0)"
     width="2.3289967"
     height="2.1309969"
     id="rect8280"
     style="fill:#abc973" /><rect
     x="2851.9792"
     y="-849.82727"
     transform="matrix(0.76620107,0.6426009,-0.6426009,0.76620107,0,0)"
     width="2.3289967"
     height="2.1309969"
     id="rect8282"
     style="fill:#abc973" /><rect
     x="2851.9775"
     y="-852.29968"
     transform="matrix(0.76620107,0.6426009,-0.6426009,0.76620107,0,0)"
     width="2.3289967"
     height="2.1309969"
     id="rect8284"
     style="fill:#abc973" /><rect
     x="2851.9841"
     y="-854.70526"
     transform="matrix(0.76620107,0.6426009,-0.6426009,0.76620107,0,0)"
     width="2.3289967"
     height="2.1309969"
     id="rect8286"
     style="fill:#abc973" /><rect
     x="2848.2026"
     y="-874.37537"
     transform="matrix(0.76318142,0.64618427,-0.64618427,0.76318142,0,0)"
     width="2.3290567"
     height="2.131052"
     id="rect8288"
     style="fill:#abc973" /><rect
     x="2848.0637"
     y="-877.27777"
     transform="matrix(0.76309035,0.64629182,-0.64629182,0.76309035,0,0)"
     width="2.3290296"
     height="2.131027"
     id="rect8290"
     style="fill:#abc973" /><rect
     x="2848.3579"
     y="-878.88257"
     transform="matrix(0.76327248,0.64607671,-0.64607671,0.76327248,0,0)"
     width="2.3290839"
     height="2.1310768"
     id="rect8292"
     style="fill:#abc973" /><rect
     x="2848.2019"
     y="-881.68848"
     transform="matrix(0.76318142,0.64618427,-0.64618427,0.76318142,0,0)"
     width="2.3290567"
     height="2.131052"
     id="rect8294"
     style="fill:#abc973" /><rect
     x="2848.2793"
     y="-884.46204"
     transform="matrix(0.76318142,0.64618427,-0.64618427,0.76318142,0,0)"
     width="2.3290567"
     height="2.131052"
     id="rect8296"
     style="fill:#abc973" /><rect
     x="2862.3574"
     y="-883.58496"
     transform="matrix(0.76318142,0.64618427,-0.64618427,0.76318142,0,0)"
     width="2.3290567"
     height="2.131052"
     id="rect8298"
     style="fill:#abc973" /><rect
     x="2862.3447"
     y="-886.07404"
     transform="matrix(0.76318142,0.64618427,-0.64618427,0.76318142,0,0)"
     width="2.3290567"
     height="2.131052"
     id="rect8300"
     style="fill:#abc973" /><rect
     x="2862.3318"
     y="-888.56207"
     transform="matrix(0.76318142,0.64618427,-0.64618427,0.76318142,0,0)"
     width="2.3290567"
     height="2.131052"
     id="rect8302"
     style="fill:#abc973" /><rect
     x="2848.1394"
     y="-887.36475"
     transform="matrix(0.76309035,0.64629182,-0.64629182,0.76309035,0,0)"
     width="2.3290296"
     height="2.131027"
     id="rect8304"
     style="fill:#abc973" /><rect
     x="2848.436"
     y="-888.96936"
     transform="matrix(0.76327248,0.64607671,-0.64607671,0.76327248,0,0)"
     width="2.3290839"
     height="2.1310768"
     id="rect8306"
     style="fill:#abc973" /><rect
     x="2848.2786"
     y="-891.77539"
     transform="matrix(0.76318142,0.64618427,-0.64618427,0.76318142,0,0)"
     width="2.3290567"
     height="2.131052"
     id="rect8308"
     style="fill:#abc973" /><rect
     x="2861.301"
     y="-916.32812"
     transform="matrix(0.76318142,0.64618427,-0.64618427,0.76318142,0,0)"
     width="2.3290567"
     height="2.131052"
     id="rect8310"
     style="fill:#abc973" /><rect
     x="2861.2883"
     y="-918.81689"
     transform="matrix(0.76318142,0.64618427,-0.64618427,0.76318142,0,0)"
     width="2.3290567"
     height="2.131052"
     id="rect8312"
     style="fill:#abc973" /><rect
     x="2861.3499"
     y="-921.35034"
     transform="matrix(0.76318142,0.64618427,-0.64618427,0.76318142,0,0)"
     width="2.3290567"
     height="2.131052"
     id="rect8314"
     style="fill:#abc973" /><rect
     x="2861.3359"
     y="-923.83807"
     transform="matrix(0.76318142,0.64618427,-0.64618427,0.76318142,0,0)"
     width="2.3290567"
     height="2.131052"
     id="rect8316"
     style="fill:#abc973" /><rect
     x="2859.8242"
     y="-926.28772"
     transform="matrix(0.76318142,0.64618427,-0.64618427,0.76318142,0,0)"
     width="2.3290567"
     height="2.131052"
     id="rect8318"
     style="fill:#abc973" /><rect
     x="2862.4324"
     y="-926.44611"
     transform="matrix(0.76318142,0.64618427,-0.64618427,0.76318142,0,0)"
     width="2.3290567"
     height="2.131052"
     id="rect8320"
     style="fill:#abc973" /><rect
     x="2865.064"
     y="-926.62469"
     transform="matrix(0.76318142,0.64618427,-0.64618427,0.76318142,0,0)"
     width="2.3290567"
     height="2.306056"
     id="rect8322"
     style="fill:#abc973" /><rect
     x="2848.2361"
     y="-902.3208"
     transform="matrix(0.76318142,0.64618427,-0.64618427,0.76318142,0,0)"
     width="2.3290567"
     height="2.131052"
     id="rect8324"
     style="fill:#abc973" /><rect
     x="2848.3054"
     y="-917.80096"
     transform="matrix(0.76318142,0.64618427,-0.64618427,0.76318142,0,0)"
     width="2.3290567"
     height="2.131052"
     id="rect8326"
     style="fill:#abc973" /><rect
     x="2848.7507"
     y="-894.56384"
     transform="matrix(0.76350386,0.64580326,-0.64580326,0.76350386,0,0)"
     width="2.3289883"
     height="3.1399841"
     id="rect8328"
     style="fill:#abc973" /><rect
     x="2848.7676"
     y="-907.45447"
     transform="matrix(0.76350386,0.64580326,-0.64580326,0.76350386,0,0)"
     width="2.3289883"
     height="3.1399841"
     id="rect8330"
     style="fill:#abc973" /><polygon
     points="2770.016,1156.216 2767.332,1153.944 2769.364,1151.55 2772.042,1153.82 "
     id="polygon8332"
     style="fill:#abc973" /><polygon
     points="2774.087,1140.509 2771.403,1138.237 2773.436,1135.843 2776.114,1138.113 "
     id="polygon8334"
     style="fill:#abc973" /><polygon
     points="2771.39,1138.176 2768.706,1135.904 2770.738,1133.51 2773.417,1135.78 "
     id="polygon8336"
     style="fill:#abc973" /><polygon
     points="2769.021,1141.282 2766.338,1139.011 2768.732,1136.189 2771.411,1138.458 "
     id="polygon8338"
     style="fill:#abc973" /><rect
     x="2862.0686"
     y="-909.40161"
     transform="matrix(0.76350386,0.64580326,-0.64580326,0.76350386,0,0)"
     width="2.1089892"
     height="3.1399841"
     id="rect8340"
     style="fill:#abc973" /><rect
     x="2864.4155"
     y="-909.39532"
     transform="matrix(0.76350386,0.64580326,-0.64580326,0.76350386,0,0)"
     width="2.1089892"
     height="3.1399841"
     id="rect8342"
     style="fill:#abc973" /><rect
     x="2866.6406"
     y="-909.70984"
     transform="matrix(0.76336353,0.64596914,-0.64596914,0.76336353,0,0)"
     width="2.1081007"
     height="3.1401501"
     id="rect8344"
     style="fill:#abc973" /><polygon
     points="2763.183,1147.999 2761.404,1146.496 2765.205,1142.013 2766.979,1143.517 "
     id="polygon8346"
     style="fill:#abc973" /><rect
     x="2862.8889"
     y="-874.74658"
     transform="matrix(0.76350386,0.64580326,-0.64580326,0.76350386,0,0)"
     width="2.3289883"
     height="3.1399841"
     id="rect8348"
     style="fill:#abc973" /><polygon
     points="2752.706,1182.077 2750.928,1180.573 2753.701,1177.304 2755.474,1178.807 "
     id="polygon8350"
     style="fill:#abc973" /><rect
     x="2862.2419"
     y="-895.8786"
     transform="matrix(0.76318142,0.64618427,-0.64618427,0.76318142,0,0)"
     width="2.3290567"
     height="2.131052"
     id="rect8352"
     style="fill:#abc973" /><rect
     x="2862.2295"
     y="-898.36646"
     transform="matrix(0.76318142,0.64618427,-0.64618427,0.76318142,0,0)"
     width="2.3290567"
     height="2.131052"
     id="rect8354"
     style="fill:#abc973" /><rect
     x="2862.2168"
     y="-901.55829"
     transform="matrix(0.76318142,0.64618427,-0.64618427,0.76318142,0,0)"
     width="2.3290567"
     height="2.8350689"
     id="rect8356"
     style="fill:#abc973" /><polygon
     points="2760.561,1172.621 2758.782,1171.117 2761.555,1167.848 2763.328,1169.351 "
     id="polygon8358"
     style="fill:#abc973" /><rect
     x="2848.7068"
     y="-898.28186"
     transform="matrix(0.76350386,0.64580326,-0.64580326,0.76350386,0,0)"
     width="2.3289883"
     height="3.1399841"
     id="rect8360"
     style="fill:#abc973" /><rect
     x="2866.3923"
     y="-830.38422"
     transform="matrix(0.76620107,0.6426009,-0.6426009,0.76620107,0,0)"
     width="2.3289967"
     height="2.1309969"
     id="rect8362"
     style="fill:#abc973" /><rect
     x="2866.3906"
     y="-832.85559"
     transform="matrix(0.76620107,0.6426009,-0.6426009,0.76620107,0,0)"
     width="2.3289967"
     height="2.1309969"
     id="rect8364"
     style="fill:#abc973" /><rect
     x="2866.384"
     y="-835.2912"
     transform="matrix(0.76620107,0.6426009,-0.6426009,0.76620107,0,0)"
     width="2.3289967"
     height="2.1309969"
     id="rect8366"
     style="fill:#abc973" /><rect
     x="2866.3818"
     y="-837.76373"
     transform="matrix(0.76620107,0.6426009,-0.6426009,0.76620107,0,0)"
     width="2.3289967"
     height="2.1309969"
     id="rect8368"
     style="fill:#abc973" /><rect
     x="2866.3889"
     y="-840.16913"
     transform="matrix(0.76620107,0.6426009,-0.6426009,0.76620107,0,0)"
     width="2.3289967"
     height="2.1309969"
     id="rect8370"
     style="fill:#abc973" /><rect
     x="2866.354"
     y="-842.66486"
     transform="matrix(0.76620107,0.6426009,-0.6426009,0.76620107,0,0)"
     width="2.3289967"
     height="2.1309969"
     id="rect8372"
     style="fill:#abc973" /><rect
     x="2866.3508"
     y="-845.13629"
     transform="matrix(0.76620107,0.6426009,-0.6426009,0.76620107,0,0)"
     width="2.3289967"
     height="2.1309969"
     id="rect8374"
     style="fill:#abc973" /><rect
     x="2866.3455"
     y="-847.57172"
     transform="matrix(0.76620107,0.6426009,-0.6426009,0.76620107,0,0)"
     width="2.3289967"
     height="2.1309969"
     id="rect8376"
     style="fill:#abc973" /><rect
     x="2866.3435"
     y="-850.04437"
     transform="matrix(0.76620107,0.6426009,-0.6426009,0.76620107,0,0)"
     width="2.3289967"
     height="2.1309969"
     id="rect8378"
     style="fill:#abc973" /><rect
     x="2866.3506"
     y="-852.44977"
     transform="matrix(0.76620107,0.6426009,-0.6426009,0.76620107,0,0)"
     width="2.3289967"
     height="2.1309969"
     id="rect8380"
     style="fill:#abc973" /><rect
     x="2866.3118"
     y="-854.8905"
     transform="matrix(0.76620107,0.6426009,-0.6426009,0.76620107,0,0)"
     width="2.3289967"
     height="2.1309969"
     id="rect8382"
     style="fill:#abc973" /><rect
     x="2797.0251"
     y="-868.87543"
     transform="matrix(0.75510477,0.65560414,-0.65560414,0.75510477,0,0)"
     width="1.433991"
     height="0.88999438"
     id="rect8384"
     style="fill:#abc973" /><rect
     x="2797.0454"
     y="-867.76361"
     transform="matrix(0.75510477,0.65560414,-0.65560414,0.75510477,0,0)"
     width="1.433991"
     height="0.88999438"
     id="rect8386"
     style="fill:#abc973" /><rect
     x="2797.0413"
     y="-866.57281"
     transform="matrix(0.75510477,0.65560414,-0.65560414,0.75510477,0,0)"
     width="1.433991"
     height="0.88999438"
     id="rect8388"
     style="fill:#abc973" /><rect
     x="2797"
     y="-865.43286"
     transform="matrix(0.75510477,0.65560414,-0.65560414,0.75510477,0,0)"
     width="1.433991"
     height="0.88999438"
     id="rect8390"
     style="fill:#abc973" /><rect
     x="2797.1104"
     y="-864.26172"
     transform="matrix(0.75510477,0.65560414,-0.65560414,0.75510477,0,0)"
     width="1.433991"
     height="0.88999438"
     id="rect8392"
     style="fill:#abc973" /><rect
     x="2797.0361"
     y="-863.12054"
     transform="matrix(0.75510477,0.65560414,-0.65560414,0.75510477,0,0)"
     width="1.433991"
     height="0.88999438"
     id="rect8394"
     style="fill:#abc973" /><rect
     x="2797.0273"
     y="-862.04193"
     transform="matrix(0.75510477,0.65560414,-0.65560414,0.75510477,0,0)"
     width="1.433991"
     height="0.88999438"
     id="rect8396"
     style="fill:#abc973" /><rect
     x="2796.9907"
     y="-860.88782"
     transform="matrix(0.75510477,0.65560414,-0.65560414,0.75510477,0,0)"
     width="1.433991"
     height="0.88999438"
     id="rect8398"
     style="fill:#abc973" /><rect
     x="2796.9587"
     y="-859.73743"
     transform="matrix(0.75510477,0.65560414,-0.65560414,0.75510477,0,0)"
     width="1.433991"
     height="0.88999438"
     id="rect8400"
     style="fill:#abc973" /><rect
     x="2796.8914"
     y="-858.53912"
     transform="matrix(0.75510477,0.65560414,-0.65560414,0.75510477,0,0)"
     width="1.433991"
     height="0.88999438"
     id="rect8402"
     style="fill:#abc973" /><rect
     x="2796.5618"
     y="-857.95746"
     transform="matrix(0.75491976,0.65581717,-0.65581717,0.75491976,0,0)"
     width="1.4329624"
     height="0.88997668"
     id="rect8404"
     style="fill:#abc973" /><rect
     x="2790.2974"
     y="-858.40918"
     transform="matrix(0.75510477,0.65560414,-0.65560414,0.75510477,0,0)"
     width="1.433991"
     height="0.88999438"
     id="rect8406"
     style="fill:#abc973" /><rect
     x="2790.3354"
     y="-859.60089"
     transform="matrix(0.75510477,0.65560414,-0.65560414,0.75510477,0,0)"
     width="1.433991"
     height="0.88999438"
     id="rect8408"
     style="fill:#abc973" /><rect
     x="2790.3772"
     y="-860.74152"
     transform="matrix(0.75510477,0.65560414,-0.65560414,0.75510477,0,0)"
     width="1.433991"
     height="0.88999438"
     id="rect8410"
     style="fill:#abc973" /><rect
     x="2790.3291"
     y="-861.88568"
     transform="matrix(0.75510477,0.65560414,-0.65560414,0.75510477,0,0)"
     width="1.433991"
     height="0.88999438"
     id="rect8412"
     style="fill:#abc973" /><rect
     x="2790.0146"
     y="-863.71533"
     transform="matrix(0.75491976,0.65581717,-0.65581717,0.75491976,0,0)"
     width="1.4329624"
     height="0.88997668"
     id="rect8414"
     style="fill:#abc973" /><rect
     x="2790.3835"
     y="-864.24481"
     transform="matrix(0.75510477,0.65560414,-0.65560414,0.75510477,0,0)"
     width="1.433991"
     height="0.88999438"
     id="rect8416"
     style="fill:#abc973" /><rect
     x="2790.3357"
     y="-865.38947"
     transform="matrix(0.75510477,0.65560414,-0.65560414,0.75510477,0,0)"
     width="1.433991"
     height="0.88999438"
     id="rect8418"
     style="fill:#abc973" /><rect
     x="2790.2246"
     y="-866.5127"
     transform="matrix(0.75510477,0.65560414,-0.65560414,0.75510477,0,0)"
     width="1.433991"
     height="0.88999438"
     id="rect8420"
     style="fill:#abc973" /><rect
     x="2790.2224"
     y="-867.64252"
     transform="matrix(0.75510477,0.65560414,-0.65560414,0.75510477,0,0)"
     width="1.433991"
     height="0.88999438"
     id="rect8422"
     style="fill:#abc973" /><rect
     x="2790.2664"
     y="-868.7785"
     transform="matrix(0.75510477,0.65560414,-0.65560414,0.75510477,0,0)"
     width="1.433991"
     height="0.88999438"
     id="rect8424"
     style="fill:#abc973" /><rect
     x="2790.2991"
     y="-869.93781"
     transform="matrix(0.75510477,0.65560414,-0.65560414,0.75510477,0,0)"
     width="1.433991"
     height="0.88999438"
     id="rect8426"
     style="fill:#abc973" /><rect
     x="2790.2368"
     y="-871.09802"
     transform="matrix(0.75510477,0.65560414,-0.65560414,0.75510477,0,0)"
     width="1.433991"
     height="0.88999438"
     id="rect8428"
     style="fill:#abc973" /><rect
     x="2790.2573"
     y="-872.30176"
     transform="matrix(0.75510477,0.65560414,-0.65560414,0.75510477,0,0)"
     width="1.433991"
     height="0.88999438"
     id="rect8430"
     style="fill:#abc973" /><rect
     x="2783.7324"
     y="-858.30383"
     transform="matrix(0.75510477,0.65560414,-0.65560414,0.75510477,0,0)"
     width="1.433991"
     height="0.88999438"
     id="rect8432"
     style="fill:#abc973" /><rect
     x="2783.7407"
     y="-859.47015"
     transform="matrix(0.75510477,0.65560414,-0.65560414,0.75510477,0,0)"
     width="1.433991"
     height="0.88999438"
     id="rect8434"
     style="fill:#abc973" /><rect
     x="2783.8362"
     y="-860.65735"
     transform="matrix(0.75510477,0.65560414,-0.65560414,0.75510477,0,0)"
     width="1.433991"
     height="0.88999438"
     id="rect8436"
     style="fill:#abc973" /><rect
     x="2783.8362"
     y="-861.84369"
     transform="matrix(0.75510477,0.65560414,-0.65560414,0.75510477,0,0)"
     width="1.433991"
     height="0.88999438"
     id="rect8438"
     style="fill:#abc973" /><rect
     x="2783.8582"
     y="-862.99426"
     transform="matrix(0.75510477,0.65560414,-0.65560414,0.75510477,0,0)"
     width="1.433991"
     height="0.88999438"
     id="rect8440"
     style="fill:#abc973" /><rect
     x="2783.8262"
     y="-864.17969"
     transform="matrix(0.75510477,0.65560414,-0.65560414,0.75510477,0,0)"
     width="1.433991"
     height="0.88999438"
     id="rect8442"
     style="fill:#abc973" /><rect
     x="2783.8259"
     y="-865.36627"
     transform="matrix(0.75510477,0.65560414,-0.65560414,0.75510477,0,0)"
     width="1.433991"
     height="0.88999438"
     id="rect8444"
     style="fill:#abc973" /><rect
     x="2783.8733"
     y="-865.92474"
     transform="matrix(0.75519725,0.65549761,-0.65549761,0.75519725,0,0)"
     width="1.4340053"
     height="0.8900032"
     id="rect8446"
     style="fill:#abc973" /><rect
     x="2783.8306"
     y="-867.68707"
     transform="matrix(0.75510477,0.65560414,-0.65560414,0.75510477,0,0)"
     width="1.433991"
     height="0.88999438"
     id="rect8448"
     style="fill:#abc973" /><rect
     x="2783.8293"
     y="-868.87372"
     transform="matrix(0.75510477,0.65560414,-0.65560414,0.75510477,0,0)"
     width="1.433991"
     height="0.88999438"
     id="rect8450"
     style="fill:#abc973" /><rect
     x="2783.8379"
     y="-870.03986"
     transform="matrix(0.75510477,0.65560414,-0.65560414,0.75510477,0,0)"
     width="1.433991"
     height="0.88999438"
     id="rect8452"
     style="fill:#abc973" /><rect
     x="2783.8477"
     y="-871.17871"
     transform="matrix(0.75510477,0.65560414,-0.65560414,0.75510477,0,0)"
     width="1.433991"
     height="0.88999438"
     id="rect8454"
     style="fill:#abc973" /><rect
     x="2783.5068"
     y="-872.98596"
     transform="matrix(0.75491976,0.65581717,-0.65581717,0.75491976,0,0)"
     width="1.4329624"
     height="0.88997668"
     id="rect8456"
     style="fill:#abc973" /><rect
     x="2783.7783"
     y="-875.78766"
     transform="matrix(0.75510477,0.65560414,-0.65560414,0.75510477,0,0)"
     width="1.433991"
     height="0.88999438"
     id="rect8458"
     style="fill:#abc973" /><rect
     x="2783.7866"
     y="-876.9541"
     transform="matrix(0.75510477,0.65560414,-0.65560414,0.75510477,0,0)"
     width="1.433991"
     height="0.88999438"
     id="rect8460"
     style="fill:#abc973" /><rect
     x="2783.7952"
     y="-878.0929"
     transform="matrix(0.75510477,0.65560414,-0.65560414,0.75510477,0,0)"
     width="1.433991"
     height="0.88999438"
     id="rect8462"
     style="fill:#abc973" /><rect
     x="2783.4529"
     y="-879.89874"
     transform="matrix(0.75491976,0.65581717,-0.65581717,0.75491976,0,0)"
     width="1.4329624"
     height="0.88997668"
     id="rect8464"
     style="fill:#abc973" /><rect
     x="2783.8665"
     y="-880.37311"
     transform="matrix(0.75510477,0.65560414,-0.65560414,0.75510477,0,0)"
     width="1.433991"
     height="0.88999438"
     id="rect8466"
     style="fill:#abc973" /><rect
     x="2783.875"
     y="-881.53925"
     transform="matrix(0.75510477,0.65560414,-0.65560414,0.75510477,0,0)"
     width="1.433991"
     height="0.88999438"
     id="rect8468"
     style="fill:#abc973" /><rect
     x="2783.8835"
     y="-882.67816"
     transform="matrix(0.75510477,0.65560414,-0.65560414,0.75510477,0,0)"
     width="1.433991"
     height="0.88999438"
     id="rect8470"
     style="fill:#abc973" /><rect
     x="2783.5403"
     y="-884.48376"
     transform="matrix(0.75491976,0.65581717,-0.65581717,0.75491976,0,0)"
     width="1.4329624"
     height="0.88997668"
     id="rect8472"
     style="fill:#abc973" /><rect
     x="2783.9548"
     y="-884.95825"
     transform="matrix(0.75510477,0.65560414,-0.65560414,0.75510477,0,0)"
     width="1.433991"
     height="0.88999438"
     id="rect8474"
     style="fill:#abc973" /><rect
     x="2783.9634"
     y="-886.12445"
     transform="matrix(0.75510477,0.65560414,-0.65560414,0.75510477,0,0)"
     width="1.433991"
     height="0.88999438"
     id="rect8476"
     style="fill:#abc973" /><rect
     x="2783.9719"
     y="-887.26318"
     transform="matrix(0.75510477,0.65560414,-0.65560414,0.75510477,0,0)"
     width="1.433991"
     height="0.88999438"
     id="rect8478"
     style="fill:#abc973" /><rect
     x="2783.6282"
     y="-889.06964"
     transform="matrix(0.75491976,0.65581717,-0.65581717,0.75491976,0,0)"
     width="1.4329624"
     height="0.88997668"
     id="rect8480"
     style="fill:#abc973" /><rect
     x="2784.0432"
     y="-889.54449"
     transform="matrix(0.75510477,0.65560414,-0.65560414,0.75510477,0,0)"
     width="1.433991"
     height="0.88999438"
     id="rect8482"
     style="fill:#abc973" /><rect
     x="2784.0518"
     y="-890.71057"
     transform="matrix(0.75510477,0.65560414,-0.65560414,0.75510477,0,0)"
     width="1.433991"
     height="0.88999438"
     id="rect8484"
     style="fill:#abc973" /><rect
     x="2784.0613"
     y="-891.84937"
     transform="matrix(0.75510477,0.65560414,-0.65560414,0.75510477,0,0)"
     width="1.433991"
     height="0.88999438"
     id="rect8486"
     style="fill:#abc973" /><rect
     x="2783.991"
     y="-896.59735"
     transform="matrix(0.75491976,0.65581717,-0.65581717,0.75491976,0,0)"
     width="1.4329624"
     height="0.88997668"
     id="rect8488"
     style="fill:#abc973" /><rect
     x="2783.9661"
     y="-897.74384"
     transform="matrix(0.75491976,0.65581717,-0.65581717,0.75491976,0,0)"
     width="1.4329624"
     height="0.88997668"
     id="rect8490"
     style="fill:#abc973" /><rect
     x="2784.0154"
     y="-898.95282"
     transform="matrix(0.75491976,0.65581717,-0.65581717,0.75491976,0,0)"
     width="1.4329624"
     height="0.88997668"
     id="rect8492"
     style="fill:#abc973" /><rect
     x="2789.8816"
     y="-896.84442"
     transform="matrix(0.75491976,0.65581717,-0.65581717,0.75491976,0,0)"
     width="1.4329624"
     height="0.88997668"
     id="rect8494"
     style="fill:#abc973" /><rect
     x="2789.4016"
     y="-894.09619"
     transform="matrix(0.75491976,0.65581717,-0.65581717,0.75491976,0,0)"
     width="1.4329624"
     height="0.88997668"
     id="rect8496"
     style="fill:#abc973" /><rect
     x="2789.1699"
     y="-892.93414"
     transform="matrix(0.75491976,0.65581717,-0.65581717,0.75491976,0,0)"
     width="1.4329624"
     height="0.88997668"
     id="rect8498"
     style="fill:#abc973" /><rect
     x="2789.0476"
     y="-891.74054"
     transform="matrix(0.75491976,0.65581717,-0.65581717,0.75491976,0,0)"
     width="1.4329624"
     height="0.88997668"
     id="rect8500"
     style="fill:#abc973" /><rect
     x="2788.8491"
     y="-890.53925"
     transform="matrix(0.75491976,0.65581717,-0.65581717,0.75491976,0,0)"
     width="1.4329624"
     height="0.88997668"
     id="rect8502"
     style="fill:#abc973" /><rect
     x="2788.6404"
     y="-889.38678"
     transform="matrix(0.75491976,0.65581717,-0.65581717,0.75491976,0,0)"
     width="1.4329624"
     height="0.88997668"
     id="rect8504"
     style="fill:#abc973" /><rect
     x="2788.6475"
     y="-888.229"
     transform="matrix(0.75491976,0.65581717,-0.65581717,0.75491976,0,0)"
     width="1.4329624"
     height="0.88997668"
     id="rect8506"
     style="fill:#abc973" /><rect
     x="2788.5178"
     y="-887.06171"
     transform="matrix(0.75491976,0.65581717,-0.65581717,0.75491976,0,0)"
     width="1.4329624"
     height="0.88997668"
     id="rect8508"
     style="fill:#abc973" /><rect
     x="2788.6477"
     y="-885.87817"
     transform="matrix(0.75491976,0.65581717,-0.65581717,0.75491976,0,0)"
     width="1.4329624"
     height="0.88997668"
     id="rect8510"
     style="fill:#abc973" /><rect
     x="2788.8528"
     y="-884.70251"
     transform="matrix(0.75491976,0.65581717,-0.65581717,0.75491976,0,0)"
     width="1.4329624"
     height="0.88997668"
     id="rect8512"
     style="fill:#abc973" /><rect
     x="2789.0801"
     y="-883.50098"
     transform="matrix(0.75491976,0.65581717,-0.65581717,0.75491976,0,0)"
     width="1.4329624"
     height="0.88997668"
     id="rect8514"
     style="fill:#abc973" /><rect
     x="2789.6694"
     y="-882.25562"
     transform="matrix(0.75491976,0.65581717,-0.65581717,0.75491976,0,0)"
     width="1.4329624"
     height="0.88997668"
     id="rect8516"
     style="fill:#abc973" /><rect
     x="2789.0847"
     y="-882.35431"
     transform="matrix(0.75491976,0.65581717,-0.65581717,0.75491976,0,0)"
     width="1.4329624"
     height="0.88997668"
     id="rect8518"
     style="fill:#abc973" /><rect
     x="2789.0657"
     y="-881.22925"
     transform="matrix(0.75491976,0.65581717,-0.65581717,0.75491976,0,0)"
     width="1.4329624"
     height="0.88997668"
     id="rect8520"
     style="fill:#abc973" /><rect
     x="2788.9504"
     y="-880.06097"
     transform="matrix(0.75491976,0.65581717,-0.65581717,0.75491976,0,0)"
     width="1.4329624"
     height="0.88997668"
     id="rect8522"
     style="fill:#abc973" /><rect
     x="2788.7002"
     y="-878.96515"
     transform="matrix(0.75491976,0.65581717,-0.65581717,0.75491976,0,0)"
     width="1.4329624"
     height="0.88997668"
     id="rect8524"
     style="fill:#abc973" /><rect
     x="2788.6177"
     y="-877.78198"
     transform="matrix(0.75491976,0.65581717,-0.65581717,0.75491976,0,0)"
     width="1.4329624"
     height="0.88997668"
     id="rect8526"
     style="fill:#abc973" /><rect
     x="2788.7507"
     y="-876.66406"
     transform="matrix(0.75491976,0.65581717,-0.65581717,0.75491976,0,0)"
     width="1.4329624"
     height="0.88997668"
     id="rect8528"
     style="fill:#abc973" /><rect
     x="2585.2925"
     y="1371.4352"
     transform="matrix(0.99697693,-0.0776982,0.0776982,0.99697693,0,0)"
     width="1.4340332"
     height="0.88902056"
     id="rect8530"
     style="fill:#abc973" /><rect
     x="2299.6328"
     y="1811.4548"
     transform="matrix(0.96720395,-0.25400104,0.25400104,0.96720395,0,0)"
     width="1.4339942"
     height="0.88999635"
     id="rect8532"
     style="fill:#abc973" /><rect
     x="1182.2367"
     y="2680.3394"
     transform="matrix(0.73546249,-0.67756544,0.67756544,0.73546249,0,0)"
     width="1.433073"
     height="0.88904536"
     id="rect8534"
     style="fill:#abc973" /><rect
     x="1182.3569"
     y="2681.5176"
     transform="matrix(0.73546249,-0.67756544,0.67756544,0.73546249,0,0)"
     width="1.433073"
     height="0.88904536"
     id="rect8536"
     style="fill:#abc973" /><rect
     x="1182.5654"
     y="2682.6716"
     transform="matrix(0.73546249,-0.67756544,0.67756544,0.73546249,0,0)"
     width="1.433073"
     height="0.88904536"
     id="rect8538"
     style="fill:#abc973" /><rect
     x="702.87195"
     y="2847.886"
     transform="matrix(0.60779524,-0.79409379,0.79409379,0.60779524,0,0)"
     width="1.4330112"
     height="0.89000696"
     id="rect8540"
     style="fill:#abc973" /><rect
     x="2789.8569"
     y="-897.99091"
     transform="matrix(0.75491976,0.65581717,-0.65581717,0.75491976,0,0)"
     width="1.4329624"
     height="0.88997668"
     id="rect8542"
     style="fill:#abc973" /><rect
     x="2789.9062"
     y="-899.19891"
     transform="matrix(0.75491976,0.65581717,-0.65581717,0.75491976,0,0)"
     width="1.4329624"
     height="0.88997668"
     id="rect8544"
     style="fill:#abc973" /><rect
     x="2789.9712"
     y="-900.35187"
     transform="matrix(0.75491976,0.65581717,-0.65581717,0.75491976,0,0)"
     width="1.4329624"
     height="0.88997668"
     id="rect8546"
     style="fill:#abc973" /><rect
     x="2789.9568"
     y="-901.55133"
     transform="matrix(0.75491976,0.65581717,-0.65581717,0.75491976,0,0)"
     width="1.4329624"
     height="0.88997668"
     id="rect8548"
     style="fill:#abc973" /><rect
     x="2789.9275"
     y="-902.68347"
     transform="matrix(0.75491976,0.65581717,-0.65581717,0.75491976,0,0)"
     width="1.4329624"
     height="0.88997668"
     id="rect8550"
     style="fill:#abc973" /><rect
     x="2789.6667"
     y="-903.86194"
     transform="matrix(0.75491976,0.65581717,-0.65581717,0.75491976,0,0)"
     width="1.4329624"
     height="0.88997668"
     id="rect8552"
     style="fill:#abc973" /><rect
     x="2789.282"
     y="-905.10663"
     transform="matrix(0.75491976,0.65581717,-0.65581717,0.75491976,0,0)"
     width="1.4329624"
     height="0.88997668"
     id="rect8554"
     style="fill:#abc973" /><rect
     x="2789.0591"
     y="-906.26398"
     transform="matrix(0.75491976,0.65581717,-0.65581717,0.75491976,0,0)"
     width="1.4329624"
     height="0.88997668"
     id="rect8556"
     style="fill:#abc973" /><rect
     x="2788.7759"
     y="-907.42621"
     transform="matrix(0.75491976,0.65581717,-0.65581717,0.75491976,0,0)"
     width="1.4329624"
     height="0.88997668"
     id="rect8558"
     style="fill:#abc973" /><rect
     x="2788.4653"
     y="-908.58569"
     transform="matrix(0.75491976,0.65581717,-0.65581717,0.75491976,0,0)"
     width="1.4329624"
     height="0.88997668"
     id="rect8560"
     style="fill:#abc973" /><rect
     x="2788.282"
     y="-909.84058"
     transform="matrix(0.75501227,0.65571066,-0.65571066,0.75501227,0,0)"
     width="1.3919773"
     height="1.2999789"
     id="rect8562"
     style="fill:#abc973" /><rect
     x="2784.0725"
     y="-900.15704"
     transform="matrix(0.75491976,0.65581717,-0.65581717,0.75491976,0,0)"
     width="1.4329624"
     height="0.88997668"
     id="rect8564"
     style="fill:#abc973" /><rect
     x="2784.1475"
     y="-901.27051"
     transform="matrix(0.75491976,0.65581717,-0.65581717,0.75491976,0,0)"
     width="1.4329624"
     height="0.88997668"
     id="rect8566"
     style="fill:#abc973" /><rect
     x="2784.1328"
     y="-902.47089"
     transform="matrix(0.75491976,0.65581717,-0.65581717,0.75491976,0,0)"
     width="1.4329624"
     height="0.88997668"
     id="rect8568"
     style="fill:#abc973" /><rect
     x="2784.1277"
     y="-903.67816"
     transform="matrix(0.75491976,0.65581717,-0.65581717,0.75491976,0,0)"
     width="1.4329624"
     height="0.88997668"
     id="rect8570"
     style="fill:#abc973" /><rect
     x="2784.1252"
     y="-905.37848"
     transform="matrix(0.75477772,0.65598064,-0.65598064,0.75477772,0,0)"
     width="1.4330423"
     height="0.89002627"
     id="rect8572"
     style="fill:#abc973" /><rect
     x="2784.238"
     y="-905.93475"
     transform="matrix(0.75491976,0.65581717,-0.65581717,0.75491976,0,0)"
     width="1.4329624"
     height="0.88997668"
     id="rect8574"
     style="fill:#abc973" /><rect
     x="2784.2234"
     y="-907.13422"
     transform="matrix(0.75491976,0.65581717,-0.65581717,0.75491976,0,0)"
     width="1.4329624"
     height="0.88997668"
     id="rect8576"
     style="fill:#abc973" /><rect
     x="2784.2612"
     y="-908.29236"
     transform="matrix(0.75491976,0.65581717,-0.65581717,0.75491976,0,0)"
     width="1.4329624"
     height="0.88997668"
     id="rect8578"
     style="fill:#abc973" /><rect
     x="2784.2048"
     y="-909.36548"
     transform="matrix(0.75491976,0.65581717,-0.65581717,0.75491976,0,0)"
     width="1.4329624"
     height="0.88997668"
     id="rect8580"
     style="fill:#abc973" /><rect
     x="2836.084"
     y="-722.37555"
     transform="matrix(0.78007796,0.62568232,-0.62568232,0.78007796,0,0)"
     width="1.1670331"
     height="2.3560665"
     id="rect8582"
     style="fill:#abc973" /><rect
     x="2837.363"
     y="-722.29419"
     transform="matrix(0.78007796,0.62568232,-0.62568232,0.78007796,0,0)"
     width="1.1670331"
     height="2.3560665"
     id="rect8584"
     style="fill:#abc973" /><rect
     x="2838.7217"
     y="-722.18909"
     transform="matrix(0.78007796,0.62568232,-0.62568232,0.78007796,0,0)"
     width="1.1670331"
     height="2.3560665"
     id="rect8586"
     style="fill:#abc973" /><rect
     x="2839.9285"
     y="-722.04401"
     transform="matrix(0.78007796,0.62568232,-0.62568232,0.78007796,0,0)"
     width="1.1670331"
     height="2.3560665"
     id="rect8588"
     style="fill:#abc973" /><rect
     x="2841.2581"
     y="-722.21173"
     transform="matrix(0.78007796,0.62568232,-0.62568232,0.78007796,0,0)"
     width="1.1670331"
     height="2.3560665"
     id="rect8590"
     style="fill:#abc973" /><rect
     x="2842.6108"
     y="-722.14807"
     transform="matrix(0.78007796,0.62568232,-0.62568232,0.78007796,0,0)"
     width="1.1670331"
     height="2.3560665"
     id="rect8592"
     style="fill:#abc973" /><rect
     x="2835.7766"
     y="-713.77136"
     transform="matrix(0.78007796,0.62568232,-0.62568232,0.78007796,0,0)"
     width="1.1670331"
     height="2.3560665"
     id="rect8594"
     style="fill:#abc973" /><rect
     x="2837.0088"
     y="-713.73364"
     transform="matrix(0.78007796,0.62568232,-0.62568232,0.78007796,0,0)"
     width="1.1670331"
     height="2.3560665"
     id="rect8596"
     style="fill:#abc973" /><rect
     x="2838.1655"
     y="-713.6792"
     transform="matrix(0.78007796,0.62568232,-0.62568232,0.78007796,0,0)"
     width="1.1670331"
     height="2.3560665"
     id="rect8598"
     style="fill:#abc973" /><rect
     x="2839.3386"
     y="-713.62592"
     transform="matrix(0.78007796,0.62568232,-0.62568232,0.78007796,0,0)"
     width="1.1670331"
     height="2.3560665"
     id="rect8600"
     style="fill:#abc973" /><rect
     x="2820.7209"
     y="-786.229"
     transform="matrix(0.76920398,0.63900331,-0.63900331,0.76920398,0,0)"
     width="1.1659939"
     height="1.7929907"
     id="rect8602"
     style="fill:#abc973" /><rect
     x="2820.7415"
     y="-788.22211"
     transform="matrix(0.76920398,0.63900331,-0.63900331,0.76920398,0,0)"
     width="1.1659939"
     height="1.7929907"
     id="rect8604"
     style="fill:#abc973" /><rect
     x="2820.9866"
     y="-788.99573"
     transform="matrix(0.76943307,0.63872745,-0.63872745,0.76943307,0,0)"
     width="1.1659499"
     height="1.3979399"
     id="rect8606"
     style="fill:#abc973" /><rect
     x="2821.0151"
     y="-790.53845"
     transform="matrix(0.76943307,0.63872745,-0.63872745,0.76943307,0,0)"
     width="1.1659499"
     height="1.3979399"
     id="rect8608"
     style="fill:#abc973" /><rect
     x="2835.116"
     y="-740.26776"
     transform="matrix(0.78007796,0.62568232,-0.62568232,0.78007796,0,0)"
     width="1.1670331"
     height="2.3560665"
     id="rect8610"
     style="fill:#abc973" /><rect
     x="2836.5493"
     y="-740.29254"
     transform="matrix(0.78007796,0.62568232,-0.62568232,0.78007796,0,0)"
     width="1.1670331"
     height="2.3560665"
     id="rect8612"
     style="fill:#abc973" /><rect
     x="2837.8286"
     y="-740.21124"
     transform="matrix(0.78007796,0.62568232,-0.62568232,0.78007796,0,0)"
     width="1.1670331"
     height="2.3560665"
     id="rect8614"
     style="fill:#abc973" /><rect
     x="2839.1873"
     y="-740.1062"
     transform="matrix(0.78007796,0.62568232,-0.62568232,0.78007796,0,0)"
     width="1.1670331"
     height="2.3560665"
     id="rect8616"
     style="fill:#abc973" /><rect
     x="2840.394"
     y="-739.96106"
     transform="matrix(0.78007796,0.62568232,-0.62568232,0.78007796,0,0)"
     width="1.1670331"
     height="2.3560665"
     id="rect8618"
     style="fill:#abc973" /><rect
     x="2841.7234"
     y="-740.12897"
     transform="matrix(0.78007796,0.62568232,-0.62568232,0.78007796,0,0)"
     width="1.1670331"
     height="2.3560665"
     id="rect8620"
     style="fill:#abc973" /><rect
     x="2843.0759"
     y="-740.06519"
     transform="matrix(0.78007796,0.62568232,-0.62568232,0.78007796,0,0)"
     width="1.1670331"
     height="2.3560665"
     id="rect8622"
     style="fill:#abc973" /><rect
     x="2821.0012"
     y="-796.94452"
     transform="matrix(0.76920398,0.63900331,-0.63900331,0.76920398,0,0)"
     width="1.1659939"
     height="1.7929907"
     id="rect8624"
     style="fill:#abc973" /><rect
     x="2821.0217"
     y="-798.93854"
     transform="matrix(0.76920398,0.63900331,-0.63900331,0.76920398,0,0)"
     width="1.1659939"
     height="1.7929907"
     id="rect8626"
     style="fill:#abc973" /><rect
     x="2821.2712"
     y="-799.71185"
     transform="matrix(0.76943307,0.63872745,-0.63872745,0.76943307,0,0)"
     width="1.1659499"
     height="1.3979399"
     id="rect8628"
     style="fill:#abc973" /><rect
     x="2821.2986"
     y="-801.25348"
     transform="matrix(0.76943307,0.63872745,-0.63872745,0.76943307,0,0)"
     width="1.1659499"
     height="1.3979399"
     id="rect8630"
     style="fill:#abc973" /><rect
     x="2835.2651"
     y="-751.75922"
     transform="matrix(0.77990202,0.62590162,-0.62590162,0.77990202,0,0)"
     width="1.165997"
     height="2.3559937"
     id="rect8632"
     style="fill:#abc973" /><rect
     x="2837.0142"
     y="-751.00275"
     transform="matrix(0.78007796,0.62568232,-0.62568232,0.78007796,0,0)"
     width="1.1670331"
     height="2.3560665"
     id="rect8634"
     style="fill:#abc973" /><rect
     x="2838.2932"
     y="-750.92157"
     transform="matrix(0.78007796,0.62568232,-0.62568232,0.78007796,0,0)"
     width="1.1670331"
     height="2.3560665"
     id="rect8636"
     style="fill:#abc973" /><rect
     x="2839.6531"
     y="-750.81641"
     transform="matrix(0.78007796,0.62568232,-0.62568232,0.78007796,0,0)"
     width="1.1670331"
     height="2.3560665"
     id="rect8638"
     style="fill:#abc973" /><rect
     x="2840.8586"
     y="-750.67133"
     transform="matrix(0.78007796,0.62568232,-0.62568232,0.78007796,0,0)"
     width="1.1670331"
     height="2.3560665"
     id="rect8640"
     style="fill:#abc973" /><rect
     x="2842.1885"
     y="-750.83911"
     transform="matrix(0.78007796,0.62568232,-0.62568232,0.78007796,0,0)"
     width="1.1670331"
     height="2.3560665"
     id="rect8642"
     style="fill:#abc973" /><rect
     x="2843.541"
     y="-750.77429"
     transform="matrix(0.78007796,0.62568232,-0.62568232,0.78007796,0,0)"
     width="1.1670331"
     height="2.3560665"
     id="rect8644"
     style="fill:#abc973" /><rect
     x="2820.8323"
     y="-778.19299"
     transform="matrix(0.76920398,0.63900331,-0.63900331,0.76920398,0,0)"
     width="1.1659939"
     height="1.7929907"
     id="rect8646"
     style="fill:#abc973" /><rect
     x="2820.636"
     y="-780.10876"
     transform="matrix(0.76920398,0.63900331,-0.63900331,0.76920398,0,0)"
     width="1.1659939"
     height="1.7929907"
     id="rect8648"
     style="fill:#abc973" /><rect
     x="2820.1089"
     y="-784.69159"
     transform="matrix(0.7688439,0.63943651,-0.63943651,0.7688439,0,0)"
     width="1.1659334"
     height="2.713845"
     id="rect8650"
     style="fill:#abc973" /><rect
     x="2834.925"
     y="-732.10895"
     transform="matrix(0.78007796,0.62568232,-0.62568232,0.78007796,0,0)"
     width="1.1670331"
     height="2.3560665"
     id="rect8652"
     style="fill:#abc973" /><rect
     x="2836.3577"
     y="-732.13409"
     transform="matrix(0.78007796,0.62568232,-0.62568232,0.78007796,0,0)"
     width="1.1670331"
     height="2.3560665"
     id="rect8654"
     style="fill:#abc973" /><rect
     x="2837.6379"
     y="-732.05359"
     transform="matrix(0.78007796,0.62568232,-0.62568232,0.78007796,0,0)"
     width="1.1670331"
     height="2.3560665"
     id="rect8656"
     style="fill:#abc973" /><rect
     x="2839.3076"
     y="-731.16461"
     transform="matrix(0.78025383,0.62546299,-0.62546299,0.78025383,0,0)"
     width="1.1670691"
     height="2.3561394"
     id="rect8658"
     style="fill:#abc973" /><rect
     x="2840.2024"
     y="-731.80341"
     transform="matrix(0.78007796,0.62568232,-0.62568232,0.78007796,0,0)"
     width="1.1670331"
     height="2.3560665"
     id="rect8660"
     style="fill:#abc973" /><rect
     x="2841.5317"
     y="-731.97131"
     transform="matrix(0.78007796,0.62568232,-0.62568232,0.78007796,0,0)"
     width="1.1670331"
     height="2.3560665"
     id="rect8662"
     style="fill:#abc973" /><rect
     x="2842.8853"
     y="-731.90643"
     transform="matrix(0.78007796,0.62568232,-0.62568232,0.78007796,0,0)"
     width="1.1670331"
     height="2.3560665"
     id="rect8664"
     style="fill:#abc973" /><rect
     x="2840.645"
     y="-713.5863"
     transform="matrix(0.78007796,0.62568232,-0.62568232,0.78007796,0,0)"
     width="1.1670331"
     height="2.3560665"
     id="rect8666"
     style="fill:#abc973" /><rect
     x="2841.8931"
     y="-713.57202"
     transform="matrix(0.78007796,0.62568232,-0.62568232,0.78007796,0,0)"
     width="1.1670331"
     height="2.3560665"
     id="rect8668"
     style="fill:#abc973" /><rect
     x="2843.1694"
     y="-713.54059"
     transform="matrix(0.78007796,0.62568232,-0.62568232,0.78007796,0,0)"
     width="1.1670331"
     height="2.3560665"
     id="rect8670"
     style="fill:#abc973" /><rect
     x="2851.5923"
     y="-713.57025"
     transform="matrix(0.78007796,0.62568232,-0.62568232,0.78007796,0,0)"
     width="1.1670331"
     height="2.3560665"
     id="rect8672"
     style="fill:#abc973" /><rect
     x="2852.9031"
     y="-713.56628"
     transform="matrix(0.78007796,0.62568232,-0.62568232,0.78007796,0,0)"
     width="1.1670331"
     height="2.3560665"
     id="rect8674"
     style="fill:#abc973" /><rect
     x="2854.1211"
     y="-713.50208"
     transform="matrix(0.78007796,0.62568232,-0.62568232,0.78007796,0,0)"
     width="1.1670331"
     height="2.3560665"
     id="rect8676"
     style="fill:#abc973" /><rect
     x="2855.4177"
     y="-713.52063"
     transform="matrix(0.78007796,0.62568232,-0.62568232,0.78007796,0,0)"
     width="1.1670331"
     height="2.3560665"
     id="rect8678"
     style="fill:#abc973" /><rect
     x="2856.6921"
     y="-713.47559"
     transform="matrix(0.78007796,0.62568232,-0.62568232,0.78007796,0,0)"
     width="1.1670331"
     height="2.3560665"
     id="rect8680"
     style="fill:#abc973" /><rect
     x="2857.9885"
     y="-713.39771"
     transform="matrix(0.78007796,0.62568232,-0.62568232,0.78007796,0,0)"
     width="1.1670331"
     height="2.3560665"
     id="rect8682"
     style="fill:#abc973" /><rect
     x="2850.8281"
     y="-722.3692"
     transform="matrix(0.78007796,0.62568232,-0.62568232,0.78007796,0,0)"
     width="1.1670331"
     height="2.691076"
     id="rect8684"
     style="fill:#abc973" /><rect
     x="2852.0186"
     y="-722.32501"
     transform="matrix(0.78007796,0.62568232,-0.62568232,0.78007796,0,0)"
     width="1.1670331"
     height="2.691076"
     id="rect8686"
     style="fill:#abc973" /><rect
     x="2853.25"
     y="-722.37958"
     transform="matrix(0.78007796,0.62568232,-0.62568232,0.78007796,0,0)"
     width="1.1670331"
     height="2.691076"
     id="rect8688"
     style="fill:#abc973" /><rect
     x="2854.5581"
     y="-722.33923"
     transform="matrix(0.78007796,0.62568232,-0.62568232,0.78007796,0,0)"
     width="1.1670331"
     height="2.691076"
     id="rect8690"
     style="fill:#abc973" /><rect
     x="2855.7544"
     y="-722.21112"
     transform="matrix(0.78007796,0.62568232,-0.62568232,0.78007796,0,0)"
     width="1.1670331"
     height="2.691076"
     id="rect8692"
     style="fill:#abc973" /><rect
     x="2857.0156"
     y="-722.2832"
     transform="matrix(0.78007796,0.62568232,-0.62568232,0.78007796,0,0)"
     width="1.1670331"
     height="2.691076"
     id="rect8694"
     style="fill:#abc973" /><rect
     x="2858.3105"
     y="-722.26062"
     transform="matrix(0.78007796,0.62568232,-0.62568232,0.78007796,0,0)"
     width="1.1670331"
     height="2.691076"
     id="rect8696"
     style="fill:#abc973" /><g
     id="" /></svg>