<?xml version="1.0" encoding="UTF-8" standalone="no"?>
<!-- Generator: Adobe Illustrator 14.0.0, SVG Export Plug-In . SVG Version: 6.00 Build 43363)  -->
<svg xmlns:dc="http://purl.org/dc/elements/1.1/" xmlns:cc="http://creativecommons.org/ns#" xmlns:rdf="http://www.w3.org/1999/02/22-rdf-syntax-ns#" xmlns:svg="http://www.w3.org/2000/svg" xmlns="http://www.w3.org/2000/svg" xmlns:sodipodi="http://sodipodi.sourceforge.net/DTD/sodipodi-0.dtd" xmlns:inkscape="http://www.inkscape.org/namespaces/inkscape" version="1.1" x="0px" y="0px" width="6243.13px" height="3121.27px" viewBox="0 0 6243.13 3121.27" enable-background="new 0 0 6243.13 3121.27" xml:space="preserve" id="svg2" inkscape:version="0.91 r13725" sodipodi:docname="forest.svg"><metadata id="metadata19928"><rdf:RDF><cc:Work rdf:about=""><dc:format>image/svg+xml</dc:format><dc:type rdf:resource="http://purl.org/dc/dcmitype/StillImage"/></cc:Work></rdf:RDF></metadata><defs id="defs19926"/><sodipodi:namedview pagecolor="#ffffff" bordercolor="#666666" borderopacity="1" objecttolerance="10" gridtolerance="10" guidetolerance="10" inkscape:pageopacity="0" inkscape:pageshadow="2" inkscape:window-width="1303" inkscape:window-height="744" id="namedview19924" showgrid="false" inkscape:zoom="6.8068424" inkscape:cx="2740.9173" inkscape:cy="1999.552" inkscape:window-x="65" inkscape:window-y="24" inkscape:window-maximized="1" inkscape:current-layer="svg2"/><symbol id="dot" viewBox="-1.451 -1.5 2.902 3"><g id="g5"><g id="g7"><path d="M0-1.5c1.935,0,1.935,3,0,3S-1.935-1.5,0-1.5L0-1.5z" id="path9"/></g></g></symbol><g id="泪湾区林木"/><circle cx="2542.896" cy="1310" r="3.688" id="circle9362" style="fill:#244d2b;stroke:#006837;stroke-width:0.26089999"/><circle cx="2549.979" cy="1309.167" r="2.8540001" id="circle9364" style="fill:#244d2b;stroke:#006837;stroke-width:0.26089999"/><circle cx="2554.667" cy="1307.917" r="2.5829999" id="circle9366" style="fill:#244d2b;stroke:#006837;stroke-width:0.26089999"/><circle cx="2554.6831" cy="1313.892" r="3.142" id="circle9368" style="fill:#244d2b;stroke:#006837;stroke-width:0.26089999"/><circle cx="2557.1179" cy="1307.4969" r="2.434" id="circle9370" style="fill:#244d2b;stroke:#006837;stroke-width:0.26089999"/><circle cx="2550.417" cy="1301.438" r="3.2920001" id="circle9378" style="fill:#244d2b;stroke:#006837;stroke-width:0.26089999"/><circle cx="2545.688" cy="1303" r="1.813" id="circle9384" style="fill:#244d2b;stroke:#006837;stroke-width:0.26089999"/><circle cx="2539.167" cy="1314.708" r="1.7920001" id="circle9400" style="fill:#244d2b;stroke:#006837;stroke-width:0.26089999"/><circle cx="2536.313" cy="1316.073" r="2.188" id="circle9404" style="fill:#244d2b;stroke:#006837;stroke-width:0.26089999"/><circle cx="2536.585" cy="1321.1541" r="2.345" id="circle9406" style="fill:#244d2b;stroke:#006837;stroke-width:0.26089999"/><circle cx="2534.365" cy="1319.3" r="2.4159999" id="circle9408" style="fill:#244d2b;stroke:#006837;stroke-width:0.26089999"/><circle cx="2542.4851" cy="1305.512" r="1.985" id="circle9410" style="fill:#244d2b;stroke:#006837;stroke-width:0.26089999"/><circle cx="2549.979" cy="1292.521" r="2.8540001" id="circle9436" style="fill:#244d2b;stroke:#006837;stroke-width:0.26089999"/><circle cx="2528.344" cy="1329.233" r="3.2809999" id="circle9482" style="fill:#244d2b;stroke:#006837;stroke-width:0.26089999"/><circle cx="2530.9861" cy="1326.639" r="2.0769999" id="circle9484" style="fill:#244d2b;stroke:#006837;stroke-width:0.26089999"/><circle cx="2535.9529" cy="1327.78" r="1.8279999" id="circle9486" style="fill:#244d2b;stroke:#006837;stroke-width:0.26089999"/><circle cx="2543.698" cy="1322.131" r="2.7390001" id="circle9492" style="fill:#244d2b;stroke:#006837;stroke-width:0.26089999"/><circle cx="2554.7639" cy="1320.8669" r="3.3889999" id="circle9494" style="fill:#244d2b;stroke:#006837;stroke-width:0.26089999"/><circle cx="2559.7109" cy="1319.588" r="3.039" id="circle9496" style="fill:#244d2b;stroke:#006837;stroke-width:0.26089999"/><circle cx="2563.583" cy="1316.5229" r="2.3329999" id="circle9498" style="fill:#244d2b;stroke:#006837;stroke-width:0.26089999"/><circle cx="2551.115" cy="1325.462" r="2.2809999" id="circle9500" style="fill:#244d2b;stroke:#006837;stroke-width:0.26089999"/><circle cx="2547.7629" cy="1327.736" r="1.987" id="circle9502" style="fill:#244d2b;stroke:#006837;stroke-width:0.26089999"/><g id="西山公园树木"><circle style="fill:#244d2b" id="circle12251" r="3.625" cy="1133.806" cx="2719.083"/><circle style="fill:#244d2b" id="circle12253" r="3.625" cy="1136.017" cx="2721.083"/><circle style="fill:#244d2b" id="circle12255" r="4.3330002" cy="1143.558" cx="2721.083"/><circle style="fill:#244d2b" id="circle12257" r="5.125" cy="1141.458" cx="2728.625"/><circle style="fill:#244d2b" id="circle12259" r="3.98" cy="1147.019" cx="2715.364"/><circle style="fill:#244d2b" id="circle12261" r="3.664" cy="1151.556" cx="2711.105"/><circle style="fill:#244d2b" id="circle12263" r="1.73" cy="1145.2889" cx="2711.075"/><circle style="fill:#244d2b" id="circle12265" r="1.972" cy="1144.389" cx="2714.7781"/><circle style="fill:#244d2b" id="circle12267" r="1.6670001" cy="1140.891" cx="2716.083"/><circle style="fill:#244d2b" id="circle12269" r="1.477" cy="1139.415" cx="2719.083"/><circle style="fill:#244d2b" id="circle12271" r="2.197" cy="1126.611" cx="2723.5"/><circle style="fill:#244d2b" id="circle12273" r="2.233" cy="1124.715" cx="2726.686"/><circle style="fill:#244d2b" id="circle12275" r="2.1900001" cy="1122.9351" cx="2730.5481"/><circle style="fill:#244d2b" id="circle12277" r="2.125" cy="1122.458" cx="2734.375"/><circle style="fill:#244d2b" id="circle12279" r="2.3329999" cy="1122.167" cx="2738.833"/><circle style="fill:#244d2b" id="circle12281" r="2.7539999" cy="1121.297" cx="2743.0801"/><circle style="fill:#244d2b" id="circle12283" r="3.388" cy="1120.5551" cx="2748.7791"/><circle style="fill:#244d2b" id="circle12285" r="2.6670001" cy="1123.2209" cx="2754.833"/><circle style="fill:#244d2b" id="circle12287" r="2.618" cy="1128.618" cx="2753.084"/><circle style="fill:#244d2b" id="circle12289" r="1.454" cy="1127.454" cx="2757.156"/><circle style="fill:#244d2b" id="circle12291" r="1.786" cy="1126.37" cx="2755.3701"/><circle style="fill:#244d2b" id="circle12293" r="2.6670001" cy="1131.574" cx="2748.5"/><circle style="fill:#244d2b" id="circle12295" r="2.8139999" cy="1132.1801" cx="2743.981"/><circle style="fill:#244d2b" id="circle12297" r="2.2279999" cy="1136.017" cx="2741.812"/><circle style="fill:#244d2b" id="circle12299" r="2.151" cy="1140.089" cx="2739.6599"/><circle style="fill:#244d2b" id="circle12301" r="2.609" cy="1146.608" cx="2737.718"/><circle style="fill:#244d2b" id="circle12303" r="1.6210001" cy="1143.191" cx="2739.1289"/><circle style="fill:#244d2b" id="circle12305" r="3.1719999" cy="1151.328" cx="2733.002"/><circle style="fill:#244d2b" id="circle12307" r="3.112" cy="1152.861" cx="2724.5291"/><circle style="fill:#244d2b" id="circle12309" r="2.154" cy="1149.174" cx="2728.094"/><circle style="fill:#244d2b" id="circle12311" r="2.513" cy="1153.8409" cx="2728.4529"/><circle style="fill:#244d2b" id="circle12313" r="2.2690001" cy="1152.7841" cx="2719.5349"/><circle style="fill:#244d2b" id="circle12315" r="2.5680001" cy="1151.151" cx="2723.6509"/><circle style="fill:#244d2b" id="circle12317" r="2.1300001" cy="1155.974" cx="2716.5471"/><circle style="fill:#244d2b" id="circle12319" r="2.717" cy="1157.77" cx="2712.061"/><circle style="fill:#244d2b" id="circle12321" r="3.3959999" cy="1158.449" cx="2707.146"/><circle style="fill:#244d2b" id="circle12323" r="3.303" cy="1158.5229" cx="2701.72"/><circle style="fill:#244d2b" id="circle12325" r="4.25" cy="1162.699" cx="2698.75"/><circle style="fill:#244d2b" id="circle12327" r="1.7920001" cy="1159.401" cx="2696.292"/><circle style="fill:#244d2b" id="circle12329" r="2.6670001" cy="1157.72" cx="2700.75"/><circle style="fill:#244d2b" id="circle12331" r="1.332" cy="1152.66" cx="2703.052"/><circle style="fill:#244d2b" id="circle12333" r="1.336" cy="1153.9969" cx="2700.761"/><circle style="fill:#244d2b" id="circle12335" r="3.1359999" cy="1139.469" cx="2709.6699"/><circle style="fill:#244d2b" id="circle12337" r="2.5880001" cy="1134.551" cx="2710.5791"/><circle style="fill:#244d2b" id="circle12339" r="2.7130001" cy="1131.3311" cx="2710.7041"/><circle style="fill:#244d2b" id="circle12341" r="3.1760001" cy="1130.63" cx="2711.593"/><circle style="fill:#244d2b" id="circle12343" r="3.007" cy="1128.007" cx="2714.6001"/><circle style="fill:#244d2b" id="circle12345" r="2.595" cy="1125.745" cx="2715.762"/><circle style="fill:#244d2b" id="circle12347" r="2.6429999" cy="1122.4771" cx="2720.25"/><circle style="fill:#244d2b" id="circle12349" r="2.6340001" cy="1120.301" cx="2724.051"/><circle style="fill:#244d2b" id="circle12351" r="3.0480001" cy="1117.881" cx="2725.9399"/><circle style="fill:#244d2b" id="circle12353" r="3.4170001" cy="1116.511" cx="2728.833"/><circle style="fill:#244d2b" id="circle12355" r="3.7349999" cy="1115.818" cx="2733.9829"/><circle style="fill:#244d2b" id="circle12357" r="2.8900001" cy="1114.974" cx="2740.1899"/><circle style="fill:#244d2b" id="circle12359" r="1.705" cy="1109.288" cx="2737.8789"/><circle style="fill:#244d2b" id="circle12361" r="2.046" cy="1109.796" cx="2742.7959"/><circle style="fill:#244d2b" id="circle12363" r="2.01" cy="1112.387" cx="2746.769"/><circle style="fill:#244d2b" id="circle12365" r="1.944" cy="1114.332" cx="2750.7229"/><circle style="fill:#244d2b" id="circle12367" r="1.1390001" cy="1110.936" cx="2749.3269"/><circle style="fill:#244d2b" id="circle12369" r="2.375" cy="1116.7061" cx="2755.459"/><circle style="fill:#244d2b" id="circle12371" r="1.525" cy="1120.337" cx="2758.0591"/><circle style="fill:#244d2b" id="circle12373" r="1.893" cy="1122.822" cx="2762.8569"/><circle style="fill:#244d2b" id="circle12375" r="1.475" cy="1123.337" cx="2759.533"/><circle style="fill:#244d2b" id="circle12377" r="2.885" cy="1127.468" cx="2763.199"/><circle style="fill:#244d2b" id="circle12379" r="1.679" cy="1131.0439" cx="2759.738"/><circle style="fill:#244d2b" id="circle12381" r="1.888" cy="1133.386" cx="2756.7209"/><circle style="fill:#244d2b" id="circle12383" r="2.0179999" cy="1134.759" cx="2753.6851"/><circle style="fill:#244d2b" id="circle12385" r="3.323" cy="1137.938" cx="2750.4661"/><circle style="fill:#244d2b" id="circle12387" r="2.2420001" cy="1140.1801" cx="2747.085"/><circle style="fill:#244d2b" id="circle12389" r="2.849" cy="1144.745" cx="2745.929"/><circle style="fill:#244d2b" id="circle12391" r="1.789" cy="1147.078" cx="2743.6011"/><circle style="fill:#244d2b" id="circle12393" r="1.645" cy="1150.818" cx="2742.395"/><circle style="fill:#244d2b" id="circle12395" r="1.71" cy="1153.038" cx="2741.3701"/><circle style="fill:#244d2b" id="circle12397" r="1.725" cy="1155.568" cx="2739.0249"/><circle style="fill:#244d2b" id="circle12399" r="2.0829999" cy="1158.438" cx="2736.75"/><circle style="fill:#244d2b" id="circle12401" r="2.063" cy="1159.209" cx="2732.312"/><circle style="fill:#244d2b" id="circle12403" r="2.4159999" cy="1159.561" cx="2727.833"/><circle style="fill:#244d2b" id="circle12405" r="2.441" cy="1159.587" cx="2724.2439"/><circle style="fill:#244d2b" id="circle12407" r="2.4089999" cy="1160.178" cx="2720.4839"/><circle style="fill:#244d2b" id="circle12409" r="2.273" cy="1165.84" cx="2722.2549"/><circle style="fill:#244d2b" id="circle12411" r="2.053" cy="1163.4189" cx="2724.6321"/><circle style="fill:#244d2b" id="circle12413" r="2.655" cy="1165.354" cx="2729.3411"/><circle style="fill:#244d2b" id="circle12415" r="2.0020001" cy="1163.368" cx="2731.314"/><circle style="fill:#244d2b" id="circle12417" r="2.622" cy="1170.298" cx="2719.6331"/><circle style="fill:#244d2b" id="circle12419" r="2.885" cy="1171.682" cx="2715.189"/><circle style="fill:#244d2b" id="circle12421" r="1.585" cy="1174.505" cx="2712.1279"/><circle style="fill:#244d2b" id="circle12423" r="1.694" cy="1125.744" cx="2747.084"/><circle style="fill:#244d2b" id="circle12425" r="1.789" cy="1126.601" cx="2743.6011"/><circle style="fill:#244d2b" id="circle12427" r="1.661" cy="1128.031" cx="2740.4951"/><circle style="fill:#244d2b" id="circle12429" r="0.81099999" cy="1125.811" cx="2741.001"/><circle style="fill:#244d2b" id="circle12431" r="2.599" cy="1162.186" cx="2727.231"/><circle style="fill:#244d2b" id="circle12433" r="2.0409999" cy="1142.932" cx="2749.126"/><circle style="fill:#244d2b" id="circle12435" r="2.1429999" cy="1120.024" cx="2760.752"/><circle style="fill:#244d2b" id="circle12437" r="0.50800002" cy="1140.597" cx="2734.8831"/><circle style="fill:#244d2b" id="circle12439" r="1.475" cy="1138.614" cx="2736.1421"/><circle style="fill:#244d2b" id="circle12441" r="1.221" cy="1140.1801" cx="2735.1089"/><path style="fill:none;stroke:#efbd73;stroke-width:0.1" inkscape:connector-curvature="0" id="path12443" d="m 2747.417,1152.042 c 0,0 -0.398,-1.625 -5.262,-3.333 0,0 -0.813,-0.156 -1.114,-1.021"/><path style="fill:none;stroke:#efbd73;stroke-width:0.1" inkscape:connector-curvature="0" id="path12445" d="m 2739.813,1148.583 c 0,0 -1.458,1.979 -4.188,0.167 -2.729,-1.813 0.771,-0.958 -1.25,-2.542"/><path style="fill:none;stroke:#efbd73;stroke-width:0.1" inkscape:connector-curvature="0" id="path12447" d="m 2734.375,1144.812 c 0,0 -1.125,-0.228 -0.625,-1.879 0.5,-1.651 -0.011,-5.932 -3.502,-6.916 0,0 -0.717,-0.126 -0.232,-1.158"/><path style="fill:none;stroke:#efbd73;stroke-width:0.1" inkscape:connector-curvature="0" id="path12449" d="m 2728.833,1129.031 c 0,0 0.05,-2.813 -4.782,0.156 -4.832,2.969 -3.492,-1.734 -3.492,-1.734 l -0.31,-0.297"/><path style="fill:none;stroke:#efbd73;stroke-width:0.1" inkscape:connector-curvature="0" id="path12451" d="m 2719.813,1126.37 c 0,0 -3.531,-4.057 -3.594,-4.87 -0.063,-0.813 0.875,-2.5 1,-2.75"/></g></svg>
