<?xml version="1.0" encoding="utf-8"?>
<!-- Generator: Adobe Illustrator 14.0.0, SVG Export Plug-In . SVG Version: 6.00 Build 43363)  -->
<!DOCTYPE svg PUBLIC "-//W3C//DTD SVG 1.1//EN" "http://www.w3.org/Graphics/SVG/1.1/DTD/svg11.dtd">
<svg xmlns="http://www.w3.org/2000/svg" xmlns:xlink="http://www.w3.org/1999/xlink" version="1.1" id="实景图" x="0px" y="0px" width="6243.13px" height="3121.27px" viewBox="0 0 6243.13 3121.27" enable-background="new 0 0 6243.13 3121.27" xml:space="preserve">
<g id="次要建筑">
	<g id="南渡镇_1_">
		<g id="商铺">
			
				<rect x="2385.497" y="1997.77" transform="matrix(0.3706 0.9288 -0.9288 0.3706 3362.3728 -959.5291)" fill="#C7B299" width="7.263" height="6.462"/>
			
				<rect x="2388.62" y="2005.186" transform="matrix(0.3706 0.9288 -0.9288 0.3706 3371.2266 -957.7612)" fill="#C7B299" width="7.263" height="6.462"/>
			
				<rect x="2390.395" y="2014.581" transform="matrix(0.3704 0.9289 -0.9289 0.3704 3382.5818 -955.0186)" fill="#C7B299" width="10.821" height="6.462"/>
			<rect x="2402.5" y="2018.506" fill="#C7B299" width="12.833" height="6.327"/>
			<rect x="2417" y="2014.666" fill="#C7B299" width="6" height="10.167"/>
			<rect x="2424.833" y="2014.666" fill="#C7B299" width="4.833" height="10.167"/>
			<rect x="2430.667" y="2014.666" fill="#C7B299" width="9" height="10.167"/>
		</g>
		<g id="公寓">
			
				<rect x="2457.537" y="1991.413" transform="matrix(0.9242 -0.382 0.382 0.9242 -575.1375 1090.9399)" fill="#FFFFFF" width="5.333" height="5.334"/>
			
				<rect x="2462.23" y="1982.259" transform="matrix(0.693 -0.721 0.721 0.693 -674.2637 2386.5732)" fill="#FFFFFF" width="5.334" height="5.335"/>
			
				<rect x="2447.751" y="1988.243" transform="matrix(0.9948 0.1014 -0.1014 0.9948 214.585 -238.2874)" fill="#FFFFFF" width="5.334" height="5.335"/>
			
				<rect x="2450.969" y="1987.691" transform="matrix(0.9242 -0.382 0.382 0.9242 -573.9377 1090.1099)" fill="#FFFFFF" width="15.667" height="6.001"/>
			
				<rect x="2485.2" y="1990.752" transform="matrix(0.9242 -0.382 0.382 0.9242 -572.7874 1101.4563)" fill="#FFFFFF" width="5.333" height="5.334"/>
			
				<rect x="2489.893" y="1981.597" transform="matrix(0.693 -0.721 0.721 0.693 -665.2935 2406.3142)" fill="#FFFFFF" width="5.334" height="5.335"/>
			
				<rect x="2475.413" y="1987.582" transform="matrix(0.9948 0.1014 -0.1014 0.9948 214.6606 -241.0967)" fill="#FFFFFF" width="5.334" height="5.335"/>
			
				<rect x="2478.632" y="1987.029" transform="matrix(0.9242 -0.382 0.382 0.9242 -571.5876 1100.6257)" fill="#FFFFFF" width="15.667" height="6.001"/>
			
				<rect x="2513.49" y="1990.752" transform="matrix(0.9242 -0.382 0.382 0.9242 -570.6423 1112.2625)" fill="#FFFFFF" width="5.333" height="5.334"/>
			
				<rect x="2518.183" y="1981.597" transform="matrix(0.693 -0.721 0.721 0.693 -656.6074 2426.7107)" fill="#FFFFFF" width="5.334" height="5.335"/>
			
				<rect x="2503.703" y="1987.582" transform="matrix(0.9948 0.1014 -0.1014 0.9948 214.8066 -243.9663)" fill="#FFFFFF" width="5.334" height="5.335"/>
			
				<rect x="2506.922" y="1987.029" transform="matrix(0.9242 -0.382 0.382 0.9242 -569.4426 1111.4315)" fill="#FFFFFF" width="15.667" height="6.001"/>
		</g>
		<g id="别墅">
			<rect x="2452.136" y="2021.897" fill="#FFFFFF" width="2.409" height="3.454"/>
			<rect x="2454.75" y="2021.897" fill="#FFFFFF" width="2.409" height="3.454"/>
			<rect x="2457.599" y="2021.897" fill="#FFFFFF" width="2.409" height="3.454"/>
			<rect x="2460.421" y="2021.897" fill="#FFFFFF" width="2.409" height="3.454"/>
			<rect x="2463.109" y="2021.897" fill="#FFFFFF" width="2.409" height="3.454"/>
			<rect x="2465.796" y="2021.897" fill="#FFFFFF" width="2.409" height="3.454"/>
			<rect x="2468.696" y="2021.897" fill="#FFFFFF" width="2.41" height="3.454"/>
			<rect x="2471.633" y="2021.897" fill="#FFFFFF" width="2.409" height="3.454"/>
			<rect x="2474.446" y="2022.438" fill="#FFFFFF" width="2.992" height="2.914"/>
			<rect x="2478.008" y="2022.168" fill="#FFFFFF" width="2.992" height="2.914"/>
			<rect x="2481.321" y="2022.438" fill="#FFFFFF" width="2.992" height="2.914"/>
			<rect x="2484.946" y="2022.168" fill="#FFFFFF" width="2.992" height="2.914"/>
			<rect x="2488.633" y="2022.438" fill="#FFFFFF" width="2.992" height="2.914"/>
			<rect x="2492.196" y="2022.168" fill="#FFFFFF" width="2.992" height="2.914"/>
			<rect x="2496.331" y="2022.438" fill="#FFFFFF" width="2.544" height="2.914"/>
			<rect x="2500" y="2021.897" fill="#FFFFFF" width="2.125" height="3.185"/>
			<rect x="2502.792" y="2022.438" fill="#FFFFFF" width="2.458" height="2.914"/>
			<rect x="2506.37" y="2022.168" fill="#FFFFFF" width="2.13" height="2.914"/>
			<rect x="2509.293" y="2021.897" fill="#FFFFFF" width="2.207" height="3.454"/>
			<rect x="2512.673" y="2021.897" fill="#FFFFFF" width="1.452" height="3.185"/>
			<rect x="2515.375" y="2021.897" fill="#FFFFFF" width="3.25" height="3.185"/>
			<rect x="2518.912" y="2023" fill="#FFFFFF" width="3.875" height="2.082"/>
			<rect x="2523.125" y="2022.168" fill="#FFFFFF" width="3.063" height="3.184"/>
			<rect x="2526.625" y="2021.897" fill="#FFFFFF" width="2.063" height="3.185"/>
			<rect x="2528.688" y="2022.688" fill="#FFFFFF" width="2.438" height="2.664"/>
			<rect x="2531.5" y="2022.438" fill="#FFFFFF" width="2.125" height="2.914"/>
			<rect x="2534" y="2023" fill="#FFFFFF" width="3.125" height="2.352"/>
			<rect x="2537.5" y="2022.168" fill="#FFFFFF" width="2" height="3.25"/>
			<rect x="2540.875" y="2022.418" fill="#FFFFFF" width="2.813" height="3"/>
			<rect x="2544" y="2023.49" fill="#FFFFFF" width="4.375" height="1.928"/>
			<rect x="2549.125" y="2021.219" fill="#FFFFFF" width="1.75" height="4.188"/>
			<rect x="2551.313" y="2021.616" fill="#FFFFFF" width="1.875" height="3.79"/>
			<rect x="2553.5" y="2022.719" fill="#FFFFFF" width="2.5" height="2.688"/>
			<rect x="2556.344" y="2023.301" fill="#FFFFFF" width="3.188" height="2.094"/>
			<rect x="2560.094" y="2022.395" fill="#FFFFFF" width="2.063" height="3"/>
			<rect x="2562.469" y="2022.707" fill="#FFFFFF" width="2.313" height="2.688"/>
			<rect x="2565.219" y="2023.02" fill="#FFFFFF" width="2.688" height="2.375"/>
			<rect x="2568.188" y="2022.688" fill="#FFFFFF" width="2.25" height="2.688"/>
			<rect x="2570.688" y="2023.02" fill="#FFFFFF" width="1.813" height="2.355"/>
			<rect x="2572.875" y="2022.688" fill="#FFFFFF" width="1.875" height="2.688"/>
			<rect x="2575.188" y="2022.688" fill="#FFFFFF" width="2.75" height="2.688"/>
			<rect x="2578.25" y="2023.02" fill="#FFFFFF" width="2.5" height="2.355"/>
			<rect x="2585.75" y="2023.029" fill="#FFFFFF" width="2.5" height="2.355"/>
			<rect x="2588.662" y="2023.029" fill="#FFFFFF" width="2.5" height="2.355"/>
			<rect x="2581.005" y="2022.395" fill="#FFFFFF" width="1.308" height="2.98"/>
			<rect x="2582.813" y="2022.125" fill="#FFFFFF" width="2.688" height="3.27"/>
			<rect x="2591.563" y="2022.125" fill="#FFFFFF" width="2" height="3.25"/>
			<rect x="2593.938" y="2022.395" fill="#FFFFFF" width="2.875" height="3.293"/>
			<rect x="2597.188" y="2022.125" fill="#FFFFFF" width="1.875" height="2.985"/>
			<rect x="2599.313" y="2022.268" fill="#FFFFFF" width="2.938" height="2.985"/>
			<rect x="2602.688" y="2023.02" fill="#FFFFFF" width="2.251" height="2.375"/>
			<rect x="2605.375" y="2022.395" fill="#FFFFFF" width="2.375" height="2.716"/>
			<rect x="2608.063" y="2023.02" fill="#FFFFFF" width="2.138" height="2.668"/>
			<rect x="2610.438" y="2022.395" fill="#FFFFFF" width="1.5" height="3"/>
			<rect x="2612.25" y="2022.977" fill="#FFFFFF" width="3" height="2.44"/>
			<rect x="2615.625" y="2022.395" fill="#FFFFFF" width="3.25" height="2.716"/>
			<rect x="2619.125" y="2022.977" fill="#FFFFFF" width="2.638" height="2.711"/>
		</g>
	</g>
</g>
</svg>
