<?xml version="1.0" encoding="utf-8"?>
<!-- Generator: Adobe Illustrator 14.0.0, SVG Export Plug-In . SVG Version: 6.00 Build 43363)  -->
<!DOCTYPE svg PUBLIC "-//W3C//DTD SVG 1.1//EN" "http://www.w3.org/Graphics/SVG/1.1/DTD/svg11.dtd">
<svg xmlns="http://www.w3.org/2000/svg" xmlns:xlink="http://www.w3.org/1999/xlink" version="1.1" id="实景图" x="0px" y="0px" width="6243.13px" height="3121.27px" viewBox="0 0 6243.13 3121.27" enable-background="new 0 0 6243.13 3121.27" xml:space="preserve">
<g id="主要建筑">
	<g id="南渡镇">
		<g id="公共建筑_2_">
			<g id="码头_2_">
				<line fill="none" stroke="#FFFFFF" stroke-width="5" x1="2772.875" y1="1987.5" x2="2783" y2="1973.875"/>
				<line fill="none" stroke="#FFFFFF" stroke-width="3" x1="2791.027" y1="2009.971" x2="2805.75" y2="1990.5"/>
				<path fill="#B3B3B3" d="M2775.667,1988.75l10.667,15.584l3.667,4.5l4.4,2.667l-0.567,0.999l-16.417-8.917      c0,0-7.917-4.751-7.083-8.917l-0.061-5.916l0.645-2.5l3.917,3.166L2775.667,1988.75z"/>
				
					<rect x="2772.325" y="1995.155" transform="matrix(0.7369 0.676 -0.676 0.7369 2080.4414 -1351.1782)" fill="#F29C36" width="7.349" height="3.75"/>
				
					<rect x="2776.992" y="1998.281" transform="matrix(0.7368 0.6761 -0.6761 0.7368 2083.3872 -1351.9893)" fill="#F29C36" width="2.716" height="3.749"/>
				
					<rect x="2781.717" y="2001.15" transform="matrix(-0.4782 0.8783 -0.8783 -0.4782 5874.9219 519.6725)" fill="#F29C36" width="2.715" height="8.057"/>
			</g>
			<g id="南渡镇政府">
				
					<rect x="2338.516" y="2012.262" transform="matrix(0.6675 -0.7446 0.7446 0.6675 -723.832 2415.9858)" fill="#A0795D" width="9.75" height="12.487"/>
				
					<rect x="2342.038" y="2007.341" transform="matrix(0.6675 -0.7446 0.7446 0.6675 -717.512 2416.3096)" fill="#A0795D" width="9.75" height="8.5"/>
				
					<rect x="2342.872" y="2001.542" transform="matrix(0.6675 -0.7446 0.7446 0.6675 -712.917 2415.0024)" fill="#A0795D" width="9.75" height="8.5"/>
				
					<rect x="2332.455" y="2015.034" transform="matrix(0.6675 -0.7446 0.7446 0.6675 -726.4119 2411.8464)" fill="#A0795D" width="9.75" height="8.5"/>
			</g>
			
				<rect id="南渡镇派出所" x="2444.336" y="2013.486" transform="matrix(0.0306 -0.9995 0.9995 0.0306 356.5947 4401.5044)" fill="#A0795D" width="6.315" height="6.847"/>
			<g id="南渡小学">
				<circle fill="#EFBD73" stroke="#EFBD73" stroke-width="1.0402" cx="2633.722" cy="2011.304" r="3.113"/>
				<circle fill="#EFBD73" stroke="#EFBD73" stroke-width="1.0402" cx="2633.467" cy="2021.481" r="3.113"/>
				
					<rect x="2630.495" y="2011.891" transform="matrix(0.9997 0.0233 -0.0233 0.9997 47.761 -60.8931)" fill="#ABC973" stroke="#EFBD73" stroke-width="1.1" width="6.195" height="9.125"/>
				
					<line id="南渡小学_1_" fill="none" stroke="#FFFFFF" stroke-width="0.1" x1="2630.614" y1="2016.421" x2="2636.521" y2="2016.495"/>
				<circle fill="none" stroke="#FFFFFF" stroke-width="0.0815" cx="2633.592" cy="2016.454" r="0.854"/>
				<g id="图层_300">
				</g>
				
					<rect x="2607.338" y="2003.436" transform="matrix(0.9999 -0.0135 0.0135 0.9999 -26.9111 35.6812)" fill="#A0795D" width="28.851" height="3.843"/>
				
					<rect x="2610.482" y="2003.899" transform="matrix(0.9818 -0.19 0.19 0.9818 -334.5278 532.9989)" fill="#A0795D" width="4.143" height="14.612"/>
				
					<rect x="2622.685" y="2019.581" transform="matrix(1 0.0017 -0.0017 1 3.4797 -4.5101)" fill="#A0795D" width="6.25" height="5.524"/>
			</g>
		</g>
	</g>
</g>
</svg>
