<?xml version="1.0" encoding="UTF-8" standalone="no"?>
<!-- Generator: Adobe Illustrator 14.0.0, SVG Export Plug-In . SVG Version: 6.00 Build 43363)  -->
<svg xmlns:dc="http://purl.org/dc/elements/1.1/" xmlns:cc="http://creativecommons.org/ns#" xmlns:rdf="http://www.w3.org/1999/02/22-rdf-syntax-ns#" xmlns:svg="http://www.w3.org/2000/svg" xmlns="http://www.w3.org/2000/svg" xmlns:sodipodi="http://sodipodi.sourceforge.net/DTD/sodipodi-0.dtd" xmlns:inkscape="http://www.inkscape.org/namespaces/inkscape" version="1.1" x="0px" y="0px" width="6243.13px" height="3121.27px" viewBox="0 0 6243.13 3121.27" enable-background="new 0 0 6243.13 3121.27" xml:space="preserve" id="svg2" inkscape:version="0.91 r13725" sodipodi:docname="city.svg"><metadata id="metadata19928"><rdf:RDF><cc:Work rdf:about=""><dc:format>image/svg+xml</dc:format><dc:type rdf:resource="http://purl.org/dc/dcmitype/StillImage"/></cc:Work></rdf:RDF></metadata><defs id="defs19926"/><sodipodi:namedview pagecolor="#ffffff" bordercolor="#666666" borderopacity="1" objecttolerance="10" gridtolerance="10" guidetolerance="10" inkscape:pageopacity="0" inkscape:pageshadow="2" inkscape:window-width="1303" inkscape:window-height="744" id="namedview19924" showgrid="false" inkscape:zoom="0.053178455" inkscape:cx="2531.6476" inkscape:cy="-1482.4425" inkscape:window-x="65" inkscape:window-y="24" inkscape:window-maximized="1" inkscape:current-layer="svg2"/><symbol id="dot" viewBox="-1.451 -1.5 2.902 3"><g id="g5"><g id="g7"><path d="M0-1.5c1.935,0,1.935,3,0,3S-1.935-1.5,0-1.5L0-1.5z" id="path9"/></g></g></symbol><g id="道路_5_"><g id="快速公路"><g id="Y1快速公路"><path style="fill:none;stroke:#313439;stroke-width:3.0999999" inkscape:connector-curvature="0" id="path19444" d="m 2557.667,1612.334 -109.794,-47.458 109.794,47.458 z"/><path style="fill:none;stroke:#313439;stroke-width:3.0999999" inkscape:connector-curvature="0" id="path19446" d="m 2556.103,1611.658 c 0,0 2.647,2.592 28.772,1.592 0,0 17.797,-1.694 18.961,9.611"/><path style="fill:none;stroke:#313439;stroke-width:3.0999999" inkscape:connector-curvature="0" id="path19448" d="m 2448.885,1565.313 c 0,0 -13.135,-4.813 -13.385,-21.313 -0.25,-16.5 -2.5,-81.25 -2.5,-81.25 0,0 4,-90.371 -86,-105.061 -90,-14.69 -466,-8.105 -466,-8.105 0,0 -174,2.416 -219,-36.584 -45,-39 -187.603,-121.047 -187.603,-121.047"/><path style="fill:none;stroke:#313439;stroke-width:3.0999999" inkscape:connector-curvature="0" id="path19450" d="m 2600.069,1176.917 c 0,0 9.264,-8.583 15.597,-16.25 6.333,-7.667 36,-43 34.333,-96.667 -1.667,-53.667 121.265,-55.677 121.265,-55.677 0,0 82.735,-5.75 120.402,35.797 0,0 18.667,17.546 60.667,11.546 0,0 33.666,-5 49.333,2.333 15.667,7.333 28.458,12.593 27.342,107.333 l 0.068,5.354"/><path style="fill:none;stroke:#313439;stroke-width:3.0999999" inkscape:connector-curvature="0" id="path19452" d="m 2354.472,1359.128 c 0,0 -17.971,-9.128 -13.138,-24.628 0.577,-1.85 1.431,-3.958 2.489,-6.236 7.805,-16.818 26.678,-42.93 26.678,-42.93 0,0 23.333,-34.833 32.167,-37"/><path style="fill:none;stroke:#313439;stroke-width:3.0999999" inkscape:connector-curvature="0" id="path19454" d="m 2342.5,1328.982 c 0,0 -10.625,25.303 -52.754,23.457"/><path style="fill:none;stroke:#313439;stroke-width:3.0999999" inkscape:connector-curvature="0" id="path19456" d="m 2347.061,1321.866 c 0,0 -3.727,8.634 -18.227,10.467 -14.5,1.833 -26.554,33.417 13.973,37.792 0,0 41.156,2.122 57.008,11.415"/><path style="fill:none;stroke:#313439;stroke-width:3.0999999" inkscape:connector-curvature="0" id="path19458" d="m 2332.179,1355.723 c 0,0 10.988,2.776 13.155,5.943 2.167,3.167 10.93,4.499 12.163,4.223 1.233,-0.276 29.837,1.944 5.503,-32.89 0,0 -10.495,-10.852 5.669,-45.093"/><g id="g19460"><g id="g19462"><path style="fill:none;stroke:#ffffff;stroke-dasharray:1" inkscape:connector-curvature="0" id="path19464" d="m 2349.539,1355.827 c 0,0 -14.369,-10.285 -6.962,-24.722"/><path style="fill:#ffffff" inkscape:connector-curvature="0" id="path19466" d="m 2343.128,1330.031 c -0.071,0.602 -0.073,1.393 0.066,1.955 l -0.689,-0.74 -1.003,-0.128 c 0.538,-0.215 1.18,-0.678 1.626,-1.087 z"/></g></g><g id="g19468"><g id="g19470"><path style="fill:none;stroke:#ffffff;stroke-dasharray:1" inkscape:connector-curvature="0" id="path19472" d="m 2339.685,1328.982 c 0,0 -4.492,2.398 -9.838,3.208"/><path style="fill:#ffffff" inkscape:connector-curvature="0" id="path19474" d="m 2328.653,1332.371 c 0.53,-0.294 1.173,-0.755 1.548,-1.197 l -0.198,0.992 0.483,0.889 c -0.489,-0.311 -1.24,-0.561 -1.833,-0.684 z"/></g></g><g id="g19476"><g id="g19478"><path style="fill:none;stroke:#ffffff;stroke-dasharray:1" inkscape:connector-curvature="0" id="path19480" d="m 2317.84,1340.409 c 0,0 -5.785,9.957 0,18.211"/><path style="fill:#ffffff" inkscape:connector-curvature="0" id="path19482" d="m 2318.533,1359.608 c -0.499,-0.344 -1.198,-0.715 -1.76,-0.854 l 0.976,-0.264 0.581,-0.827 c -0.06,0.576 0.049,1.359 0.203,1.945 z"/></g></g><g id="g19484"><g id="g19486"><path style="fill:none;stroke:#ffffff;stroke-dasharray:1" inkscape:connector-curvature="0" id="path19488" d="m 2362.719,1371.996 c 0,0 15.532,1.724 27.22,5.426"/><path style="fill:#ffffff" inkscape:connector-curvature="0" id="path19490" d="m 2391.089,1377.787 c -0.605,0.029 -1.385,0.159 -1.917,0.39 l 0.615,-0.803 -0.04,-1.01 c 0.301,0.495 0.864,1.051 1.342,1.423 z"/></g></g><g id="g19492"><g id="g19494"><path style="fill:none;stroke:#ffffff;stroke-dasharray:1" inkscape:connector-curvature="0" id="path19496" d="m 2340.508,1359.128 c 0,0 5.045,1.618 7.081,4.37"/><path style="fill:#ffffff" inkscape:connector-curvature="0" id="path19498" d="m 2348.307,1364.468 c -0.507,-0.331 -1.215,-0.684 -1.781,-0.808 l 0.969,-0.29 0.56,-0.842 c -0.047,0.578 0.084,1.359 0.252,1.94 z"/></g></g><g id="g19500"><g id="g19502"><path style="fill:none;stroke:#ffffff;stroke-dasharray:1" inkscape:connector-curvature="0" id="path19504" d="m 2362.719,1365.463 c 0,0 10.959,-2.44 10.058,-10.202"/><path style="fill:#ffffff" inkscape:connector-curvature="0" id="path19506" d="m 2372.637,1354.063 c 0.275,0.54 0.714,1.198 1.142,1.588 l -0.984,-0.232 -0.905,0.452 c 0.327,-0.479 0.603,-1.221 0.747,-1.808 z"/></g></g><g id="g19508"><g id="g19510"><path style="fill:none;stroke:#ffffff;stroke-dasharray:1" inkscape:connector-curvature="0" id="path19512" d="m 2359.908,1315.753 c 0,0 2.057,-13.939 4.637,-18.159"/><path style="fill:#ffffff" inkscape:connector-curvature="0" id="path19514" d="m 2365.175,1296.565 c -0.117,0.594 -0.178,1.383 -0.081,1.955 l -0.632,-0.79 -0.991,-0.203 c 0.553,-0.173 1.227,-0.588 1.704,-0.962 z"/></g></g><g id="g19516"><g id="g19518"><path style="fill:none;stroke:#ffffff;stroke-dasharray:1" inkscape:connector-curvature="0" id="path19520" d="m 2335.6,1338.224 c 0,0 -4.744,4.763 -9.846,7.177"/><path style="fill:#ffffff" inkscape:connector-curvature="0" id="path19522" d="m 2324.663,1345.917 c 0.423,-0.434 0.906,-1.06 1.138,-1.591 l 0.096,1.007 0.718,0.712 c -0.557,-0.157 -1.348,-0.18 -1.952,-0.128 z"/></g></g><g id="g19524"><path style="fill:none;stroke:#ffffff;stroke-width:0.25;stroke-dasharray:1" inkscape:connector-curvature="0" id="path19526" d="M 2600.069,1170.404"/></g><g id="g19528"><path style="fill:none;stroke:#ffffff;stroke-width:0.25;stroke-dasharray:1" inkscape:connector-curvature="0" id="path19530" d="M 2607.106,1167.55"/></g><g id="g19532"><g id="g19534"><path style="fill:none;stroke:#ffffff;stroke-width:0.25;stroke-dasharray:1" inkscape:connector-curvature="0" id="path19536" d="m 2617.859,1160.734 c 0,0 4.78,-3.376 8.963,-3.592"/><path style="fill:#ffffff" inkscape:connector-curvature="0" id="path19538" d="m 2627.124,1157.126 c -0.139,0.06 -0.31,0.159 -0.415,0.259 l 0.074,-0.242 -0.098,-0.233 c 0.114,0.09 0.294,0.171 0.439,0.216 z"/></g></g><g id="g19540"><g id="g19542"><path style="fill:none;stroke:#ffffff;stroke-width:0.25;stroke-dasharray:1" inkscape:connector-curvature="0" id="path19544" d="m 2628.823,1137.195 c 0,0 -2.906,1.471 -8.739,2.221"/><path style="fill:#ffffff" inkscape:connector-curvature="0" id="path19546" d="m 2619.784,1139.455 c 0.134,-0.07 0.297,-0.182 0.394,-0.291 l -0.055,0.247 0.115,0.225 c -0.12,-0.08 -0.306,-0.147 -0.454,-0.181 z"/></g></g><g id="g19548"><g id="g19550"><path style="fill:none;stroke:#ffffff;stroke-width:0.25;stroke-dasharray:1" inkscape:connector-curvature="0" id="path19552" d="m 2624.453,1155.147 c 0,0 6,1.444 7.343,1.861"/><path style="fill:#ffffff" inkscape:connector-curvature="0" id="path19554" d="m 2632.084,1157.098 c -0.151,0.01 -0.346,0.042 -0.478,0.101 l 0.152,-0.202 -0.012,-0.252 c 0.077,0.123 0.219,0.261 0.338,0.353 z"/></g></g><g id="g19556"><g id="g19558"><path style="fill:none;stroke:#ffffff;stroke-width:0.25;stroke-dasharray:1" inkscape:connector-curvature="0" id="path19560" d="m 2636.418,1157.142 c 0,0 -5.659,-6.141 -5.869,-10.351"/><path style="fill:#ffffff" inkscape:connector-curvature="0" id="path19562" d="m 2630.534,1146.49 c 0.06,0.139 0.158,0.311 0.258,0.415 l -0.242,-0.074 -0.233,0.098 c 0.09,-0.115 0.171,-0.295 0.217,-0.439 z"/></g></g></g><g id="Y1快速观云岗隧道"><line style="fill:none;stroke:#313439;stroke-width:3.0999999;stroke-dasharray:2" id="line19565" y2="1238.2531" x2="2454.3831" y1="1247.851" x1="2403.2839"/><line style="fill:none;stroke:#313439;stroke-width:3.0999999" id="line19567" y2="1232.724" x2="2476.2371" y1="1237.917" x1="2454.3831"/><line style="fill:none;stroke:#313439;stroke-width:3.0999999;stroke-dasharray:2" id="line19569" y2="1226.583" x2="2506.583" y1="1232.167" x1="2477.75"/><line style="fill:none;stroke:#313439;stroke-width:3.0999999" id="line19571" y2="1221.875" x2="2536.708" y1="1226.375" x1="2507.833"/><path style="fill:none;stroke:#313439;stroke-width:3.0999999;stroke-dasharray:2" inkscape:connector-curvature="0" id="path19573" d="m 2539.106,1221.042 c 0,0 42.426,-23.625 60.963,-44.125"/></g></g><g id="天梯区交通设施"><g id="道路_1_"><path style="fill:none;stroke:#4c4d48;stroke-width:1.89999998" inkscape:connector-curvature="0" id="path19577" d="m 2900,1656.001 -10.618,-16.211 10.618,16.211 z"/><path style="fill:none;stroke:#4c4d48;stroke-width:1.89999998" inkscape:connector-curvature="0" id="path19579" d="m 2788.5,1640.25 -20.5,-6.583 c 0,0 -11.5,-4.334 -35.667,0 -24.167,4.334 -31.333,5.167 -50,4.667 -18.667,-0.5 -38.167,18.334 -51.333,21.667 -13.166,3.333 -25.833,-11 -59.167,-6 -33.334,5 -31.333,-16.833 -52,-4.5 -20.667,12.333 -16.333,-15.666 0,-19.5 16.333,-3.834 13.334,-4.833 60.667,-6 47.333,-1.167 62.955,-6.996 64.333,-16.994 2.503,-18.163 5.262,-22.007 5.262,-22.007 0,0 17.405,-18.75 24.655,-34 7.25,-15.25 32.75,-13 32.75,-13 0,0 23.125,-0.625 33.25,-1.125 10.125,-0.5 19.5,-10.375 19.5,-10.375 6,-7 28.25,11 28.25,11 l 8.812,5.909 12.438,8.341 c 4.5,3.75 15,6 15,6 0,0 8,1.5 44.75,1.5 36.75,0 40.75,-8 53.75,-13 13,-5 9.5,12.5 9.5,12.5 0,0 -32.75,63.5 -36.25,73.5 -1.296,3.702 -3.741,5.884 -6.306,7.165 -0.27,0.135 -0.541,0.26 -0.812,0.375 -4.117,1.753 -8.266,1.373 -8.266,1.373 0,0 -19.616,0 -41.116,0 -21.5,0 -22.75,5.837 -37.25,5.837 -14.5,0 -14.25,-6.75 -14.25,-6.75 l 0,-76.25 c 0,0 -1.083,-11.334 7.583,-20.667"/><path style="fill:none;stroke:#8d8e89;stroke-width:1.10000002" inkscape:connector-curvature="0" id="path19581" d="m 2860.417,1549 c 0,0 -9.833,-0.917 -15.25,0 -5.417,0.917 -5.603,-3.947 -5.603,-3.947 0,0 15.189,-2.344 17.186,-2.551 1.997,-0.207 8.236,-1.368 18.827,2.023 10.591,3.391 -5.243,5.808 -15.16,4.475 z"/><path style="fill:none;stroke:#4c4d48;stroke-width:1.89999998" inkscape:connector-curvature="0" id="path19583" d="m 2905.05,1613.648 c 0,0 11.034,4.435 28.867,11.935 17.833,7.5 22.917,-3.916 22.917,-3.916 0,0 18.5,-42.5 21.333,-50.098 0,0 9.75,-28.319 31.167,-20.569 0,0 14.833,2.67 9,22.335 l -11,27.999 c 0,0 -26.667,71.667 -30.402,88.833 -3.735,17.166 -1.098,57.499 -1.098,57.499 0,0 0,0 1,11.5 1,11.5 -6,12.5 -6,12.5 0,0 5.667,-1.166 -12.833,3 -18.5,4.166 -21.5,-21.333 -21.5,-21.333 -5.167,-37.666 -14,-51.5 -14,-51.5 l -22.5,-45.832"/><path style="fill:none;stroke:#8d8e89;stroke-width:1.10000002" inkscape:connector-curvature="0" id="path19585" d="m 2859.824,1548.949 c 0,0 -2.491,6.384 6.176,6.051 8.667,-0.333 36.917,-2.377 50.417,-12.855 0,0 19.083,-17.895 35.833,-19.645 16.75,-1.75 31.75,-7.25 23.75,4 -8,11.25 14.25,11.563 7.5,23.157 -6.75,11.594 -23.654,41.343 -23.654,41.343 0,0 -12.096,25.25 -21.346,17.75 -9.25,-7.5 -2.639,-11.953 -21.944,-18.227"/><polyline style="fill:none;stroke:#4c4d48;stroke-width:1.89999998" id="polyline19587" points="1710.333,1374 1704.333,1366 1660,1382.667 1636,1364.333       1514,1264.333 1454,1225 1481.667,1181.667 1442.686,1138.058     "/><circle style="fill:#dcc7b5;stroke:#4c4d48;stroke-width:0.89999998" id="circle19589" r="1.1670001" cy="1374.5" cx="1710.333"/><circle style="fill:none;stroke:#4c4d48;stroke-width:1.89999998" id="circle19591" r="2.7249999" cy="1135.678" cx="1441.3831"/></g></g><g id="泪湾区交通设施"><g id="道路"><path style="fill:none;stroke:#8d8e89;stroke-width:1.10000002" inkscape:connector-curvature="0" id="path19595" d="m 3088.922,1315.859 -0.521,-0.531 -0.6,-0.328 -0.588,0 -0.631,0 -1.009,0.667 c 0,0 -1.98,2.039 -8.235,2.811 l -0.404,0.44 -0.688,0.696 -1.071,0.982 -2.953,2.28 -2.09,1.377 -4.761,2.674 -3.636,1.694 -1.566,0.629 c 0,0 -5.303,2.848 -6.752,4.205 -1.45,1.357 -4.99,0.487 -6.692,-0.703 l -3.373,-2.654 -0.848,-0.849 c 0,0 -0.971,-2.317 0.776,-4.992 l 0.738,-2.05 1.075,-3.186 c 0,0 1.189,-5.604 8.343,-3.542 l 5.092,1.021 2.734,0.165 c 0,0 3.737,0.443 7.568,-1.424 l 0.886,-0.243 c 0,0 5.51,-1.833 1.809,3 l -1.052,0.792 -1.262,0.833 -0.883,0.333 -1.052,0.417 -1.094,0.333"/><path style="fill:none;stroke:#8d8e89;stroke-width:1.10000002" inkscape:connector-curvature="0" id="path19597" d="m 3029.035,1333.619 0.203,-0.582 c 0,0 1.095,-2.137 -1.955,-3.315 0,0 -0.837,0.065 -0.329,-2.268 l 1.37,-4.582 1.746,-3.883 0.163,-0.659 0.148,-1.17 0.113,-1.761 c 0,0 0.131,-3.306 4.605,-4.746 0,0 6.513,-2.448 7.542,-3.515 0,0 5.469,-3.519 14.134,0.896 0,0 7.307,3.713 14.612,0.927 l 6.828,-2.013 c 0,0 6.281,-2.032 11.323,-2.286 1.219,-0.062 2.399,-0.089 3.418,-0.058 3.197,0.1 4.819,0.784 1.157,2.858 l -0.66,-0.072 -0.792,-0.503 -0.084,-0.796 0.375,-0.671 0.167,-0.46"/><path style="fill:none;stroke:#8d8e89;stroke-width:1.10000002" inkscape:connector-curvature="0" id="path19599" d="m 2902.334,1340.688 c -1.042,5.236 -5.75,2.856 -10.375,2.294 -4.625,-0.562 -5.083,3.246 -5.167,3.722 -0.083,0.476 -1.125,3.852 7,5.41 8.125,1.558 7.958,-2.856 10.458,-3.852 2.5,-0.995 5.042,0.995 5.042,0.995 l 1.75,1.861"/><path style="fill:none;stroke:#8d8e89;stroke-width:1.10000002" inkscape:connector-curvature="0" id="path19601" d="m 3033.881,1454.875 1.377,0.208 1.161,0.458 0.86,0.958 1.235,0.719 1.129,0.344 1.258,0.344 c 0,0 4.451,2.844 0.548,2.313 -3.903,-0.531 -5.645,-0.563 -3.709,0.344 1.936,0.907 5.58,1.5 3.322,1.844 -2.258,0.344 -5.806,-0.938 -3.645,0.656 2.161,1.594 5.87,1.031 4.063,2 -1.806,0.969 -2.161,1.938 -2.226,2.156 -0.065,0.218 0.032,0.906 0.032,0.906 l 0.242,1.328 0.113,0.484 0.096,0.453 c 0,0 0.132,0.147 0.306,0.264 0.303,0.202 0.74,0.313 0.872,-0.577"/><path style="fill:none;stroke:#8d8e89;stroke-width:1.10000002" inkscape:connector-curvature="0" id="path19603" d="m 2895.25,1328.022 1.167,-0.67 c 0,0 2.458,-1.131 4.625,0 2.167,1.131 2.542,1.424 3.875,2.765 1.333,1.34 3.583,2.22 6.125,0.921 2.542,-1.298 2.584,-3.183 2.25,-3.979 -0.333,-0.795 -2.833,-3.351 -6.208,-2.723 -3.375,0.628 -4.564,-3.403 -4.564,-3.403 l -0.837,-1.397 -0.284,-0.968 -0.073,-2.189 c 0,0 -0.857,-3.29 -2.925,-6.126 -2.068,-2.836 -1.119,-9.548 -1.171,-8.667 -0.052,0.882 1.127,-5.903 2.845,-8.35 1.718,-2.447 3.211,-9.126 2.784,-11.748 -0.427,-2.622 -1.916,-8.881 -1.512,-11.224 0.403,-2.343 1.49,-6.877 5.582,-8.121 4.092,-1.244 8.821,-2.013 8.821,-2.013 0,0 6.688,-0.816 6.125,-6.282 -0.563,-5.466 -1.75,-7.036 -1.75,-7.036"/><path style="fill:none;stroke:#8d8e89;stroke-width:1.10000002" inkscape:connector-curvature="0" id="path19605" d="m 2902.875,1285.531 1.832,0.281 c 0,0 1.157,0.688 0.514,2.719 -0.643,2.031 2.475,1.156 2.667,-0.906 0.193,-2.063 2.347,-3.793 1.607,1.838 -0.74,5.631 3.182,-2.65 3.053,-3.557 -0.129,-0.907 2.893,-1.813 2.186,2.063 -0.707,3.876 1.671,3.656 1.671,3.656"/><path style="fill:none;stroke:#8d8e89;stroke-width:1.10000002" inkscape:connector-curvature="0" id="path19607" d="m 2932.565,1303.393 c 0,0 -0.095,0.011 -5.659,-0.656 -5.564,-0.667 -9.736,-7.547 -9.736,-7.547 -1.33,-4.602 0.894,-8.641 0.894,-8.641 0.939,-6.368 -0.438,-8.117 -0.438,-8.117 -2.04,-4.609 3.416,-6.304 3.416,-6.304 9.126,-4.497 12.749,-4.711 12.749,-4.711 0,0 8.174,-0.967 8.298,-0.975 l 12.042,1.125"/><path style="fill:none;stroke:#8d8e89;stroke-width:1.10000002" inkscape:connector-curvature="0" id="path19609" d="m 2906.105,1331.026 4.936,3.146 c 0,0 3.972,1.559 7.34,-0.495 l 0.618,-0.095 0.667,0.125 1.292,0.333 2.958,0.917 1.375,0.542 1.292,0.458 c 0,0 7.126,3.151 11.939,-5.279 0,0 2.771,-5.747 9.976,-8.101 0,0 13.262,-3.765 15.991,-2.938 2.729,0.827 6.927,0.881 13.859,6.245 6.932,5.364 8.142,8.917 10.089,13.646 1.947,4.729 3.102,7.028 2.457,13.029 -0.645,6.001 3.164,11.505 12.947,8.472 9.783,-3.033 22.483,5.457 16.196,18.712 -6.287,13.255 -8.01,17.765 -8.01,17.765 0,0 -5.546,11.297 -2.527,14.793 3.019,3.496 1.843,4.922 14.358,7.685 12.515,2.763 14.149,7.423 14.149,7.423 l 3.939,6.756 1.396,2.54 0.885,2.812 0.129,1.813 c 0,0 -1.394,11.293 0.415,11.397 1.809,0.104 4.559,-1.813 4.559,-1.813 0,0 6,-1.284 8,1.816 2,3.1 12.061,3.02 12.061,3.02 0,0 19.605,1.555 14.23,-15.974 l -6.206,-16.559 -4.279,-11.413 c 0,0 -6.263,-22.867 0.548,-30.462 6.811,-7.595 3.863,-14.117 5.968,-17.801 2.104,-3.684 2.844,-5.36 17.094,-14.994"/><circle style="fill:none;stroke:#8d8e89;stroke-width:1.10000002" id="circle19611" r="4.125" cy="1223.859" cx="2954.6379"/><path style="fill:none;stroke:#8d8e89;stroke-width:1.10000002" inkscape:connector-curvature="0" id="path19613" d="m 2958.763,1223.859 3.362,0 c 0,0 5.625,0.109 8.813,4.125 3.188,4.016 3.451,6.336 1.101,9.113"/><path style="fill:none;stroke:#8d8e89;stroke-width:1.10000002" inkscape:connector-curvature="0" id="path19615" d="m 2926.677,1234.606 6.323,-3.481 5,-2.188 4.375,-0.953 c 0,0 5.464,-0.734 8.138,-3.172"/><circle style="fill:none;stroke:#8d8e89;stroke-width:1.10000002" id="circle19617" r="1.5829999" cy="1261.228" cx="2878.864"/><path style="fill:none;stroke:#8d8e89;stroke-width:1.10000002" inkscape:connector-curvature="0" id="path19619" d="m 2878.864,1259.645 0.636,-3.478 c 0,0 0.829,-6.921 8.998,-0.335"/><path style="fill:none;stroke:#4c4d48;stroke-width:1.5" inkscape:connector-curvature="0" id="path19621" d="m 3120.563,1345.75 -0.375,-0.375 c 0,0 -0.375,-0.5 -0.625,-0.875 -0.25,-0.375 -0.375,-0.813 -0.625,-1.313 -0.25,-0.5 -0.188,-1.188 -0.188,-1.688 0,-0.5 0.375,-2.5 0.375,-2.5 l 0.688,-2.625 1.313,-2.063 1.5,-2.063 c 26.375,-19.375 7.313,-11.875 7.313,-11.875 l -4.473,1.584 c -14.701,3.677 -11.276,3.083 -16.59,6.836 -5.314,3.753 -8.745,15.321 -8.745,15.321 l -0.63,2.299 -1,1.333 -1.443,0.806 c -27.36,-0.61 -30.171,12.375 -30.171,12.375 l -0.347,1.026 -2.622,7.906 -3.706,7.952 c -7.373,13.482 -6.719,2.649 -6.719,2.649 l 0.973,-4.265 1.288,-4.797 1.164,-1.569 c 0,0 0.75,-1.75 1.167,-2.667 0.417,-0.917 0.25,-2.167 0.25,-2.167 l -0.294,-1.606 c -15.961,-20.606 -18.59,1.33 -18.59,1.33 l 1.016,4.078 c 0.131,13.718 -7.264,3.464 -7.264,3.464 l -1.413,-3.689 -2.455,-3.41 -2,-2.583 -1.167,-2.083 -0.621,-1.383 c -0.121,-4.05 -17.024,-6.449 -17.024,-6.449 -7.229,-0.082 -9.104,-11.835 -9.104,-11.835 l -0.082,-3.237 -2.666,-8.251 -2.797,-4.495 -4.497,-5.072 -5.591,-4.374 -3.435,-2.082 -2.233,-1.116 c -8.352,-5.102 -31.578,0.238 -31.578,0.238 l -3.426,1.4 c -40.889,6.221 -9.369,-10.638 -9.369,-10.638 11.867,-5.167 25.632,-5.417 25.632,-5.417 23.999,-0.084 35.126,10.459 35.126,10.459 l 2.622,2.052 1.753,2.261 c 2.125,6.438 10.019,11.623 10.019,11.623 0,0 16.106,8.439 20.756,10.326 4.65,1.887 10.351,6.497 10.351,6.497 8.25,9.008 12.997,4.363 12.997,4.363 8.747,-9.004 15.658,-9.442 15.658,-9.442 13.738,-4.738 15.338,-11.479 15.338,-11.479 2.41,-6.883 6.34,-9.033 6.34,-9.033 l 9.419,-4.167 c 12.578,-3.367 8.47,-7.938 8.47,-7.938 -4.028,-8.688 -17.269,-5.396 -17.269,-5.396 l -8.189,2.458 c -8.819,3.625 -14.365,0.821 -14.365,0.821 -12.184,-8.804 -23.165,-5.352 -23.165,-5.352 -18.849,6.344 -34.688,2.64 -34.688,2.64 l -6.029,-1.223 c -12.998,-1.937 -21.958,-9.987 -21.958,-9.987 l -8.226,-6.583 c -12.999,-10.476 -16.023,-11.326 -16.023,-11.326 -17.188,-6.885 -24.562,-15.865 -24.562,-15.865 l -1.25,-1.25 c -7,-4.667 6.001,-3.65 6.001,-3.65 l 1.778,-0.249 3.797,-1.2 c 5.076,-2.266 10.719,-1.272 10.719,-1.272 8.542,-0.603 17.542,12.727 17.542,12.727 l 2.538,3.178 2.731,3.096 2.793,2.792 6.349,5.078 6.673,4.157 10.491,5.326 c 32.081,7.233 1.142,-11.968 1.142,-11.968 l -4.049,-1.685 c -7.577,-0.752 -21.13,-23.362 -21.13,-23.362 -12.394,-17.691 -24.647,-9.286 -24.647,-9.286 -11.521,4.35 -17.563,1.733 -17.563,1.733 -14.25,-10 -13.975,3.698 -13.975,3.698 l -2.283,3.417 c -2.591,4.852 -20.761,7.832 -20.761,7.832 l -4.535,0.573 -3.501,0.791 c -9.088,1.463 -5.806,12.15 -5.806,12.15 4.682,9.502 0.885,16.398 0.885,16.398 l -2.49,5.408 c -5.632,11.267 -3.182,16.187 -3.182,16.187 l 2.293,6.223 1.481,3.01 3.908,7.291 3.2,4.755 3.098,5.267 3.167,8.167 c 0,0 2.833,2.542 7.208,1.292 0,0 8.073,-2.669 15.271,4.198 l 2.854,2.239 c 0,0 13.125,10.625 16.75,-6.188 0,0 1.938,-6.5 8.563,-7.938 l 16.938,-3.813 c 0,0 5.875,-2.313 9.5,9.813 l 3.375,11.938 0.375,1.063 0.688,1.375 c 0,0 3.625,4.25 -3.75,5.063 0,0 -4.561,1.293 -2.249,6.74 0,0 5.499,8.822 17.937,3.76 0,0 11.063,-4.438 16.563,0.938 5.5,5.376 3.938,7.125 2.75,11.063 l -6.625,10.313 c 0,0 -1.688,2.938 -0.813,6.375 0.875,3.437 0.875,3.438 0.875,3.438 0,0 1.5,4.188 -4.313,4.375 0,0 -6.063,-0.188 -6.625,5.188 0,0 -0.813,6.063 4.813,12.5 0,0 5.063,6.25 12.25,3.5 0,0 6.688,-3.188 14.563,0.063 l 2.271,1.208 c 0,0 8.189,5.383 9.417,12.583 0,0 1.563,7.396 -1.813,10.583 0,0 -4.799,4.294 -1.743,9.943 l 1.93,5.307 0.125,2.313 c 0,0 2.584,15.125 8.042,0.5 l 0,-1.813 c 0,0 -0.729,-6.938 9.208,-2.375 l 6.604,2.103 c 0,0 7.771,1.96 22.771,-4.79 0,0 12.792,-6.937 10.792,-19.854 0,0 -0.5,-7.833 -6.5,-18.667 0,0 -9.167,-22.417 9.583,-40.417 0,0 11.024,-12.261 15.774,-26.011 0,0 1.195,-2.651 4.001,-6.094 2.064,-2.534 5.001,-5.496 8.975,-8.145 0,0 24.75,-21 32.375,-37.625 0,0 6.741,-14.259 32.82,-31.268 0,0 9.326,-7.937 11.878,-6.084"/></g><g id="码头"><g id="西码头"><line style="fill:#ffffff;stroke:#ffffff;stroke-width:0.7881" id="line19625" y2="1361.078" x2="2920.0281" y1="1351.123" x1="2911.042"/><line style="fill:#ffffff;stroke:#ffffff;stroke-width:0.55800003" id="line19627" y2="1357.689" x2="2924.314" y1="1364.4659" x1="2915.7419"/><rect style="fill:#ffffff;stroke:#ffffff;stroke-width:0.55800003" id="rect19629" height="2.063" width="4.1880002" transform="matrix(0.7876,-0.6161,0.6161,0.7876,-220.8354,2087.9424)" y="1363.3101" x="2916.5"/><rect style="fill:#f29c36;stroke:#f29c36;stroke-width:0.359" id="rect19631" height="2.1289999" width="1.679" transform="matrix(0.7472,-0.6646,0.6646,0.7472,-161.3774,2277.636)" y="1349.873" x="2912.2671"/></g><g id="东码头"><line style="fill:#ffffff;stroke:#ffffff;stroke-width:0.7881" id="line19634" y2="1281.704" x2="3221.4341" y1="1273.903" x1="3210.5249"/><rect style="fill:#ffffff;stroke:#ffffff;stroke-width:0.73570001" id="rect19636" height="2.063" width="7.2810001" transform="matrix(0.5781,-0.816,0.816,0.5781,313.1082,3170.438)" y="1281.411" x="3218.74"/></g></g><g id="垃圾处理站"><polygon style="fill:#f29c36;stroke:#f29c36;stroke-width:1.12510002" id="polygon19639" points="3201.338,1269.151 3203.527,1266.265 3211.244,1272.118 3209.063,1275.01 "/><polygon style="fill:#b3b3b3" id="polygon19641" points="3202.834,1263.583 3199.584,1260.667 3194.917,1263.917 3193.334,1262.083 3189,1264.5 3194.084,1269.417 "/></g></g><g id="中区交通设施"><g id="小径"><path style="fill:none;stroke:#dcc7b5;stroke-width:0.25" inkscape:connector-curvature="0" id="path19645" d="m 2768.423,1342.751 c 0,0 -9.577,4.5 -8.667,14.625 0,0 -1.297,9.857 8.557,8.907 0,0 -1.647,-4.584 4.603,-7.517 0,0 7.917,-4.391 1.667,-10.599 0,0 -5.321,-4.081 -6.16,-5.416 z"/><polyline style="fill:none;stroke:#8d8e89;stroke-width:0.34999999" id="polyline19647" points="2660.002,1203.195 2650.396,1214.379 2649.913,1214.956       2649.789,1215.096 2647.614,1213.183     "/><path style="fill:none;stroke:#8d8e89;stroke-width:0.34999999" inkscape:connector-curvature="0" id="path19649" d="m 2656.322,1207.64 c 0,0 1.035,1.035 2.115,2.124"/><polyline style="fill:none;stroke:#8d8e89;stroke-width:0.34999999" id="polyline19651" points="2664.87,1193.064 2666.351,1194.305 2670.859,1189.267           "/><line style="fill:none;stroke:#8d8e89;stroke-width:0.34999999" id="line19653" y2="1199.9871" x2="2661.45" y1="1194.3051" x1="2666.3511"/></g><g id="支路"><polyline style="fill:none;stroke:#8d8e89;stroke-width:0.5" id="polyline19656" points="2788.845,1168.388 2791.604,1170.702 2794.844,1173.129           "/><ellipse style="fill:none;stroke:#8d8e89;stroke-width:0.5" id="ellipse19658" ry="2.625" rx="1.3559999" cy="1174.132" cx="2795.719" transform="matrix(0.7441,0.6681,-0.6681,0.7441,1499.9755,-1567.3416)"/><path style="fill:none;stroke:#8d8e89;stroke-width:0.5" inkscape:connector-curvature="0" id="path19660" d="m 2789.986,1169.345 c -2.13,2.61 -2.278,3.784 -2.278,3.784 -1.458,5.587 -5.167,18.163 -5.167,18.163 -3.042,13.417 -1.542,15.875 0.625,16.583 2.167,0.708 4.167,-5.625 6.542,-8.958 2.375,-3.333 6.167,-4.458 10.5,-8.542 4.333,-4.084 6.708,-6.917 7.958,-14.292 1.25,-7.375 -3.104,-13.865 -5.542,-16.708 -2.438,-2.843 -3.063,-2.156 -3.063,-2.156 l -9.219,11.781 -0.356,0.345 z"/><path style="fill:none;stroke:#8d8e89;stroke-width:0.5" inkscape:connector-curvature="0" id="path19662" d="m 2783.82,1186.921 3.68,0.829 c 0,0 2.906,1.219 6.781,-3.25 l -0.289,-0.688 0.289,-0.688 1.031,0.313 0.406,0.531 -0.406,0.656 -0.707,0 -0.613,-0.156"/><path style="fill:none;stroke:#8d8e89;stroke-width:0.5" inkscape:connector-curvature="0" id="path19664" d="m 2783.167,1207.875 c 0,0 -0.854,2.375 -0.698,4.593 l 0.875,0 -1.781,0"/><path style="fill:none;stroke:#8d8e89;stroke-width:0.80000001" inkscape:connector-curvature="0" id="path19666" d="m 2636.066,1254.208 c 0,0 5.057,-6.841 4.52,-10.057 -0.537,-3.216 5.717,-6.273 5.717,-6.273"/><path style="fill:none;stroke:#8d8e89;stroke-width:0.71310002" inkscape:connector-curvature="0" d="m 2766.032,1211.155 c 0,0 -3.866,1.031 -5.874,-1.64 -2.007,-2.671 -2.687,-2.726 -2.687,-2.726" id="社安后巷"/><line style="fill:none;stroke:#8d8e89;stroke-width:0.71310002" id="line19669" y2="1215.322" x2="2750.417" y1="1224.396" x1="2761.4241"/><line style="fill:none;stroke:#8d8e89;stroke-width:0.80180001" id="line19671" y2="1222.66" x2="2670.356" y1="1231.281" x1="2680.7549"/><line style="fill:none;stroke:#8d8e89;stroke-width:0.80400002" id="line19673" y2="1212.359" x2="2657.751" y1="1221.868" x1="2669.187"/><line style="fill:none;stroke:#8d8e89;stroke-width:0.80400002" id="line19675" y2="1198.844" x2="2669.7041" y1="1208.353" x1="2681.1389"/><path style="fill:none;stroke:#8d8e89;stroke-width:0.80000001" inkscape:connector-curvature="0" id="path19677" d="m 2647.496,1237.425 c 0,0 3.312,-1.034 3.455,-4.401 0.143,-3.367 3.295,0.774 5.985,-0.578 2.69,-1.352 12.669,1.841 3.023,4.51 -9.646,2.669 -1.412,11.419 5.94,3.888 0,0 1.757,-2.438 3.476,-0.5 1.719,1.938 -2.088,1.45 1.3,3.819"/><path style="fill:none;stroke:#8d8e89;stroke-width:0.80000001" inkscape:connector-curvature="0" id="path19679" d="m 2640.5,1242.827 c 0,0 -6.667,-3.978 -5.333,-10.381 1.334,-6.403 0.374,-10.272 7.271,-19.776"/><path style="fill:none;stroke:#8d8e89;stroke-width:0.80000001" inkscape:connector-curvature="0" id="path19681" d="m 2624.75,1236.853 c 0,0 5.744,0.839 10.528,-0.601"/><line style="fill:none;stroke:#8d8e89;stroke-width:0.80000001" id="line19683" y2="1168.338" x2="2677.2019" y1="1210.059" x1="2641.364"/><line style="fill:none;stroke:#8d8e89;stroke-width:0.80000001" id="line19685" y2="1172.272" x2="2682.335" y1="1213.993" x1="2646.498"/><path style="fill:none;stroke:#8d8e89;stroke-width:0.40000001" inkscape:connector-curvature="0" id="path19687" d="m 2636.868,1239.819 c 0,0 -2.035,1.556 -4.139,2.056 -2.104,0.5 0.41,2.52 1.043,3.229 0.633,0.709 0.321,-0.712 0.321,-0.712 l -0.268,-0.229 -0.539,0.301"/><line style="fill:none;stroke:#8d8e89;stroke-width:0.80000001" id="line19689" y2="1192.704" x2="2694.406" y1="1183.095" x1="2683.0649"/><path style="fill:none;stroke:#8d8e89;stroke-width:0.80000001" inkscape:connector-curvature="0" id="path19691" d="m 2708.833,1165.971 c 0,0 -8.573,5.418 -11.958,6.232 -3.667,0.881 -3.208,3.286 -2.375,4.083 0.833,0.797 4.25,3.458 4.25,3.458 0,0 2.417,3.393 4.667,-4.384 2.25,-7.777 4.625,-6.258 5.708,-7.684 0,0 2.688,-3.256 -0.292,-1.705 z"/><line style="fill:none;stroke:#8d8e89;stroke-width:0.80000001" id="line19693" y2="1179.928" x2="2701.2339" y1="1181.829" x1="2703.417"/><line style="fill:none;stroke:#8d8e89;stroke-width:0.80000001" id="line19695" y2="1172.498" x2="2692.2971" y1="1173.844" x1="2693.918"/><line style="fill:none;stroke:#8d8e89;stroke-width:0.80000001" id="line19697" y2="1170.485" x2="2700.9761" y1="1173.017" x1="2704.031"/><line style="fill:none;stroke:#8d8e89;stroke-width:0.80000001" id="line19699" y2="1254.705" x2="2681.4819" y1="1246.116" x1="2671.2051"/><polyline style="fill:none;stroke:#8d8e89;stroke-width:0.5" id="polyline19701" points="2662.146,1257.188 2666.156,1260.326 2660.875,1266.719       2663.491,1268.281 2668.531,1262.241 2672.5,1265.344     "/><path style="fill:none;stroke:#8d8e89;stroke-width:0.5" inkscape:connector-curvature="0" id="path19703" d="m 2601.75,1339.909 c 0,0 -0.875,-5.228 2.719,-5.318 3.594,-0.09 11.835,-1.468 14.683,-4.904 2.848,-3.436 1.411,-4.216 8.911,-4.607 7.5,-0.391 5.396,-2.61 4.198,-4.782 0,0 -3.636,-6.469 9.989,-8.227 13.625,-1.758 10.393,-1.545 10.393,-1.545"/><line style="fill:none;stroke:#8d8e89;stroke-width:0.5" id="line19705" y2="1324.201" x2="2634.749" y1="1323.5649" x1="2633.333"/><line style="fill:none;stroke:#8d8e89;stroke-width:0.5" id="line19707" y2="1310.525" x2="2630.625" y1="1314.746" x1="2633.9121"/><path style="fill:none;stroke:#8d8e89;stroke-width:0.5" inkscape:connector-curvature="0" id="path19709" d="m 2621.688,1339.909 c 0,0 2.366,2.153 -0.348,5.653 0,0 -1.718,3.438 2.909,4"/><polyline style="fill:none;stroke:#8d8e89;stroke-width:0.80000001" id="polyline19711" points="2677.834,1167.657 2691.815,1151.985 2701.575,1141.001           "/><line style="fill:none;stroke:#8d8e89;stroke-width:0.80000001" id="line19713" y2="1156.125" x2="2695.7329" y1="1149.174" x1="2686.5"/><path style="fill:none;stroke:#8d8e89;stroke-width:0.80000001" inkscape:connector-curvature="0" id="path19715" d="m 2719.981,1184.2 -3.967,-3.363 c 0,0 -1.701,-1.433 -1.995,-3.009"/><line style="fill:none;stroke:#8d8e89;stroke-width:0.80000001" id="line19717" y2="1324.53" x2="2608.4131" y1="1314.156" x1="2602.0649"/><line style="fill:none;stroke:#8d8e89;stroke-width:0.5" id="line19719" y2="1314.594" x2="2624.248" y1="1304.281" x1="2617.188"/><line style="fill:none;stroke:#8d8e89;stroke-width:0.80000001" id="line19721" y2="1339.9091" x2="2571.167" y1="1328.167" x1="2567.792"/><polyline style="fill:none;stroke:#8d8e89;stroke-width:0.80000001" id="polyline19723" points="2557.417,1329.377 2558.667,1338.072 2560.52,1343.21           "/><path style="fill:none;stroke:#8d8e89;stroke-width:0.80000001" inkscape:connector-curvature="0" id="path19725" d="m 2554.907,1345.113 c 0,0 -0.994,4.841 0.3,9.708"/><path style="fill:none;stroke:#8d8e89;stroke-width:0.80000001" inkscape:connector-curvature="0" id="path19727" d="m 2555.207,1355.25 c 0,0 2.585,10.917 1.502,12 0,0 -2.807,6.292 -18.049,7.542"/><line style="fill:none;stroke:#8d8e89;stroke-width:0.5" id="line19729" y2="1363.432" x2="2573.926" y1="1349.698" x1="2568.583"/><line style="fill:none;stroke:#8d8e89;stroke-width:0.80000001" id="line19731" y2="1375" x2="2565" y1="1366.542" x1="2557.0491"/><path style="fill:none;stroke:#8d8e89;stroke-width:0.5" inkscape:connector-curvature="0" id="path19733" d="m 2571.877,1365.725 -3.293,-5.891 -5.664,2.613 c 0,0 -1.33,1.292 0,2.819 1.33,1.527 1.607,2.151 1.607,2.151 0,0 0.807,1.188 1.37,-0.458 0,0 0.291,-0.604 -0.542,-0.333 -0.833,0.271 -0.958,0.292 -0.958,0.292"/><polyline style="fill:none;stroke:#8d8e89;stroke-width:0.80000001" id="polyline19735" points="2547.545,1446.972 2545.344,1448.25 2532.875,1456.625       2529.271,1459.265     "/><path style="fill:none;stroke:#8d8e89;stroke-width:0.80000001" inkscape:connector-curvature="0" id="path19737" d="m 2488.332,1507.969 c 0,0 -14.165,-4.968 -14.665,-5.135 -0.5,-0.167 -11.167,-4.167 -0.667,-24.667 10.5,-20.5 13.333,-22.833 13.333,-22.833 0,0 10.93,-16.83 29.132,-4.832"/><line style="fill:none;stroke:#8d8e89;stroke-width:0.80000001" id="line19739" y2="1468.248" x2="2543.864" y1="1451.25" x1="2516.25"/><path style="fill:none;stroke:#8d8e89;stroke-width:0.80000001" inkscape:connector-curvature="0" id="path19741" d="M 2505.911,1446.187"/><path style="fill:none;stroke:#8d8e89;stroke-width:0.80000001" inkscape:connector-curvature="0" id="path19743" d="M 2504.881,1446.323 2507,1440 c 0,0 -12.25,-8.251 -25.875,6.187 0,0 -14.375,15.313 -23.25,49.063 0,0 -3.875,12.75 13,18 l 4.862,-9.695"/><line style="fill:none;stroke:#8d8e89;stroke-width:0.80000001" id="line19745" y2="1459.749" x2="2460" y1="1468.884" x1="2477.8921"/><path style="fill:none;stroke:#8d8e89;stroke-width:0.80000001" inkscape:connector-curvature="0" id="path19747" d="m 2507,1440 c 0,0 5.75,3.563 7.625,2.313 1.875,-1.25 2.125,-2 2.125,-2"/><circle style="fill:#dcc7b5;stroke:#8d8e89;stroke-width:0.80000001" id="circle19749" r="1.156" cy="1439.281" cx="2517.406"/><path style="fill:none;stroke:#8d8e89;stroke-width:0.80000001" inkscape:connector-curvature="0" id="path19751" d="m 2487.688,1520.938 c -1.75,-0.063 -1.75,-1.188 -1.75,-1.188 0,0 -0.25,-2.75 -3.313,-3.25 -3.063,-0.5 -11.75,-3.25 -11.75,-3.25 l -3.625,6.917"/><circle style="fill:#dcc7b5;stroke:#8d8e89;stroke-width:0.80000001" id="circle19753" r="1.531" cy="1520.719" cx="2489.219"/><ellipse style="fill:none;stroke:#8d8e89;stroke-width:0.83380002" id="ellipse19755" ry="5.2059999" rx="10.888" cy="1374.553" cx="2602.457" transform="matrix(0.9046,-0.4263,0.4263,0.9046,-337.6523,1240.6238)"/><path style="fill:none;stroke:#8d8e89;stroke-width:0.80000001" inkscape:connector-curvature="0" id="path19757" d="m 2634.512,1367.626 c -12.238,7.251 -22.1,3.145 -22.1,3.145"/><polyline style="fill:none;stroke:#8d8e89;stroke-width:0.80000001" id="polyline19759" points="2570.061,1410.667 2578.5,1414.875 2601.25,1425.135     "/><polyline style="fill:none;stroke:#8d8e89;stroke-width:0.80000001" id="polyline19761" points="2569.153,1410.167 2565.398,1407.833 2563.445,1406.546       2550.438,1408.389 2537.894,1410.167     "/><path style="fill:none;stroke:#8d8e89;stroke-width:0.64780003" inkscape:connector-curvature="0" id="path19763" d="M 2593.391,1380.151"/><path style="fill:none;stroke:#8d8e89;stroke-width:0.80000001" inkscape:connector-curvature="0" id="path19765" d="m 2539.178,1452.392 c 0,0 8.182,5.358 15.294,1.275 7.112,-4.083 8.778,-11.334 7.612,-13.667 -1.166,-2.333 -4.75,-5.111 -12.25,-2.347 -7.5,2.764 -10.656,9.514 -10.656,9.514 0,0 -1.405,2.333 0,4.917"/><ellipse style="fill:#dcc7b5;stroke:#8d8e89;stroke-width:0.53799999" id="ellipse19767" ry="4.1599998" rx="2.6600001" cy="1445.125" cx="2551.272" transform="matrix(0.4439,0.8961,-0.8961,0.4439,2713.6846,-1482.5017)"/><circle style="fill:none;stroke:#8d8e89;stroke-width:0.80000001" id="circle19769" r="3.3540001" cy="1448.479" cx="2529.854"/><circle style="fill:none;stroke:#8d8e89;stroke-width:0.5381" id="circle19771" r="2.256" cy="1459.463" cx="2541.7371"/><line style="fill:none;stroke:#8d8e89;stroke-width:0.5381" id="line19773" y2="1448.479" x2="2533.209" y1="1448.14" x1="2538.553"/><line style="fill:none;stroke:#8d8e89;stroke-width:0.5381" id="line19775" y2="1457.2061" x2="2542.833" y1="1454.5129" x1="2543.9929"/><line style="fill:none;stroke:#8d8e89;stroke-width:0.80000001" id="line19777" y2="1426.1949" x2="2578.116" y1="1417.925" x1="2584.6421"/><path style="fill:none;stroke:#8d8e89;stroke-width:0.80000001" inkscape:connector-curvature="0" id="path19779" d="m 2581.064,1422.369 c 0,0 -8.981,-4.869 -16.481,1.381 0,0 -13.083,13.5 15.417,12.75 28.5,-0.75 -0.372,-14.096 1.064,-14.131 z"/><ellipse style="fill:#dcc7b5;stroke:#8d8e89;stroke-width:0.65939999" id="ellipse19781" ry="3.2980001" rx="6.6230001" cy="1429.1899" cx="2576.012" transform="matrix(0.9941,0.1085,-0.1085,0.9941,170.3254,-271.1318)"/><path style="fill:none;stroke:#8d8e89;stroke-width:0.80000001" inkscape:connector-curvature="0" id="path19783" d="m 2558.249,1450.749 c 0,0 2.981,-3.415 9.866,-3.332 0,0 8.383,0.278 9.552,-5.308 1.169,-5.586 7.228,-5.741 9.304,-6.197"/><path style="fill:none;stroke:#8d8e89;stroke-width:0.80000001" inkscape:connector-curvature="0" id="path19785" d="m 2561.586,1428.546 c 0,0 -7.541,0.471 -10.313,8.629"/><path style="fill:none;stroke:#8d8e89;stroke-width:0.80000001" inkscape:connector-curvature="0" id="path19787" d="m 2670.044,1384.18 10.122,16.07 c 0,0 3.167,3.667 6.833,4.833"/><circle style="fill:none;stroke:#8d8e89;stroke-width:0.92799997" id="circle19789" r="0.66500002" cy="1405.165" cx="2687.666"/><path style="fill:none;stroke:#8d8e89;stroke-width:0.80000001" inkscape:connector-curvature="0" id="path19791" d="m 2490.4,1510.448 c 0,0 -0.4,-2.773 4.85,-7.569 1.145,-1.045 1.885,-1.811 2.351,-2.438 1.668,-2.252 -0.206,-2.742 0.316,-8.095 0,0 -0.083,-12.206 10.583,-22.567 10.666,-10.361 14.041,-6.104 14.041,-6.104 0,0 4.895,2.482 1.052,13.404 -3.843,10.922 -8.76,26.5 -21.676,25.127 0,0 -4.784,-0.319 -4.885,-0.643"/><line style="fill:none;stroke:#8d8e89;stroke-width:0.80000001" id="line19793" y2="1464.679" x2="2523.478" y1="1458.277" x1="2528.334"/><line style="fill:none;stroke:#8d8e89;stroke-width:0.80000001" id="line19795" y2="1510.188" x2="2505.041" y1="1502.3781" x1="2505.041"/><ellipse style="fill:#dcc7b5;stroke:#8d8e89;stroke-width:0.61180001" id="ellipse19797" ry="2.6199999" rx="4.2690001" cy="1512.865" cx="2505.041"/><path style="fill:none;stroke:#8d8e89;stroke-width:0.80000001" inkscape:connector-curvature="0" id="path19799" d="m 2498.554,1498.823 c 0,0 9.899,0.558 12.86,-9.945 2.961,-10.503 8.376,-16.871 8.376,-16.871 0,0 0.988,-2.022 0.037,-1.89"/><circle style="fill:#dcc7b5;stroke:#8d8e89;stroke-width:0.80000001" id="circle19801" r="1.706" cy="1470.599" cx="2518.1211"/><path style="fill:none;stroke:#8d8e89;stroke-width:0.80000001" inkscape:connector-curvature="0" id="path19803" d="m 2549.879,1408.806 0.168,5.543 c 0,0 -0.251,4.202 -3.931,5.583 -3.68,1.381 -2.869,2.601 -2.869,2.601"/><circle style="fill:none;stroke:#8d8e89;stroke-width:0.80000001" id="circle19805" r="1.151" cy="1422.748" cx="2544.314"/><polyline style="fill:none;stroke:#8d8e89;stroke-width:0.64780003" id="polyline19807" points="2562.135,1406.546 2561.708,1406.792 2582.167,1392.125       2594.573,1380.788     "/><line style="fill:none;stroke:#8d8e89;stroke-width:0.80000001" id="line19809" y2="1404.563" x2="2603.167" y1="1417.542" x1="2584.8169"/><polyline style="fill:none;stroke:#8d8e89;stroke-width:0.80000001" id="polyline19811" points="2637.035,1374.099 2636.917,1373.839 2625.865,1349.408           "/><path style="fill:none;stroke:#8d8e89;stroke-width:0.60000002" inkscape:connector-curvature="0" id="path19813" d="m 2658.792,1363.047 c 0,0 -1.625,-4.921 0,-7.005 1.625,-2.084 -3.125,-2.445 -5.083,-5.639 0,0 -2.625,-5.486 -6.792,2.472 0,0 -2.042,3.832 -9.5,7.208 l -3.75,1.876 1.875,4.583 -1.43,1.096"/><line style="fill:none;stroke:#8d8e89;stroke-width:0.80000001" id="line19815" y2="1379.818" x2="2624.6831" y1="1390.474" x1="2629.2649"/><path style="fill:none;stroke:#8d8e89;stroke-width:0.80000001" inkscape:connector-curvature="0" id="path19817" d="m 2607.031,1410.667 7.927,-8.801 c 0,0 7.867,-8.069 10.208,-9.342 0,0 10.205,-7.229 25.769,-2.376 0,0 10.347,2.626 21.768,-7.917 0,0 6.781,-6.855 15.32,-5.605 0,0 5.965,0.506 7.477,-3.375 11.746,-30.169 -10.591,-16.503 -10.591,-16.503 -7.341,4.914 -23.039,13.109 -23.039,13.109 -10.129,5.773 -34.846,15.409 -34.846,15.409 l -14.02,5.922"/><line style="fill:none;stroke:#8d8e89;stroke-width:0.80000001" id="line19819" y2="1364.231" x2="2659.75" y1="1369.583" x1="2662.3911"/><path style="fill:none;stroke:#8d8e89;stroke-width:0.80000001" inkscape:connector-curvature="0" id="path19821" d="m 2695.503,1353.833 c 0,0 0.372,-6.185 4.247,-7.072 3.875,-0.887 3.188,-1.798 3.188,-1.798"/><circle style="fill:none;stroke:#8d8e89;stroke-width:0.80000001" id="circle19823" r="0.84399998" cy="1344.264" cx="2702.656"/><line style="fill:none;stroke:#8d8e89;stroke-width:0.80000001" id="line19825" y2="1394.85" x2="2614.261" y1="1388" x1="2611.229"/><circle style="fill:none;stroke:#8d8e89;stroke-width:0.80000001" id="circle19827" r="0.87400001" cy="1387.438" cx="2610.875"/><circle style="fill:none;stroke:#8d8e89;stroke-width:0.80000001" id="circle19829" r="0.87400001" cy="1395.486" cx="2614.6001"/><path style="fill:none;stroke:#8d8e89;stroke-width:0.80000001" inkscape:connector-curvature="0" id="path19831" d="m 2644.6,1378.046 c 0,0 0.9,6.343 10.65,4.117 9.75,-2.226 27.113,-10.281 21.432,-20.41"/><polygon style="fill:#e9e5dc" id="polygon19833" points="2650.253,1390.746 2653.675,1391.605 2637.919,1453.693 2634.5,1452.825 "/><polygon style="fill:#e9e5dc" id="polygon19835" points="2604.508,1451.209 2638.288,1451.224 2638.284,1455.673 2604.493,1455.659 "/><polyline style="fill:none;stroke:#8d8e89;stroke-width:0.80000001" id="polyline19837" points="2651.972,1390.564 2636.333,1452.77 2608.016,1452.77           "/><circle style="fill:none;stroke:#8d8e89;stroke-width:0.98460001" id="circle19839" r="0.83899999" cy="1452.77" cx="2607.177"/><path style="fill:none;stroke:#8d8e89;stroke-width:0.80000001" inkscape:connector-curvature="0" id="path19841" d="m 2544.315,1468.594 20.247,16.73 c 0,0 1.875,1.696 -2,2.936 -3.875,1.24 -9.747,11.74 -13.967,24.24 -4.22,12.5 -5.277,1.163 -4.28,-0.356 0,0 2.935,-8.482 3.497,-13.907 0.562,-5.425 8.063,-14.09 8.063,-14.09 0,0 2.375,-3.411 6.5,3.784 l 0.083,0.132"/></g><g id="道路_2_"><path style="fill:none;stroke:#4c4d48;stroke-width:2.4000001" inkscape:connector-curvature="0" id="path19844" d="m 2788.5,1607.007 -6.098,0 -44.736,0 c 0,0 -85.667,0.118 -86.542,0.118 -0.875,0 -33.125,-0.118 -33.125,-0.118 -6,-0.118 -17.736,-9.168 -17.736,-9.168 l -12.097,-9.172 -89.5,-66.667 c 0,0 -36.667,-30.5 10.833,-66.5 47.5,-36 21.625,-97.563 26.5,-106.5 l 6.25,-12.313 c 0,0 3.563,-8.563 25.125,-9.563 21.562,-1 59.959,-31.292 63.292,-34.125 3.333,-2.833 82.833,-99.935 82.833,-99.935 l 57.509,-66.454"/><path style="fill:none;stroke:#4c4d48;stroke-width:1.10000002" inkscape:connector-curvature="0" id="path19846" d="M 2717.297,1303.523"/><path style="fill:none;stroke:#4c4d48;stroke-width:1.89999998" inkscape:connector-curvature="0" id="path19848" d="m 2717.047,1321.297 0.672,-0.047 c 3.779,-4.624 6.281,-2.594 6.281,-2.594 12.656,8.75 24.333,-6.49 24.333,-6.49 l 38.5,-44 c 0,0 14.167,-14 3.5,-39 -10.667,-25 6.333,-32.333 6.333,-32.333 0,0 33.167,-18 2,-45.167 -31.167,-27.167 -37.703,-35.333 -37.703,-35.333 0,0 -12.797,-15.5 -30.797,-8.333 -18,7.167 -96.166,99 -96.166,99 0,0 -12.5,15.5 -9.5,34 1.348,8.311 19.545,21.262 39.183,33.009 24.076,14.402 50.317,26.991 50.317,26.991 0,0 1.331,0.647 2.797,2.027 0.166,0.156 0.333,0.321 0.5,0.496 2.57,2.684 5.139,7.602 1.455,15.201 -0.131,0.27 -0.27,0.542 -0.417,0.819 -0.287,0.54 -0.604,1.092 -0.955,1.657 -0.061,0.098 -0.122,0.196 -0.185,0.294 -3.915,6.16 -11.742,13.85 -26.103,23.256 -48.093,31.5 -76.593,37.5 -76.593,37.5 0,0 -27.5,8.305 -68.75,50.402 0,0 -10.713,10.371 -19.648,5.442 -8.935,-4.929 -15.352,-6.511 -15.352,-6.511 0,0 -30.27,-14.091 -53.25,31.417 -22.98,45.508 6.75,56.566 6.75,56.566 0,0 42.5,20.684 58,-11.816 15.5,-32.5 16.306,-43.963 46.903,-51.731 0,0 7.847,-2.019 11.097,-6.519 3.25,-4.5 3.75,-6.5 13.25,-7.25 0,0 3.886,0.072 4.897,-4.846 1.011,-4.918 8.27,-26.904 8.27,-26.904 l -8.385,-19.657"/><path style="fill:none;stroke:#4c4d48;stroke-width:1.10000002" inkscape:connector-curvature="0" id="path19850" d="M 2717.766,1304.5"/><path style="fill:none;stroke:#4c4d48;stroke-width:1.10000002" inkscape:connector-curvature="0" id="path19852" d="M 2717.297,1303.523"/><path style="fill:none;stroke:#4c4d48;stroke-width:1.5" inkscape:connector-curvature="0" id="path19854" d="m 2780.243,1135.25 -3.41,4.083 c -3.221,4.257 -106.5,129.542 -106.5,129.542 l -4.792,5.833 0,49.859"/><polyline style="fill:none;stroke:#4c4d48;stroke-width:1.5" id="polyline19856" points="2790.46,1144.9 2682.5,1276.458 2677.708,1282.291       2677.708,1324.739     "/><polyline style="fill:none;stroke:#4c4d48;stroke-width:1.5" id="polyline19858" points="2800.262,1153.103 2695.31,1282.848 2690.518,1288.682       2690.518,1326.348     "/><path style="fill:none;stroke:#4c4d48;stroke-width:1.5" inkscape:connector-curvature="0" id="path19860" d="m 2786.867,1215.743 c -21.883,1.327 -28.117,12.241 -28.117,12.241 l -51.339,61.576 -4.792,5.833 0,22.659"/><path style="fill:none;stroke:#4c4d48;stroke-width:1.5" inkscape:connector-curvature="0" id="path19862" d="m 2715.37,1301.228 4.792,-5.833 44.088,-52.395 c 0,0 10.938,-15.996 26.781,-12.123"/><path style="fill:none;stroke:#4c4d48;stroke-width:1.89999998" inkscape:connector-curvature="0" id="path19864" d="m 2778.488,1276.921 -118.289,-99.245 -24.669,-21.301 c 0,0 -10.483,-10.172 -1.819,-22.586"/><line style="fill:none;stroke:#4c4d48;stroke-width:1.89999998" id="line19866" y2="1191.953" x2="2647.7019" y1="1291.198" x1="2765.991"/><line style="fill:none;stroke:#4c4d48;stroke-width:1.89999998" id="line19868" y2="1205.946" x2="2635.53" y1="1305.191" x1="2753.8191"/><path style="fill:none;stroke:#4c4d48;stroke-width:1.89999998" inkscape:connector-curvature="0" id="path19870" d="M 2785,1252.625"/><path style="fill:none;stroke:#4c4d48;stroke-width:1.5" inkscape:connector-curvature="0" id="path19872" d="m 2754,1147.688 30.241,25.222 c 2.991,0.659 -1.866,9.12 -1.866,9.12 0,0 -6.732,11.624 -3.97,33.797 2.762,22.173 7.792,43.336 7.792,43.336"/><path style="fill:none;stroke:#4c4d48;stroke-width:1.50049996" inkscape:connector-curvature="0" id="path19874" d="m 2764.125,1201.969 14.28,50.656 -14.28,-50.656 z"/><polyline style="fill:none;stroke:#4c4d48;stroke-width:1.5" id="polyline19876" points="2764.125,1202 2763.343,1198.736 2732.25,1172.848     "/><path style="fill:none;stroke:#4c4d48;stroke-width:1.5" inkscape:connector-curvature="0" id="path19878" d="m 2730.966,1171.456 c 0,0 -4.391,-4.274 -8.146,0.128 -3.757,4.403 -19.86,11.285 -13.864,1.403 5.998,-9.882 13.304,-6.07 8.648,-10.926 -4.656,-4.856 -21.487,8.683 -24.154,8.312 -2.666,-0.372 -11.779,-3.487 0.636,-12.453 12.415,-8.966 13.926,-28.71 10.069,-28.271"/><path style="fill:none;stroke:#4c4d48;stroke-width:1.5" inkscape:connector-curvature="0" id="path19880" d="m 2693.45,1170.372 -2.075,2.476 -40.265,46.17 c 0,0 -11.944,13.149 -1.61,21.316 10.334,8.167 69.844,56.056 69.844,56.056"/><polyline style="fill:none;stroke:#4c4d48;stroke-width:1.5" id="polyline19882" points="2663.592,1229.49 2675.626,1215.382 2706.083,1179.5       2707.991,1177.473     "/><path style="fill:none;stroke:#4c4d48;stroke-width:1.5" inkscape:connector-curvature="0" id="path19884" d="m 2539.479,1386.667 c 0,0 18.353,0.667 29.865,-16.333 11.512,-17 18.353,-22.5 22.357,-22.167 4.005,0.333 7.049,-0.014 7.049,-0.014 l 19.896,1.847 c 0,0 6.202,1.868 12.736,-3.441 6.534,-5.309 11.415,-11.684 11.415,-11.684 0,0 6.882,-8.875 16.518,-9.625 9.636,-0.75 5.756,-0.625 5.756,-0.625 0,0 18.27,-0.875 22.524,1.063 4.254,1.938 9.072,-0.813 9.072,-0.813 0,0 2.065,-1.188 3.129,-2.938 1.063,-1.75 15.302,-20.273 15.302,-20.273"/><path style="fill:none;stroke:#4c4d48;stroke-width:1.5" inkscape:connector-curvature="0" id="path19886" d="m 2690.518,1305.191 -42.018,0 c 0,0 -10.504,-1.978 -19.189,-11.084"/><path style="fill:none;stroke:#4c4d48;stroke-width:1.5" inkscape:connector-curvature="0" id="path19888" d="m 2639.29,1301.664 c -11.543,14.997 -45.457,30.836 -45.457,30.836 l -10.623,3.958"/><path style="fill:none;stroke:#4c4d48;stroke-width:1.89999998" inkscape:connector-curvature="0" id="path19890" d="M 2537.165,1369.636"/><path style="fill:none;stroke:#4c4d48;stroke-width:1.5" inkscape:connector-curvature="0" id="path19892" d="m 2690.518,1314.494 -24.977,0.01 c -19.083,-0.125 -8.292,1.75 -22.667,3.553 -14.375,1.803 -4.25,24.447 -34,22.572 0,0 -15.867,-2.346 -23.34,1.546"/><line style="fill:none;stroke:#4c4d48;stroke-width:1.10000002" id="line19894" y2="1324.751" x2="2578.449" y1="1349.01" x1="2588.3169"/><line style="fill:none;stroke:#4c4d48;stroke-width:1.5" id="line19896" y2="1326.92" x2="2653" y1="1305.191" x1="2653"/><line style="fill:none;stroke:#4c4d48;stroke-width:1.5" id="line19898" y2="1295.875" x2="2690.5181" y1="1295.875" x1="2665.542"/><path style="fill:none;stroke:#4c4d48;stroke-width:1.5" inkscape:connector-curvature="0" id="path19900" d="m 2546.41,1332.49 -10.493,0.844 c -11.389,1.164 -19.043,3.362 -24.667,6.71 -0.284,0.169 -0.563,0.341 -0.837,0.516 -1.684,1.076 -3.179,2.263 -4.539,3.565 -5.958,5.708 -13.083,6.75 -14.625,6.75 -1.542,0 -10.708,1 -12.375,-7.875 -1.667,-8.875 -9.458,-13.167 -9.458,-13.167 0,0 -1.5,-0.833 -11.333,-5.958 -0.05,-0.026 -0.101,-0.053 -0.15,-0.079 -9.692,-5.136 -10.6,-13.837 -10.6,-13.837 l -1.083,-8.75 c -0.792,-12.792 -7.958,-11.708 -7.958,-11.708 0,0 4.292,0.167 -4.292,-0.292 -8.584,-0.459 -5.208,-6.083 -5.208,-6.083 0,0 2.333,-4.208 2.417,-4.375 0.084,-0.167 2.25,-4.917 2.25,-4.917 0,0 0.417,-1.625 -0.333,-5.333 -0.75,-3.708 9.75,-6.708 9.75,-6.708 0,0 7.161,-1.646 6.833,-7.208 -0.328,-5.562 2.917,-7.083 2.917,-7.083 0,0 3.5,-2.125 4.833,-4.375 1.333,-2.25 5.083,-3 7.333,-0.625 2.25,2.375 6.875,-0.5 6.875,-0.5 0,0 14.333,-7.5 28.708,-8.188 14.375,-0.688 30.063,-0.563 30.063,-0.563 0,0 5.813,0.438 7.875,6.313 2.062,5.875 5.813,11.375 6.375,11.813 0.562,0.438 2,2.438 4.125,3.563 2.125,1.125 0.875,6.188 0,6.625 -0.875,0.437 -1.375,2.313 0.438,7 0,0 1.542,3.521 -2.917,7.604 0,0 -1.875,1.25 -0.833,6.583 0,0 0.875,4.083 -2.417,5.75 -3.292,1.667 -7.125,4.875 -7.125,4.875 0,0 -1.417,0.708 -0.875,6.083 0.542,5.375 -1.583,11.375 -1.583,11.375 0,0 -2.042,5.167 -10.042,9.833 0,0 -1.417,1 -2.333,2.042 -0.916,1.042 -7.875,8.75 -7.875,8.75 0,0 -2.208,2.583 0.542,6.75"/><line style="fill:none;stroke:#4c4d48;stroke-width:1.89999998" id="line19902" y2="1163.566" x2="2672.2571" y1="1262.812" x1="2790.5459"/><path style="fill:none;stroke:#4c4d48;stroke-width:1.5" inkscape:connector-curvature="0" id="path19904" d="m 2634.522,1132.22 c 0,0 -2.439,6.03 -14.439,7.197 -12,1.167 -14.833,12.75 5,15.833 0,0 12.383,2.049 18.775,8.316"/><path style="fill:none;stroke:#4c4d48;stroke-width:1.10000002" inkscape:connector-curvature="0" id="path19906" d="m 2609.929,1167.11 c 0,0 10.776,-11.723 22.08,-10.073"/><path style="fill:none;stroke:#4c4d48;stroke-width:1.89999998" inkscape:connector-curvature="0" id="path19908" d="m 2800.5,1152.875 c 0,0 3.875,-5.5 17.625,-4.625 13.75,0.875 34.042,0.792 34.042,0.792 0,0 50.109,0.449 98.346,6.454 33.479,4.167 38.903,13.433 60.988,15.745 9.735,1.02 22.708,0.688 42.749,-2.026 65.503,-8.873 51,-55.964 134.75,-22.964 83.75,33 93.5,-2.25 72.5,-47.25 -21,-45 -24.754,-39.006 -32.887,-37 l -6.28,1.833"/><path style="fill:none;stroke:#4c4d48;stroke-width:1.5" inkscape:connector-curvature="0" id="path19910" d="m 2808.683,1163.375 c 0,0 0.618,-15.65 14.817,-14.843"/><path style="fill:none;stroke:#4c4d48;stroke-width:1.5" inkscape:connector-curvature="0" id="path19912" d="m 2550.333,1258.163 c 0,0 9.917,1.958 22.167,-1.978 12.25,-3.936 26.978,-20.654 50.833,-19.436"/><path style="fill:none;stroke:#4c4d48;stroke-width:1.10000002" inkscape:connector-curvature="0" id="path19914" d="m 2743.833,1317.542 5.125,6 c 0,0 2.606,3.063 3.615,9.448 1.01,6.385 12.676,15.26 12.676,15.26 l 3.063,2.625 c 0,0 -2.126,1.063 -0.813,2.375 1.313,1.312 2.458,0 2.458,0 l 0.833,-0.833 -1.042,-1.042 -1.437,-0.5"/><path style="fill:none;stroke:#4c4d48;stroke-width:1.5" inkscape:connector-curvature="0" id="path19916" d="m 2583.211,1336.458 -16.711,5.69 c 0,0 -16.926,7.04 -26.296,-1.429"/><line style="fill:none;stroke:#4c4d48;stroke-width:1.5" id="line19918" y2="1362.719" x2="2536.27" y1="1342.171" x1="2585.5349"/><path style="fill:none;stroke:#4c4d48;stroke-width:1.89999998" inkscape:connector-curvature="0" id="path19920" d="m 3002.448,1169.75 1.864,-0.375 c 0,0 20.688,-7.188 23.75,-25.25 l 0.886,-4.064"/><path style="fill:none;stroke:#4c4d48;stroke-width:1.89999998" inkscape:connector-curvature="0" id="path19922" d="m 3029.438,1144.5 c 2.188,15.563 29.875,23.375 29.875,23.375 l 2.916,0"/></g></g></g></svg>
