<?xml version="1.0" encoding="UTF-8" standalone="no"?>
<!-- Generator: Adobe Illustrator 14.0.0, SVG Export Plug-In . SVG Version: 6.00 Build 43363)  -->

<svg
   xmlns:dc="http://purl.org/dc/elements/1.1/"
   xmlns:cc="http://creativecommons.org/ns#"
   xmlns:rdf="http://www.w3.org/1999/02/22-rdf-syntax-ns#"
   xmlns:svg="http://www.w3.org/2000/svg"
   xmlns="http://www.w3.org/2000/svg"
   xmlns:sodipodi="http://sodipodi.sourceforge.net/DTD/sodipodi-0.dtd"
   xmlns:inkscape="http://www.inkscape.org/namespaces/inkscape"
   version="1.1"
   x="0px"
   y="0px"
   width="500"
   height="500"
   viewport-fill="#FFFFFF"
   viewBox="0 0 499.99998 499.99999"
   enable-background="new 0 0 595.28 841.89"
   xml:space="preserve"
   id="svg2"
   inkscape:version="0.91 r13725"
   sodipodi:docname="logo.svg"><metadata
     id="metadata256"><rdf:RDF><cc:Work
         rdf:about=""><dc:format>image/svg+xml</dc:format><dc:type
           rdf:resource="http://purl.org/dc/dcmitype/StillImage" /><dc:title /></cc:Work></rdf:RDF></metadata><defs
     id="defs254" /><sodipodi:namedview
     pagecolor="#ffffff"
     bordercolor="#666666"
     borderopacity="1"
     objecttolerance="10"
     gridtolerance="10"
     guidetolerance="10"
     inkscape:pageopacity="0"
     inkscape:pageshadow="2"
     inkscape:window-width="1303"
     inkscape:window-height="744"
     id="namedview252"
     showgrid="false"
     inkscape:zoom="0.39643468"
     inkscape:cx="-630.42121"
     inkscape:cy="142.87249"
     inkscape:window-x="65"
     inkscape:window-y="24"
     inkscape:window-maximized="1"
     inkscape:current-layer="svg2" /><rect
     style="fill:#ffffff;fill-opacity:1;stroke:#000000;stroke-opacity:1"
     id="rect4384"
     width="575.12628"
     height="547.37897"
     x="-40.359753"
     y="-14.586662" /><g
     id="图层_1"
     display="none"
     style="display:none"
     transform="translate(0,-341.89001)"><path
       display="inline"
       d="m 105,214 c 0,178.533 86.161,323 192.64,323"
       id="path5"
       inkscape:connector-curvature="0"
       style="display:inline;fill:none;stroke:#000000" /><path
       display="inline"
       d="m 475,214 c 0,178.533 -79.327,323 -177.36,323"
       id="path7"
       inkscape:connector-curvature="0"
       style="display:inline;fill:none;stroke:#000000" /><line
       display="inline"
       x1="105"
       y1="214"
       x2="475"
       y2="214"
       id="line9"
       style="display:inline;fill:none;stroke:#000000" /><line
       display="inline"
       x1="105"
       y1="214"
       x2="105"
       y2="134"
       id="line11"
       style="display:inline;fill:none;stroke:#000000" /><line
       display="inline"
       x1="105"
       y1="134"
       x2="475"
       y2="134"
       id="line13"
       style="display:inline;fill:none;stroke:#000000" /><line
       display="inline"
       x1="475"
       y1="134"
       x2="475"
       y2="214"
       id="line15"
       style="display:inline;fill:none;stroke:#000000" /></g><g
     id="图层_2"
     transform="translate(0,-341.89001)" /><g
     id="图层_3"
     transform="translate(0,-341.89001)"><line
       x1="302.44501"
       y1="692.97601"
       x2="304.57599"
       y2="692.95801"
       id="line19"
       style="fill:none;stroke:#000000;stroke-width:2" /></g><g
     id="图层_4"
     transform="translate(0,-341.89001)" /><g
     id="图层_5"
     display="none"
     style="display:none"
     transform="translate(0,-341.89001)"><line
       display="inline"
       x1="290"
       y1="388.19699"
       x2="290"
       y2="360"
       id="line23"
       style="display:inline;fill:none;stroke:#000000;stroke-width:2" /><line
       display="inline"
       x1="315.33301"
       y1="388.19699"
       x2="315.33301"
       y2="360"
       id="line25"
       style="display:inline;fill:none;stroke:#000000;stroke-width:2" /><line
       display="inline"
       x1="290"
       y1="360"
       x2="229.269"
       y2="401.5"
       id="line27"
       style="display:inline;fill:none;stroke:#000000;stroke-width:2" /><line
       display="inline"
       x1="315.33301"
       y1="360"
       x2="376.73099"
       y2="401.5"
       id="line29"
       style="display:inline;fill:none;stroke:#000000;stroke-width:2" /><line
       display="inline"
       x1="228.192"
       y1="400.72501"
       x2="212.077"
       y2="378.33801"
       id="line31"
       style="display:inline;fill:none;stroke:#000000;stroke-width:2" /><line
       display="inline"
       x1="385.98401"
       y1="388.461"
       x2="376.73099"
       y2="401.314"
       id="line33"
       style="display:inline;fill:none;stroke:#000000;stroke-width:2" /></g><g
     id="图层_6"
     display="none"
     style="display:none"
     transform="translate(0,-341.89001)"><rect
       x="198.66701"
       y="314.974"
       transform="matrix(0.9001,-0.4358,0.4358,0.9001,-116.4391,165.431)"
       display="inline"
       width="207.55901"
       height="43.195"
       id="rect36"
       style="display:inline;fill:none;stroke:#000000;stroke-width:2" /><rect
       x="198.666"
       y="314.974"
       transform="matrix(0.9001,0.4358,-0.4358,0.9001,176.8922,-98.1585)"
       display="inline"
       width="207.55901"
       height="43.195"
       id="rect38"
       style="display:inline;fill:none;stroke:#000000;stroke-width:2" /></g><g
     id="图层_7"
     transform="translate(0,-341.89001)" /><g
     id="图层_8"
     display="none"
     style="display:none"
     transform="translate(0,-341.89001)"><g
       display="inline"
       id="g42"
       style="display:inline"><line
         x1="99.946999"
         y1="178.80701"
         x2="99.946999"
         y2="116"
         id="line44"
         style="fill:none;stroke:#000000;stroke-width:2" /><line
         x1="99.946999"
         y1="116"
         x2="161.597"
         y2="116"
         id="line46"
         style="fill:none;stroke:#000000;stroke-width:2" /><line
         x1="161.597"
         y1="116"
         x2="161.597"
         y2="154.66701"
         id="line48"
         style="fill:none;stroke:#000000;stroke-width:2" /><line
         x1="161.597"
         y1="154.66701"
         x2="186.33299"
         y2="154.66701"
         id="line50"
         style="fill:none;stroke:#000000" /><line
         x1="186.33299"
         y1="154.66701"
         x2="186.33299"
         y2="116"
         id="line52"
         style="fill:none;stroke:#000000;stroke-width:2" /><line
         x1="186.33299"
         y1="116"
         x2="247.98399"
         y2="116"
         id="line54"
         style="fill:none;stroke:#000000;stroke-width:2" /><line
         x1="247.98399"
         y1="116"
         x2="247.98399"
         y2="154.66701"
         id="line56"
         style="fill:none;stroke:#000000;stroke-width:2" /><line
         x1="247.983"
         y1="154.66701"
         x2="272.72"
         y2="154.66701"
         id="line58"
         style="fill:none;stroke:#000000" /><line
         x1="272.72"
         y1="154.66701"
         x2="272.72"
         y2="116"
         id="line60"
         style="fill:none;stroke:#000000;stroke-width:2" /><line
         x1="272.72"
         y1="116"
         x2="334.37"
         y2="116"
         id="line62"
         style="fill:none;stroke:#000000;stroke-width:2" /><line
         x1="334.37"
         y1="116"
         x2="334.37"
         y2="154.66701"
         id="line64"
         style="fill:none;stroke:#000000;stroke-width:2" /><line
         x1="333.15799"
         y1="154.66701"
         x2="357.896"
         y2="154.66701"
         id="line66"
         style="fill:none;stroke:#000000" /><line
         x1="357.896"
         y1="154.66701"
         x2="357.896"
         y2="116"
         id="line68"
         style="fill:none;stroke:#000000;stroke-width:2" /><line
         x1="357.896"
         y1="116"
         x2="419.54599"
         y2="116"
         id="line70"
         style="fill:none;stroke:#000000;stroke-width:2" /><line
         x1="419.54599"
         y1="116"
         x2="419.54599"
         y2="154.66701"
         id="line72"
         style="fill:none;stroke:#000000;stroke-width:2" /><line
         x1="419.54501"
         y1="154.66701"
         x2="444.28101"
         y2="154.66701"
         id="line74"
         style="fill:none;stroke:#000000" /></g><line
       display="inline"
       x1="444.28101"
       y1="154.66701"
       x2="444.28101"
       y2="116"
       id="line76"
       style="display:inline;fill:none;stroke:#000000;stroke-width:2" /><line
       display="inline"
       x1="444.28101"
       y1="116"
       x2="508.01599"
       y2="116"
       id="line78"
       style="display:inline;fill:none;stroke:#000000;stroke-width:2" /><line
       display="inline"
       x1="508.01599"
       y1="178.80701"
       x2="508.01599"
       y2="116"
       id="line80"
       style="display:inline;fill:none;stroke:#000000;stroke-width:2" /></g><g
     id="图层_9"
     transform="matrix(0.68268171,0,0,0.68268093,42.488915,-24.50305)"><g
       id="XMLID_1_"><g
         id="g84"><path
           d="m 303.9,612.48 c 12.239,-2.671 24.14,-6.82 35.42,-12.25 29.59,-14.261 54.76,-37.2 72.41,-64.841 17.71,-27.739 27.84,-60.39 27.42,-93.399 l 0,-151 -271,0 0,151 c -0.88,39.55 13.22,78.939 37.68,109.88 23.08,29.2 55.91,50.63 92.08,59.56 1.54,0.391 3.09,0.74 4.64,1.07 l 1.35,-0.02 z m 204.12,-175.3 c 0.62,49.71 -14.63,98.87 -41.3,140.65 -26.58,41.62 -64.47,76.16 -109.04,97.63 -16.989,8.19 -34.93,14.44 -53.37,18.47 l -1.369,0.15 c -2.551,-0.54 -5.081,-1.12 -7.61,-1.74 -54.47,-13.46 -103.89,-45.72 -138.65,-89.7 -36.83,-46.59 -58.06,-105.89 -56.73,-165.46 l 0,-227.37 0,-0.6 0,-67.27 78.71,0 0,43.17 31.59,0 0,-43.17 78.71,0 0,43.17 31.59,0 0,-43.17 78.71,0 0,43.17 0.86,0 c 9.729,0 19.45,0 29.18,0 l 0,-43.17 78.72,0 0,67.87 0,227.37 z"
           id="path86"
           inkscape:connector-curvature="0" /><path
           d="m 303,396.47 0.51,-0.31 66.45,41.12 38.49,-23.82 -66.45,-41.12 66.45,-41.12 -38.49,-23.82 -66.45,41.12 -66.45,-41.12 -38.49,23.82 66.45,41.12 -66.45,41.12 38.49,23.82 65.94,-40.81 z m 53.38,157.3 c 12.61,-13.229 20.351,-31.149 20.351,-50.869 0,-19.721 -7.74,-37.631 -20.341,-50.86 -13.33,-13.97 -32.069,-22.72 -52.87,-22.86 -0.17,-0.01 -0.35,-0.01 -0.52,-0.01 -0.01,0 -0.03,0 -0.04,0 -20.94,0.01 -39.83,8.75 -53.26,22.771 -12.65,13.239 -20.43,31.189 -20.43,50.96 0,19.979 7.95,38.1 20.86,51.39 13.38,13.77 32.11,22.33 52.83,22.34 0.01,0 0.03,0 0.04,0 0.17,0 0.35,0 0.52,-0.01 20.79,-0.142 39.53,-8.882 52.86,-22.852 z m 82.77,-111.78 c 0.42,33.01 -9.71,65.66 -27.42,93.399 -17.65,27.641 -42.82,50.58 -72.41,64.841 -11.28,5.43 -23.181,9.579 -35.42,12.25 l -1.351,0.02 c -1.55,-0.33 -3.1,-0.68 -4.64,-1.07 -36.17,-8.93 -69,-30.359 -92.08,-59.56 -24.46,-30.94 -38.56,-70.33 -37.68,-109.88 l 0,-151 271,0 0,151 z"
           id="path88"
           inkscape:connector-curvature="0"
           style="fill:#ffffff" /><polygon
           points="342,372.34 303.51,348.52 369.96,307.4 408.45,331.22 "
           id="polygon90"
           style="fill:#82d0f4" /><polygon
           points="369.96,437.28 303.51,396.16 342,372.34 408.45,413.46 "
           id="polygon92"
           style="fill:#82d0f4" /><path
           d="m 376.73,502.9 -0.45,0 -42.22,0 c -0.06,-11.971 -2.17,-23.971 -6.35,-35.431 16.99,-2.92 28.58,-8.729 28.68,-15.43 12.6,13.231 20.34,31.141 20.34,50.861 z"
           id="path94"
           inkscape:connector-curvature="0"
           style="fill:#82d0f4" /><path
           d="m 376.28,502.9 0.45,0 c 0,19.72 -7.74,37.64 -20.351,50.869 -0.16,-6.649 -11.6,-12.399 -28.38,-15.329 4.11,-11.431 6.14,-23.471 6.06,-35.54 l 42.221,0 z"
           id="path96"
           inkscape:connector-curvature="0"
           style="fill:#82d0f4" /><path
           d="m 303.52,429.18 c 20.801,0.141 39.54,8.891 52.87,22.86 -0.1,6.7 -11.689,12.51 -28.68,15.43 -5.04,-13.9 -13.11,-27 -24.19,-38.29 z"
           id="path98"
           inkscape:connector-curvature="0"
           style="fill:#82d0f4" /><path
           d="m 356.38,553.77 c -13.33,13.971 -32.07,22.711 -52.86,22.851 11.29,-11.09 19.45,-24.18 24.48,-38.18 16.78,2.929 28.22,8.679 28.38,15.329 z"
           id="path100"
           inkscape:connector-curvature="0"
           style="fill:#82d0f4" /><path
           d="m 303.45,536.37 c -0.15,-0.01 -0.3,-0.01 -0.45,-0.01 l 0,-33.46 31.06,0 c 0.08,12.069 -1.949,24.109 -6.06,35.54 -7.33,-1.29 -15.68,-2.03 -24.55,-2.07 z"
           id="path102"
           inkscape:connector-curvature="0"
           style="fill:#82d0f4" /><path
           d="m 303.05,469.5 c 8.91,-0.02 17.29,-0.75 24.66,-2.03 4.18,11.46 6.29,23.46 6.35,35.431 l -31.06,0 0,-33.4 c 0.02,-10e-4 0.03,-10e-4 0.05,-10e-4 z"
           id="path104"
           inkscape:connector-curvature="0"
           style="fill:#82d0f4" /><path
           d="m 303.52,429.18 c 11.08,11.29 19.15,24.391 24.19,38.29 -7.37,1.28 -15.75,2.011 -24.66,2.03 -0.02,0 -0.03,0 -0.05,0 l 0,-40.33 c 0.17,0 0.35,0 0.52,0.01 z"
           id="path106"
           inkscape:connector-curvature="0"
           style="fill:#82d0f4" /><path
           d="m 328,538.44 c -5.03,14 -13.19,27.09 -24.48,38.18 -0.17,0.01 -0.35,0.01 -0.52,0.01 l 0,-40.26 c 0.15,-0.01 0.3,-0.01 0.45,0 8.87,0.04 17.22,0.78 24.55,2.07 z"
           id="path108"
           inkscape:connector-curvature="0"
           style="fill:#82d0f4" /><polygon
           points="265.02,372.34 198.57,331.22 237.06,307.4 303.51,348.52 "
           id="polygon110"
           style="fill:#82d0f4" /><polygon
           points="303,396.47 237.06,437.28 198.57,413.46 265.02,372.34 303,395.85 "
           id="polygon112"
           style="fill:#82d0f4" /><path
           d="m 303,536.37 0,40.26 c -0.01,0 -0.03,0 -0.04,0 -11.06,-11.26 -19.12,-24.32 -24.16,-38.18 7.23,-1.27 15.45,-2.02 24.2,-2.08 z"
           id="path114"
           inkscape:connector-curvature="0"
           style="fill:#82d0f4" /><path
           d="m 303,536.36 0,0.01 c -8.75,0.06 -16.97,0.81 -24.2,2.08 -4.21,-11.49 -6.33,-23.53 -6.39,-35.55 l 30.59,0 0,33.46 z"
           id="path116"
           inkscape:connector-curvature="0"
           style="fill:#82d0f4" /><path
           d="m 303,469.5 0,33.4 -30.59,0 c -0.08,-12.03 1.93,-24.03 6.02,-35.42 7.34,1.27 15.7,1.99 24.57,2.02 z"
           id="path118"
           inkscape:connector-curvature="0"
           style="fill:#82d0f4" /><path
           d="m 303,429.17 0,40.33 c -8.87,-0.03 -17.23,-0.75 -24.57,-2.02 5.02,-14.051 13.2,-27.181 24.53,-38.311 0.01,0.001 0.03,0.001 0.04,0.001 z"
           id="path120"
           inkscape:connector-curvature="0"
           style="fill:#82d0f4" /><path
           d="m 302.96,429.17 c -11.33,11.13 -19.51,24.26 -24.53,38.311 -17.09,-2.94 -28.72,-8.79 -28.72,-15.53 l -0.01,-0.01 c 13.43,-14.021 32.32,-22.761 53.26,-22.771 z"
           id="path122"
           inkscape:connector-curvature="0"
           style="fill:#82d0f4" /><path
           d="m 278.8,538.45 c 5.04,13.859 13.1,26.92 24.16,38.18 -20.72,-0.01 -39.45,-8.57 -52.83,-22.34 l 0.38,-0.37 c 0,-6.7 11.44,-12.51 28.29,-15.47 z"
           id="path124"
           inkscape:connector-curvature="0"
           style="fill:#82d0f4" /><path
           d="m 278.43,467.48 c -4.09,11.39 -6.1,23.39 -6.02,35.42 l -43.14,0 c 0,-19.771 7.78,-37.721 20.43,-50.96 l 0.01,0.01 c 0,6.74 11.63,12.59 28.72,15.53 z"
           id="path126"
           inkscape:connector-curvature="0"
           style="fill:#82d0f4" /><path
           d="m 272.41,502.9 c 0.06,12.02 2.18,24.06 6.39,35.55 -16.85,2.96 -28.29,8.77 -28.29,15.47 l -0.38,0.37 C 237.22,541 229.27,522.88 229.27,502.9 l 43.14,0 z"
           id="path128"
           inkscape:connector-curvature="0"
           style="fill:#82d0f4" /></g><g
         id="g130"><line
           x1="168.14999"
           y1="290.98999"
           x2="439.14999"
           y2="290.98999"
           id="line132"
           style="fill:none;stroke:#000000;stroke-width:2" /><line
           x1="168.14999"
           y1="290.98999"
           x2="168.14999"
           y2="441.98999"
           id="line134"
           style="fill:none;stroke:#000000;stroke-width:2" /><line
           x1="439.14999"
           y1="290.98999"
           x2="439.14999"
           y2="441.98999"
           id="line136"
           style="fill:none;stroke:#000000;stroke-width:2" /><path
           d="m 168.15,441.99 c -0.88,39.55 13.22,78.939 37.68,109.88 23.08,29.2 55.91,50.63 92.08,59.56 1.54,0.391 3.09,0.74 4.64,1.07 0.141,0.03 0.271,0.06 0.41,0.09"
           id="path138"
           inkscape:connector-curvature="0"
           style="fill:none;stroke:#000000;stroke-width:2" /><path
           d="m 439.15,441.99 c 0.42,33.01 -9.71,65.66 -27.42,93.399 -17.65,27.641 -42.82,50.58 -72.41,64.841 -11.28,5.43 -23.181,9.579 -35.42,12.25 -0.011,0.01 -0.021,0.01 -0.03,0.01"
           id="path140"
           inkscape:connector-curvature="0"
           style="fill:none;stroke:#000000;stroke-width:2" /><line
           x1="99.949997"
           y1="209.81"
           x2="99.949997"
           y2="437.17999"
           id="line142"
           style="fill:none;stroke:#000000;stroke-width:2" /><line
           x1="508.01999"
           y1="209.81"
           x2="508.01999"
           y2="437.17999"
           id="line144"
           style="fill:none;stroke:#000000;stroke-width:2" /><path
           d="m 99.95,437.18 c -1.33,59.57 19.9,118.87 56.73,165.46 34.76,43.98 84.18,76.24 138.65,89.7 2.53,0.62 5.06,1.2 7.61,1.74"
           id="path146"
           inkscape:connector-curvature="0"
           style="fill:none;stroke:#000000;stroke-width:2" /><path
           d="m 508.02,437.18 c 0.62,49.71 -14.63,98.87 -41.3,140.65 -26.58,41.62 -64.47,76.16 -109.04,97.63 -16.989,8.19 -34.93,14.44 -53.37,18.47"
           id="path148"
           inkscape:connector-curvature="0"
           style="fill:none;stroke:#000000;stroke-width:2" /><polyline
           points="302.45,612.5 302.55,612.5 303.9,612.48 304.09,612.48    "
           id="polyline150"
           style="fill:none;stroke:#000000;stroke-width:2" /><path
           d="m 376.73,502.9 c 0,19.72 -7.74,37.64 -20.351,50.869 -13.33,13.971 -32.07,22.711 -52.86,22.851 -0.17,0.01 -0.35,0.01 -0.52,0.01 -0.01,0 -0.03,0 -0.04,0 -20.72,-0.01 -39.45,-8.57 -52.83,-22.34 -12.91,-13.29 -20.86,-31.41 -20.86,-51.39 0,-19.771 7.78,-37.721 20.43,-50.96 13.43,-14.021 32.32,-22.761 53.26,-22.771 0.01,0 0.03,0 0.04,0 0.17,0 0.35,0 0.52,0.01 20.801,0.141 39.54,8.891 52.87,22.86 12.601,13.231 20.341,31.141 20.341,50.861 z"
           id="path152"
           inkscape:connector-curvature="0"
           style="fill:none;stroke:#000000;stroke-width:2" /><polyline
           points="228.9,502.9 229.27,502.9 272.41,502.9 303,502.9 334.06,502.9      376.28,502.9    "
           id="polyline154"
           style="fill:none;stroke:#000000;stroke-width:2" /><polyline
           points="303,576.63 303,536.37 303,536.36 303,502.9 303,469.5      303,429.17 303,396.47 303,395.85    "
           id="polyline156"
           style="fill:none;stroke:#000000;stroke-width:2" /><path
           d="m 303.05,469.5 c 0.15,0 0.311,0 0.46,0"
           id="path158"
           inkscape:connector-curvature="0"
           style="fill:none;stroke:#000000;stroke-width:2" /><path
           d="m 249.71,451.95 c 0,6.74 11.63,12.59 28.72,15.53 7.34,1.27 15.7,1.989 24.57,2.02"
           id="path160"
           inkscape:connector-curvature="0"
           style="fill:none;stroke:#000000;stroke-width:2" /><path
           d="m 356.39,451.95 c 0,0.03 0,0.06 0,0.09 -0.1,6.7 -11.689,12.51 -28.68,15.43 -7.37,1.28 -15.75,2.011 -24.66,2.03 -0.02,0 -0.03,0 -0.05,0 -0.14,0 -0.27,0 -0.41,0"
           id="path162"
           inkscape:connector-curvature="0"
           style="fill:none;stroke:#000000;stroke-width:2" /><path
           d="m 356.39,553.92 c 0,-0.05 0,-0.1 -0.01,-0.15 -0.16,-6.649 -11.6,-12.399 -28.38,-15.329 -7.33,-1.29 -15.68,-2.03 -24.55,-2.07 -0.15,-0.01 -0.3,-0.01 -0.45,-0.01 -0.14,0 -0.27,0 -0.41,0"
           id="path164"
           inkscape:connector-curvature="0"
           style="fill:none;stroke:#000000;stroke-width:2" /><path
           d="m 250.51,553.92 c 0,-6.7 11.44,-12.51 28.29,-15.47 7.23,-1.271 15.45,-2.021 24.2,-2.08 0.15,-0.01 0.3,-0.01 0.45,0 0.29,-0.01 0.569,-0.01 0.859,-0.01"
           id="path166"
           inkscape:connector-curvature="0"
           style="fill:none;stroke:#000000;stroke-width:2" /><path
           d="m 302.96,429.17 c -11.33,11.13 -19.51,24.26 -24.53,38.311 -4.09,11.39 -6.1,23.39 -6.02,35.42 0.06,12.02 2.18,24.06 6.39,35.55 5.04,13.859 13.1,26.92 24.16,38.18"
           id="path168"
           inkscape:connector-curvature="0"
           style="fill:none;stroke:#000000;stroke-width:2" /><path
           d="m 303.51,576.63 0.01,-0.01 c 11.29,-11.09 19.45,-24.18 24.48,-38.18 4.11,-11.431 6.14,-23.471 6.06,-35.54 -0.06,-11.971 -2.17,-23.971 -6.35,-35.431 -5.04,-13.899 -13.11,-27 -24.19,-38.29 l -0.01,-0.01"
           id="path170"
           inkscape:connector-curvature="0"
           style="fill:none;stroke:#000000;stroke-width:2" /><polygon
           points="265.02,372.34 303.51,348.52 369.96,307.4 408.45,331.22 342,372.34 303.51,396.16 303,396.47 237.06,437.28 198.57,413.46 "
           id="polygon172"
           style="fill:none;stroke:#000000;stroke-width:2" /><polygon
           points="303,395.85 265.02,372.34 198.57,331.22 237.06,307.4 303.51,348.52 342,372.34 408.45,413.46 369.96,437.28 303.51,396.16 "
           id="polygon174"
           style="fill:none;stroke:#000000;stroke-width:2" /><line
           x1="99.949997"
           y1="209.21001"
           x2="99.949997"
           y2="141.94"
           id="line176"
           style="fill:none;stroke:#000000;stroke-width:2" /><line
           x1="99.949997"
           y1="141.94"
           x2="178.66"
           y2="141.94"
           id="line178"
           style="fill:none;stroke:#000000;stroke-width:2" /><line
           x1="178.66"
           y1="141.94"
           x2="178.66"
           y2="185.11"
           id="line180"
           style="fill:none;stroke:#000000;stroke-width:2" /><line
           x1="178.66"
           y1="185.11"
           x2="210.25"
           y2="185.11"
           id="line182"
           style="fill:none;stroke:#000000" /><line
           x1="210.25"
           y1="185.11"
           x2="210.25"
           y2="141.94"
           id="line184"
           style="fill:none;stroke:#000000;stroke-width:2" /><line
           x1="210.25"
           y1="141.94"
           x2="288.95999"
           y2="141.94"
           id="line186"
           style="fill:none;stroke:#000000;stroke-width:2" /><line
           x1="288.95999"
           y1="141.94"
           x2="288.95999"
           y2="185.11"
           id="line188"
           style="fill:none;stroke:#000000;stroke-width:2" /><line
           x1="288.95999"
           y1="185.11"
           x2="320.54999"
           y2="185.11"
           id="line190"
           style="fill:none;stroke:#000000" /><line
           x1="320.54999"
           y1="185.11"
           x2="320.54999"
           y2="141.94"
           id="line192"
           style="fill:none;stroke:#000000;stroke-width:2" /><line
           x1="320.54999"
           y1="141.94"
           x2="399.26001"
           y2="141.94"
           id="line194"
           style="fill:none;stroke:#000000;stroke-width:2" /><line
           x1="399.26001"
           y1="141.94"
           x2="399.26001"
           y2="185.11"
           id="line196"
           style="fill:none;stroke:#000000;stroke-width:2" /><path
           d="m 400.12,185.11 c 9.729,0 19.45,0 29.18,0"
           id="path198"
           inkscape:connector-curvature="0"
           style="fill:none;stroke:#000000" /><line
           x1="429.29999"
           y1="185.11"
           x2="429.29999"
           y2="141.94"
           id="line200"
           style="fill:none;stroke:#000000;stroke-width:2" /><line
           x1="429.29999"
           y1="141.94"
           x2="508.01999"
           y2="141.94"
           id="line202"
           style="fill:none;stroke:#000000;stroke-width:2" /><line
           x1="508.01999"
           y1="141.94"
           x2="508.01999"
           y2="209.81"
           id="line204"
           style="fill:none;stroke:#000000;stroke-width:2" /></g></g></g><g
     id="图层_10"
     display="none"
     style="display:none"
     transform="translate(0,-341.89001)"><path
       display="inline"
       d="m 145.741,420.164 c 0,0 -13.5,2.925 -13.5,-14.788 0,-17.713 0,34.788 0,34.788 0,0 1,-20 13.5,-20 z"
       id="path207"
       inkscape:connector-curvature="0"
       style="display:inline;fill:none;stroke:#000000;stroke-width:2" /><path
       display="inline"
       d="M 120.741,420.945"
       id="path209"
       inkscape:connector-curvature="0"
       style="display:inline;fill:none;stroke:#000000;stroke-width:2" /><path
       display="inline"
       d="m 132.241,405.971 c 0,0 -1,12.505 -12.5,14.974 0,0 14.75,5.469 12.5,16.969"
       id="path211"
       inkscape:connector-curvature="0"
       style="display:inline;fill:none;stroke:#000000;stroke-width:2" /><path
       display="inline"
       d="m 146.241,345.486 c 0,0 -13.5,2.925 -13.5,-14.788 0,-17.713 0,34.788 0,34.788 0,0 1,-20 13.5,-20 z"
       id="path213"
       inkscape:connector-curvature="0"
       style="display:inline;fill:none;stroke:#000000;stroke-width:2" /><path
       display="inline"
       d="M 121.241,346.268"
       id="path215"
       inkscape:connector-curvature="0"
       style="display:inline;fill:none;stroke:#000000;stroke-width:2" /><path
       display="inline"
       d="m 132.741,331.293 c 0,0 -1,12.505 -12.5,14.974 0,0 14.75,5.469 12.5,16.969"
       id="path217"
       inkscape:connector-curvature="0"
       style="display:inline;fill:none;stroke:#000000;stroke-width:2" /><path
       display="inline"
       d="m 490,424.409 c 0,0 -13.5,2.925 -13.5,-14.788 0,-17.713 0,34.788 0,34.788 0,0 1,-20 13.5,-20 z"
       id="path219"
       inkscape:connector-curvature="0"
       style="display:inline;fill:none;stroke:#000000;stroke-width:2" /><path
       display="inline"
       d="m 476.5,410.216 c 0,0 -1,12.505 -12.5,14.974 0,0 14.75,5.469 12.5,16.969"
       id="path221"
       inkscape:connector-curvature="0"
       style="display:inline;fill:none;stroke:#000000;stroke-width:2" /><path
       display="inline"
       d="m 490.5,349.731 c 0,0 -13.5,2.925 -13.5,-14.788 0,-17.713 0,34.788 0,34.788 0,0 1,-20 13.5,-20 z"
       id="path223"
       inkscape:connector-curvature="0"
       style="display:inline;fill:none;stroke:#000000;stroke-width:2" /><path
       display="inline"
       d="m 477,335.539 c 0,0 -1,12.505 -12.5,14.974 0,0 14.75,5.469 12.5,16.969"
       id="path225"
       inkscape:connector-curvature="0"
       style="display:inline;fill:none;stroke:#000000;stroke-width:2" /><path
       display="inline"
       d="m 483.367,495.778 c 0,0 -13.5,2.925 -13.5,-14.788 0,-17.712 0,34.788 0,34.788 0,0 1,-20 13.5,-20 z"
       id="path227"
       inkscape:connector-curvature="0"
       style="display:inline;fill:none;stroke:#000000;stroke-width:2" /><path
       display="inline"
       d="m 469.867,481.586 c 0,0 -1,12.505 -12.5,14.974 0,0 14.75,5.469 12.5,16.969"
       id="path229"
       inkscape:connector-curvature="0"
       style="display:inline;fill:none;stroke:#000000;stroke-width:2" /><path
       display="inline"
       d="m 152.491,495.778 c 0,0 -13.5,2.925 -13.5,-14.788 0,-17.712 0,34.788 0,34.788 0,0 1,-20 13.5,-20 z"
       id="path231"
       inkscape:connector-curvature="0"
       style="display:inline;fill:none;stroke:#000000;stroke-width:2" /><path
       display="inline"
       d="m 138.991,481.586 c 0,0 -1,12.505 -12.5,14.974 0,0 14.75,5.469 12.5,16.969"
       id="path233"
       inkscape:connector-curvature="0"
       style="display:inline;fill:none;stroke:#000000;stroke-width:2" /><path
       display="inline"
       d="m 181.153,552.135 c 0,0 -13.5,2.926 -13.5,-14.787 0,-17.713 0,34.787 0,34.787 0,0 1,-20 13.5,-20 z"
       id="path235"
       inkscape:connector-curvature="0"
       style="display:inline;fill:none;stroke:#000000;stroke-width:2" /><path
       display="inline"
       d="m 167.653,537.943 c 0,0 -1,12.504 -12.5,14.973 0,0 14.75,5.469 12.5,16.969"
       id="path237"
       inkscape:connector-curvature="0"
       style="display:inline;fill:none;stroke:#000000;stroke-width:2" /><path
       display="inline"
       d="m 214.413,598.314 c 0,0 -13.5,2.925 -13.5,-14.788 0,-17.712 0,34.788 0,34.788 0,0 1,-20 13.5,-20 z"
       id="path239"
       inkscape:connector-curvature="0"
       style="display:inline;fill:none;stroke:#000000;stroke-width:2" /><path
       display="inline"
       d="m 200.913,584.122 c 0,0 -1,12.505 -12.5,14.974 0,0 14.75,5.469 12.5,16.969"
       id="path241"
       inkscape:connector-curvature="0"
       style="display:inline;fill:none;stroke:#000000;stroke-width:2" /><path
       display="inline"
       d="m 452.165,549.885 c 0,0 -13.5,2.924 -13.5,-14.789 0,-17.711 0,34.789 0,34.789 0,0 1,-20 13.5,-20 z"
       id="path243"
       inkscape:connector-curvature="0"
       style="display:inline;fill:none;stroke:#000000;stroke-width:2" /><path
       display="inline"
       d="m 438.665,535.691 c 0,0 -1,12.506 -12.5,14.975 0,0 14.75,5.469 12.5,16.969"
       id="path245"
       inkscape:connector-curvature="0"
       style="display:inline;fill:none;stroke:#000000;stroke-width:2" /><path
       display="inline"
       d="m 413.119,599.313 c 0,0 -13.5,2.924 -13.5,-14.789 0,-17.711 0,34.789 0,34.789 0,0 1,-20 13.5,-20 z"
       id="path247"
       inkscape:connector-curvature="0"
       style="display:inline;fill:none;stroke:#000000;stroke-width:2" /><path
       display="inline"
       d="m 399.619,585.119 c 0,0 -1,12.506 -12.5,14.975 0,0 14.75,5.469 12.5,16.969"
       id="path249"
       inkscape:connector-curvature="0"
       style="display:inline;fill:none;stroke:#000000;stroke-width:2" /></g><g
     id="图层_11"
     transform="translate(0,-341.89001)" /></svg>